<svg width="55" height="55" viewBox="0 0 55 55" fill="none" xmlns="http://www.w3.org/2000/svg">
<path d="M27.5 19.833L26.1487 21.1843L31.4962 26.5413H19.8333V28.458H31.4962L26.1487 33.8151L27.5 35.1663L35.1666 27.4997L27.5 19.833Z" fill="white"/>
<path d="M27.5 54C12.8645 54 1 42.1355 1 27.5H-1C-1 43.2401 11.7599 56 27.5 56V54ZM54 27.5C54 42.1355 42.1355 54 27.5 54V56C43.2401 56 56 43.2401 56 27.5H54ZM27.5 1C42.1355 1 54 12.8645 54 27.5H56C56 11.7599 43.2401 -1 27.5 -1V1ZM27.5 -1C11.7599 -1 -1 11.7599 -1 27.5H1C1 12.8645 12.8645 1 27.5 1V-1Z" fill="white"/>
</svg>
