<svg id="Capa_1" data-name="Capa 1" xmlns="http://www.w3.org/2000/svg" viewBox="0 0 40.15 39.95"><defs><style>.cls-1{fill:#fff;}</style></defs><path d="M20.08,40A20,20,0,1,1,40.15,20,20,20,0,0,1,20.08,40Zm0-30.73v.12c-1.58,0-3.16-.06-4.74,0-3.56.18-5.79,2.24-5.93,5.72q-.21,4.92,0,9.86a5.5,5.5,0,0,0,5.48,5.61c3.35.16,6.73.17,10.08,0s5.49-2.14,5.69-5.52a87.78,87.78,0,0,0,0-10.13c-.18-3.25-2.12-5.14-5.36-5.51C23.6,9.23,21.85,9.28,20.1,9.22Z"/><path class="cls-1" d="M20.1,9.22c1.75.06,3.5,0,5.23.2,3.24.37,5.18,2.26,5.36,5.51a87.78,87.78,0,0,1,0,10.13c-.2,3.38-2.31,5.38-5.69,5.52s-6.73.12-10.08,0a5.5,5.5,0,0,1-5.48-5.61q-.21-4.93,0-9.86c.14-3.48,2.37-5.54,5.93-5.72,1.58-.07,3.16,0,4.74,0Zm-.05,1.87v.12c-1.46,0-2.91,0-4.37,0-2.62.07-4.19,1.29-4.34,3.85a91,91,0,0,0,0,9.91c.12,2.38,1.46,3.6,3.85,3.71,3.18.13,6.37.16,9.55,0,2.7-.12,4-1.45,4.1-4.15s.07-5.23.08-7.85a14.35,14.35,0,0,0-.14-2,3.69,3.69,0,0,0-3.51-3.43C23.54,11.16,21.79,11.16,20.05,11.09Z"/><path d="M20.05,11.09c1.74.07,3.49.07,5.23.22a3.69,3.69,0,0,1,3.51,3.43,14.35,14.35,0,0,1,.14,2c0,2.62.05,5.24-.08,7.85s-1.4,4-4.1,4.15c-3.18.14-6.37.11-9.55,0-2.39-.11-3.73-1.33-3.85-3.71a91,91,0,0,1,0-9.91c.15-2.56,1.72-3.78,4.34-3.85,1.46,0,2.91,0,4.37,0Zm5.52,9a5.5,5.5,0,1,0-5.52,5.43A5.5,5.5,0,0,0,25.57,20.05Zm1.52-5.69A1.25,1.25,0,0,0,25.89,13a1.23,1.23,0,0,0-1.32,1.16,1.24,1.24,0,0,0,1.21,1.33A1.2,1.2,0,0,0,27.09,14.36Z"/><path class="cls-1" d="M25.57,20.05a5.5,5.5,0,1,1-5.46-5.55A5.47,5.47,0,0,1,25.57,20.05ZM23.69,20a3.62,3.62,0,1,0-3.61,3.62A3.61,3.61,0,0,0,23.69,20Z"/><path class="cls-1" d="M27.09,14.36a1.2,1.2,0,0,1-1.31,1.14,1.24,1.24,0,0,1-1.21-1.33A1.23,1.23,0,0,1,25.89,13,1.25,1.25,0,0,1,27.09,14.36Z"/><path d="M23.69,20a3.65,3.65,0,0,1-3.61,3.62A3.61,3.61,0,1,1,23.69,20Z"/></svg>