<svg id="Capa_1" data-name="Capa 1" xmlns="http://www.w3.org/2000/svg" viewBox="0 0 40.12 39.93"><defs><style>.cls-1{fill:#eaeaea;}</style></defs><path d="M20.05,39.93A20,20,0,0,1,0,20.22,20.06,20.06,0,1,1,20.05,39.93ZM20,8.87H10.88c-1.46,0-2,.5-2,2v8.4c0,3.27,0,6.54,0,9.82a1.57,1.57,0,0,0,1.7,1.75H29.19c1.32,0,1.84-.55,1.84-1.87q0-9.13,0-18.28a1.59,1.59,0,0,0-1.8-1.81Z"/><path class="cls-1" d="M20,8.87h9.22A1.59,1.59,0,0,1,31,10.68Q31,19.81,31,29c0,1.32-.52,1.86-1.84,1.87H10.64a1.57,1.57,0,0,1-1.7-1.75c0-3.28,0-6.55,0-9.82v-8.4c0-1.48.49-2,2-2H20ZM21,17.29c-1,0-1.83,0-2.7,0-.38,0-.51.12-.51.5,0,3.2,0,6.4,0,9.6,0,.41.17.49.53.48.78,0,1.56-.05,2.34,0,.44,0,.53-.13.52-.52,0-1.54,0-3.09,0-4.63a5.87,5.87,0,0,1,.33-1.86c.32-.79,1.08-.89,1.84-.84a1.36,1.36,0,0,1,1.27,1.16,6,6,0,0,1,.15,1.34c0,1.64,0,3.28,0,4.91,0,.33.1.46.44.45h2.45c.34,0,.44-.13.44-.45,0-2.15,0-4.3,0-6.44a4,4,0,0,0-1.23-3.1A4.23,4.23,0,0,0,21.5,18c-.16.15-.31.32-.55.58Zm-5.24,0c-1,0-1.87,0-2.77,0-.48,0-.58.17-.58.6q0,4.76,0,9.49c0,.15,0,.31.06.49.93,0,1.82,0,2.71,0,.46,0,.59-.13.58-.58q0-4.71,0-9.42C15.74,17.7,15.72,17.54,15.71,17.29ZM12.13,14a1.89,1.89,0,0,0,1.94,1.91,2,2,0,0,0,1.94-2,1.94,1.94,0,0,0-2-1.85A1.9,1.9,0,0,0,12.13,14Z"/><path d="M21,17.29v1.33c.24-.26.39-.43.55-.58a4.23,4.23,0,0,1,5.32-.17A4,4,0,0,1,28.05,21c0,2.14,0,4.29,0,6.44,0,.32-.1.46-.44.45H25.18c-.34,0-.44-.12-.44-.45,0-1.63,0-3.27,0-4.91a6,6,0,0,0-.15-1.34A1.36,1.36,0,0,0,23.3,20c-.76-.05-1.52.05-1.84.84a5.87,5.87,0,0,0-.33,1.86c0,1.54,0,3.09,0,4.63,0,.39-.08.54-.52.52-.78,0-1.56,0-2.34,0-.36,0-.53-.07-.53-.48,0-3.2,0-6.4,0-9.6,0-.38.13-.5.51-.5C19.12,17.31,20,17.29,21,17.29Z"/><path d="M15.71,17.29c0,.25,0,.41,0,.58q0,4.71,0,9.42c0,.45-.12.6-.58.58-.89,0-1.78,0-2.71,0,0-.18-.06-.34-.06-.49q0-4.74,0-9.49c0-.43.1-.62.58-.6C13.84,17.31,14.74,17.29,15.71,17.29Z"/><path d="M12.13,14a1.9,1.9,0,0,1,1.92-1.94,1.94,1.94,0,0,1,2,1.85,2,2,0,0,1-1.94,2A1.89,1.89,0,0,1,12.13,14Z"/></svg>