<svg id="Capa_1" data-name="Capa 1" xmlns="http://www.w3.org/2000/svg" xmlns:xlink="http://www.w3.org/1999/xlink" viewBox="0 0 500 500"><defs><style>.cls-1,.cls-3{fill:none;}.cls-2{clip-path:url(#clip-path);}.cls-3{stroke:#454545;stroke-miterlimit:10;}.cls-4{fill:#454545;}</style><clipPath id="clip-path"><rect class="cls-1" x="-330.39" y="601.18" width="309.35" height="295.97"/></clipPath></defs><g class="cls-2"><path class="cls-3" d="M116.62,601.19a137.71,137.71,0,0,0-4.53-35.07l77.35,17a210.6,210.6,0,0,0-60.33-130.37L87.94,517.11c-1.23-1.61-2.41-3.08-3.58-4.45l-.32-.37,28.73-44.92L67.86,496.09l-.38-.32c-1.47-1.24-3-2.44-4.45-3.57L127.39,451A210.69,210.69,0,0,0-3,390.71l17,77.34a139,139,0,0,0-70.11,0l17-77.34A210.59,210.59,0,0,0-169.47,451l64.35,41.17c-1.48,1.12-3,2.32-4.45,3.57l-.38.32-44.91-28.72,28.72,44.93-.31.36c-1.17,1.36-2.35,2.84-3.59,4.45l-41.16-64.35a210.53,210.53,0,0,0-60.32,130.36l77.34-17a137.65,137.65,0,0,0-4.53,35.07,137.55,137.55,0,0,0,4.53,35l-77.34-17A210.58,210.58,0,0,0-171.2,749.63L-130,685.26c1.14,1.49,2.34,3,3.58,4.45l.32.38L-154.86,735l44.91-28.72.38.32c1.46,1.24,3,2.43,4.46,3.58l-64.38,41.16A210.53,210.53,0,0,0-39.08,811.68l-17-77.36a137.48,137.48,0,0,0,35,4.53A137.69,137.69,0,0,0,14,734.32L-3,811.68a210.63,210.63,0,0,0,130.4-60.34L63,710.18c1.48-1.13,3-2.33,4.45-3.58l.38-.32L112.77,735,84.05,690.09l.32-.38c1.25-1.48,2.45-3,3.57-4.45l41.17,64.38a210.57,210.57,0,0,0,60.33-130.42l-77.35,17A137.61,137.61,0,0,0,116.62,601.19Zm54.09-30.13v.05s0,.09,0,.13,0,0,0,.07,0,.09,0,.14,0,.08,0,.11,0,.07,0,.1,0,.06,0,.09,0,.07,0,.1a.22.22,0,0,1,0,.08l0,.17s0,0,0,.06,0,.09,0,.14a.09.09,0,0,0,0,.05c.06.41.11.82.17,1.23l-11.83,1.66c-.15-1-.31-2.08-.47-3.12l11.8-1.87C170.63,570.52,170.67,570.79,170.71,571.06Zm-1.92-10.54v0c0,.12.06.25.08.37a.43.43,0,0,1,0,.11.42.42,0,0,1,0,.06c.1.47.19.95.29,1.42l-11.73,2.35c-.21-1-.42-2.07-.64-3.1l11.68-2.55C168.6,559.64,168.7,560.08,168.79,560.52ZM166,549.1h0s0,.1,0,.15l0,.09v0c.16.55.3,1.1.45,1.66,0,0,0,.05,0,.08v0c0,.13.07.25.1.38l-11.56,3c-.27-1-.55-2-.84-3.05l11.52-3.23C165.87,548.56,165.94,548.83,166,549.1Zm-3.56-11.51c.27.78.53,1.57.79,2.35v0a.49.49,0,0,1,0,.11c.07.23.14.44.22.67l-11.37,3.69c-.33-1-.66-2-1-3l11.31-3.89Zm-4-10.52.06.15v0c.37.9.73,1.81,1.09,2.72v0a.61.61,0,0,0,.05.12.25.25,0,0,0,0,.07l-11.14,4.34c-.39-1-.77-2-1.17-2.94L158.49,527S158.5,527.06,158.5,527.07Zm-4.57-10.28.08.16v0a1.3,1.3,0,0,0,.08.17l0,0,.06.13a.13.13,0,0,0,0,.05c0,.06,0,.11.07.17l0,0,.06.12,0,.06.06.14,0,0,.08.16,0,0,.06.14,0,0c0,.05,0,.11.08.17s0,0,0,0l.08.15v0c.06.12.11.24.17.37h0c.12.26.24.51.35.77l-10.86,5c-.44-1-.89-1.91-1.35-2.86l10.78-5.18Zm-4.9-9.54,0,0,0,.09c.23.42.46.83.68,1.25l0,0,.07.14.06.11s0,0,0,.06a.75.75,0,0,1,.07.12h0l.36.67-10.56,5.6-1.5-2.78,10.45-5.79h0C148.86,506.94,148.94,507.1,149,507.25Zm-5.76-9.79h0a.86.86,0,0,0,.1.16.35.35,0,0,0,.05.08l0,.06c.46.73.92,1.47,1.37,2.21l-10.23,6.2c-.54-.9-1.1-1.8-1.66-2.69l10.11-6.38Zm-4.55-6.92-9.84,6.78c-.6-.87-1.21-1.73-1.82-2.59l9.72-7C137.43,488.69,138.08,489.62,138.72,490.54ZM130,478.83l.65.82h0a1.83,1.83,0,0,0,.13.16h0a1.71,1.71,0,0,1,.11.14l0,.05.07.09.09.11,0,.06.08.1,0,0,.84,1.08-9.44,7.34c-.65-.84-1.3-1.67-2-2.49ZM8,421.36l-3.13-.47,1.67-11.83,1.23.17h0l.14,0H8l.17,0h.18l.09,0h.1l.11,0,.14,0H8.9l.13,0h.05l.81.12Zm-59.19-11.93h.05l.13,0h.07l.14,0,.11,0h.1l.09,0h.18l.17,0h.06l.14,0h0l1.23-.17L-47,420.89l-3.13.47L-52,409.55ZM-201.34,575.24l-11.84-1.66.18-1.23v-.05s0-.09,0-.14v-.06c0-.06,0-.11,0-.17s0,0,0-.08v-.1s0-.06,0-.09,0-.06,0-.1l0-.11a.68.68,0,0,1,0-.14v-.07l0-.13v-.05c.05-.27.09-.54.13-.81l11.81,1.87C-201,573.16-201.19,574.2-201.34,575.24Zm1.78-10.39-11.73-2.35c.09-.47.19-1,.29-1.42V561a.43.43,0,0,0,0-.11c0-.12.06-.25.08-.37v0c.09-.44.18-.88.28-1.32l11.68,2.55C-199.15,562.78-199.35,563.81-199.56,564.85Zm2.36-10.28-11.57-3c0-.13.07-.25.1-.38l0,0a.19.19,0,0,1,0-.08c.14-.56.29-1.11.44-1.66v0l0-.09a.83.83,0,0,1,0-.15h0c.07-.27.15-.54.22-.81l11.52,3.23C-196.65,552.53-196.93,553.55-197.2,554.57Zm3-10.12-11.37-3.69c.07-.23.14-.44.22-.67a.49.49,0,0,1,0-.11v0c.26-.78.52-1.57.79-2.35v0l11.3,3.89C-193.58,542.45-193.91,543.44-194.24,544.45Zm3.55-9.93-11.14-4.34a.14.14,0,0,1,0-.07l.05-.12v0c.35-.91.72-1.82,1.08-2.72l0,0,.06-.15v0l11.06,4.54Q-190.12,533.05-190.69,534.52Zm4.11-9.71-10.87-5c.12-.26.24-.51.35-.77h0l.17-.37v0l.07-.15,0,0a.89.89,0,0,1,.08-.17l0,0a.84.84,0,0,1,.06-.14l0,0,.08-.16v0l.07-.14,0-.06a.67.67,0,0,1,.06-.12l0,0c0-.06.05-.11.07-.17l0-.05.06-.13,0,0,.08-.17v0a1.19,1.19,0,0,1,.08-.16v0l10.79,5.18C-185.69,522.9-186.14,523.85-186.58,524.81Zm4.67-9.46-10.56-5.6c.12-.22.24-.44.35-.67h0l.06-.12,0-.06.06-.11c0-.05.05-.1.08-.14v0l.68-1.25a.41.41,0,0,0,.05-.09l0,0,.26-.47h0l10.45,5.79C-180.92,513.49-181.42,514.42-181.91,515.35Zm5.21-9.17-10.22-6.2c.45-.74.9-1.48,1.36-2.21a.21.21,0,0,0,0-.06l.05-.08.1-.16h0l.22-.35,10.11,6.38C-175.6,504.38-176.15,505.28-176.7,506.18Zm5.72-8.86-9.83-6.78c.64-.92,1.28-1.85,1.93-2.76l9.73,7C-169.76,495.59-170.38,496.45-171,497.32Zm6.25-8.51-9.44-7.34.84-1.08,0,0,.08-.1,0-.06.09-.11.08-.09a.1.1,0,0,1,0-.05,1.71,1.71,0,0,1,.11-.14h0l.13-.16h0l.66-.82,9.3,7.49Q-163.77,487.55-164.73,488.81Zm-48.08,142.5v0l0-.13v-.07a.68.68,0,0,1,0-.14l0-.11s0-.07,0-.1,0-.06,0-.09v-.1l0-.08c0-.06,0-.11,0-.17v-.06c0-.05,0-.09,0-.14V630l-.18-1.23,11.84-1.66c.15,1,.3,2.09.47,3.13l-11.81,1.87C-212.72,631.85-212.76,631.58-212.81,631.31Zm1.93,10.54v0c0-.12-.05-.25-.08-.37a.36.36,0,0,0,0-.1v-.07c-.1-.47-.2-.94-.29-1.42l11.73-2.34c.21,1,.41,2.06.64,3.09l-11.68,2.55C-210.7,642.73-210.79,642.3-210.88,641.85Zm2.77,11.42h0a.83.83,0,0,1,0-.15l0-.09v0c-.15-.55-.3-1.1-.44-1.65a.29.29,0,0,1,0-.09l0,0c0-.12-.06-.25-.1-.38l11.57-3c.27,1,.55,2,.83,3.05l-11.52,3.23C-208,653.81-208,653.54-208.11,653.27Zm3.56,11.52c-.27-.79-.53-1.57-.79-2.36v0a.36.36,0,0,1,0-.11c-.08-.23-.15-.44-.22-.67l11.37-3.69c.33,1,.66,2,1,3l-11.3,3.89Zm4,10.51-.06-.15,0,0c-.36-.9-.73-1.81-1.08-2.72v0l-.05-.12a.14.14,0,0,1,0-.06l11.14-4.35q.57,1.49,1.17,2.94l-11.06,4.54Zm4.57,10.28a.8.8,0,0,1-.08-.16v0s0-.11-.08-.17l0,0-.06-.13,0,0c0-.06,0-.11-.07-.16l0-.05a.67.67,0,0,1-.06-.12l0-.06s-.05-.09-.07-.13,0,0,0,0l-.08-.16,0,0a.84.84,0,0,1-.06-.14.05.05,0,0,1,0,0,.89.89,0,0,1-.08-.17l0,0c0-.06,0-.11-.07-.16v0l-.17-.37h0c-.11-.25-.23-.51-.35-.76l10.87-5c.44,1,.89,1.92,1.35,2.87L-196,685.6Zm4.9,9.54,0,0a.41.41,0,0,0-.05-.09c-.23-.41-.45-.83-.68-1.25v0l-.08-.13-.06-.12,0-.06-.06-.12h0l-.35-.67,10.56-5.6q.74,1.4,1.5,2.79l-10.45,5.78h0Zm5.76,9.79h0a1.4,1.4,0,0,1-.1-.16l-.05-.08,0-.06c-.46-.73-.91-1.47-1.36-2.21l10.22-6.2c.55.9,1.1,1.8,1.67,2.69l-10.11,6.38C-185.22,705.15-185.29,705-185.36,704.91Zm4.55,6.92,9.83-6.77c.6.87,1.22,1.72,1.83,2.58l-9.73,7C-179.53,713.68-180.17,712.76-180.81,711.83Zm8.73,11.71-.66-.82h0l-.13-.16h0l-.11-.13,0,0-.08-.1-.09-.11,0-.06-.08-.1,0,0-.84-1.08,9.44-7.34q1,1.26,1.95,2.49Zm122,57.47,3.13.47-1.66,11.84-1.23-.18h0l-.14,0h-.06l-.17,0-.08,0h-.19l-.1,0-.11,0-.14,0H-51l-.13,0h-.05l-.82-.12Zm59.2,11.93H9l-.13,0H8.83l-.14,0-.11,0-.1,0H8.29l-.08,0-.17,0H8l-.14,0h0l-1.23.18L4.89,781.48,8,781l1.87,11.81ZM159.25,627.13l11.83,1.66c-.06.41-.11.82-.17,1.23a.09.09,0,0,0,0,.05s0,.09,0,.14,0,0,0,.06l0,.17a.22.22,0,0,1,0,.08s0,.07,0,.1,0,.06,0,.09,0,.07,0,.1,0,.08,0,.11,0,.09,0,.14,0,0,0,.07,0,.09,0,.13v0c0,.27-.08.54-.13.82l-11.8-1.87C158.94,629.22,159.1,628.17,159.25,627.13Zm-1.78,10.4,11.73,2.34c-.1.48-.19,1-.29,1.42l0,.07a.36.36,0,0,1,0,.1c0,.12-.05.25-.08.37v0c-.09.45-.19.88-.28,1.32l-11.68-2.55C157.05,639.59,157.26,638.56,157.47,637.53Zm-2.36,10.27,11.56,3c0,.13-.06.26-.1.38v0s0,.06,0,.09c-.15.55-.29,1.1-.45,1.65v0l0,.09s0,.1,0,.15h0c-.08.27-.15.54-.23.81l-11.52-3.23C154.56,649.84,154.84,648.82,155.11,647.8Zm-3,10.12,11.37,3.69c-.08.23-.15.44-.22.67a.36.36,0,0,1,0,.11v0c-.26.79-.52,1.57-.79,2.36v0l-11.31-3.89C151.49,659.93,151.82,658.93,152.15,657.92Zm-3.55,9.93,11.14,4.35a.14.14,0,0,0,0,.06.61.61,0,0,0-.05.12v0c-.36.91-.72,1.82-1.09,2.72v0l-.06.15v0l-11.06-4.54C147.83,669.82,148.21,668.84,148.6,667.85Zm-4.11,9.71,10.86,5c-.11.25-.23.51-.35.76h0c-.06.13-.11.25-.17.37v0l-.08.16v0c0,.06,0,.12-.08.17l0,0-.06.14,0,0-.08.16,0,0-.06.13,0,.06-.06.12,0,.05s-.05.1-.07.16a.13.13,0,0,0,0,0l-.06.13,0,0-.08.17v0l-.08.16v0l-10.78-5.17C143.6,679.48,144.05,678.52,144.49,677.56ZM139.82,687l10.56,5.6-.36.67h0a.75.75,0,0,1-.07.12s0,0,0,.06l-.06.12-.07.13,0,0c-.22.42-.45.84-.68,1.25l0,.09,0,0c-.09.15-.17.31-.26.47h0l-10.45-5.78Zm-5.22,9.17,10.23,6.2c-.45.74-.91,1.48-1.37,2.21l0,.06-.05.08a1.4,1.4,0,0,0-.1.16h0l-.22.35-10.11-6.38C133.5,698,134.06,697.09,134.6,696.19Zm-5.72,8.87,9.84,6.77c-.64.93-1.29,1.85-1.94,2.76l-9.72-7C127.67,706.78,128.28,705.93,128.88,705.06Zm-6.24,8.5,9.44,7.34-.84,1.08,0,0-.08.1,0,.06-.09.11a.86.86,0,0,0-.07.1.1.1,0,0,0,0,0l-.11.13h0a1.83,1.83,0,0,0-.13.16h0c-.21.28-.43.55-.65.82l-9.31-7.49C121.34,715.23,122,714.4,122.64,713.56ZM99.75,448.9a0,0,0,0,0,0,0l.1.08.06.05.11.09.09.07.05,0,.14.11h0l.16.13h0l.82.66-7.49,9.31c-.82-.66-1.65-1.31-2.49-2l7.34-9.44Zm-7.39-5.54-7,9.72c-.86-.61-1.72-1.22-2.59-1.82l6.78-9.84C90.52,442.06,91.45,442.7,92.36,443.36Zm-12.2-8.05,2.21,1.36.06,0,.08.05.16.1h0l.35.22L76.65,447.2c-.89-.56-1.79-1.12-2.69-1.66Zm-9.77-5.55.66.36h0l.12.07a.09.09,0,0,1,.06,0l.11.06.14.07,0,0,1.25.67.09,0,0,0,.48.26h0l-5.79,10.45c-.92-.51-1.85-1-2.78-1.5Zm-10.08-5,.77.36h0l.37.17h0l.15.08h0l.17.08,0,0,.14.06,0,0,.17.08,0,0,.14.06.06,0,.12.06,0,0,.15.07.06,0L63,426l0,0,.17.08h0l.16.08h0L58.19,437c-.95-.46-1.9-.91-2.86-1.35ZM50,420.4l.07,0,.12.05h0l2.72,1.09h0l.15.06h0l-4.54,11.06-2.94-1.17Zm-10.58-3.78.67.22.11,0h0l2.35.79h0L38.69,429c-1-.35-2-.68-3-1Zm-10.79-3.15.38.1H29l.08,0,1.66.45h0l.09,0,.15,0h0l.81.23-3.23,11.52c-1-.29-2-.57-3.05-.83Zm-10.95-2.53,1.42.29h.06l.11,0,.37.07h0l1.32.28-2.55,11.68-3.1-.64Zm-79.35.41h0l.37-.07.1,0h.07l1.42-.29,2.34,11.73-3.09.64L-63,411.63Zm-11.42,2.77h0l.15,0,.09,0h0l1.65-.45.09,0h0l.38-.1,3,11.57c-1,.26-2,.54-3,.83l-3.23-11.52Zm-11.52,3.56,2.36-.79h0l.12,0,.67-.22L-77.78,428c-1,.33-2,.66-3,1l-3.89-11.31Zm-10.51,4,.14-.06h0l2.72-1.09h0l.12-.05.06,0,4.35,11.14c-1,.39-2,.77-2.94,1.17l-4.54-11.06Zm-40.75,37.82-7.5-9.31.83-.66h0l.16-.13h0l.14-.11.05,0,.1-.07.11-.09.06-.05.1-.08,0,0,1.08-.84,7.33,9.44C-134.26,458.15-135.09,458.8-135.91,459.46Zm8.41-6.38-6.95-9.72c.91-.66,1.83-1.3,2.76-1.94l6.77,9.84C-125.79,451.86-126.64,452.47-127.5,453.08Zm8.76-5.88-6.38-10.11.34-.22h0l.16-.1.08-.05.06,0,2.2-1.36,6.21,10.23C-116.95,446.08-117.85,446.64-118.74,447.2Zm9.07-5.38-5.78-10.45h0l.47-.26,0,0,.09,0,1.25-.67,0,0,.13-.07.12-.06,0,0,.13-.07h0l.67-.36,5.6,10.56Zm4.21-15.6h0l.16-.08h0l.17-.08,0,0,.13-.06,0,0,.16-.07,0,0,.12-.06.06,0,.13-.06,0,0,.16-.08.05,0,.14-.06,0,0,.18-.08h0l.16-.08h0l.37-.17h0l.76-.36,5,10.87c-1,.44-1.91.89-2.86,1.35Zm-36.38,327.25,0,0-.1-.08-.06,0-.11-.08-.1-.08-.05,0-.14-.11h0l-.16-.13h0l-.83-.66,7.5-9.3c.82.66,1.65,1.31,2.48,2l-7.33,9.44Zm7.39,5.54,6.95-9.72c.86.61,1.71,1.23,2.58,1.83l-6.77,9.83C-132.62,760.31-133.54,759.67-134.45,759Zm12.19,8-2.2-1.36-.06,0-.08,0-.16-.1h0l-.34-.22,6.38-10.11c.89.57,1.79,1.12,2.69,1.67Zm9.78,5.55-.67-.36h0l-.13-.06,0,0-.12-.06-.13-.08h0l-1.25-.68-.09-.05,0,0-.47-.26h0l5.78-10.45,2.79,1.5Zm10.07,5-.76-.36h0l-.37-.17h0l-.16-.07,0,0-.18-.08,0,0-.14-.06-.05,0-.16-.08,0,0-.13-.06-.06,0-.12-.06,0,0-.16-.07,0,0-.13-.06,0,0-.17-.08h0l-.16-.08h0l5.17-10.79c1,.46,1.9.91,2.86,1.35ZM-92.06,782l-.06,0-.12-.05h0c-.91-.35-1.82-.72-2.72-1.09h0l-.14-.06h0l4.54-11.06q1.45.6,2.94,1.17Zm10.59,3.78-.67-.22-.12,0h0l-2.36-.79h0l3.89-11.3,3,1Zm10.79,3.16-.38-.1,0,0-.09,0-1.65-.44h0l-.09,0-.15,0h0l-.81-.23,3.23-11.51,3,.83Zm11,2.52-1.42-.29h-.07l-.1,0-.37-.07h0l-1.32-.28,2.55-11.68,3.09.64ZM19.62,791h0l-.37.07-.11,0h-.06l-1.42.29L15.29,779.7l3.1-.64,2.55,11.68ZM31,788.25h0l-.15,0-.09,0h0l-1.66.44-.08,0-.05,0-.38.1-3-11.57,3.05-.83L31.85,788Zm11.51-3.56-2.35.79h0l-.11,0-.67.22-3.69-11.37,3-1,3.89,11.3Zm10.52-4-.15.06h0c-.9.37-1.81.74-2.72,1.09h0L50,782,50,782l-4.34-11.14,2.94-1.17,4.54,11.06Zm40.75-37.81,7.49,9.3-.82.66h0l-.16.13h0l-.14.11-.05,0-.09.08-.11.08-.06,0-.1.08,0,0-1.08.84-7.34-9.44Q92.59,743.91,93.82,742.92Zm-8.41,6.37,7,9.72c-.91.66-1.84,1.3-2.76,1.94l-6.78-9.83C83.69,750.52,84.55,749.9,85.41,749.29Zm-8.76,5.88L83,765.28l-.35.22h0l-.16.1-.08,0-.06,0-2.21,1.36L74,756.84C74.86,756.29,75.76,755.74,76.65,755.17Zm-9.08,5.38L73.36,771h0l-.48.26,0,0-.09.05-1.25.68h0l-.14.08-.11.06-.06,0-.12.06h0l-.66.36-5.6-10.56C65.72,761.55,66.65,761.06,67.57,760.55Zm-4.2,15.61h0l-.16.08h0l-.17.08,0,0-.13.06-.06,0-.15.07,0,0-.12.06-.06,0-.14.06,0,0-.17.08,0,0-.14.06,0,0-.17.08,0,0-.15.07h0l-.37.17h0l-.77.36-5-10.87c1-.44,1.91-.89,2.86-1.35ZM85,682.25c-.63.84-1.3,1.69-2,2.53l-25-39L29.73,652,23.5,680.24l39.05,25c-.85.68-1.7,1.34-2.54,2a131.67,131.67,0,0,1-46.3,22.86,134.41,134.41,0,0,1-69.51,0,132.11,132.11,0,0,1-46.31-22.85l-2.54-2,39.05-25L-71.82,652l-28.27-6.22-25,39c-.68-.84-1.34-1.69-2-2.54A131.91,131.91,0,0,1-149.92,636a133.59,133.59,0,0,1-4.58-34.76,133.26,133.26,0,0,1,4.59-34.78A131.9,131.9,0,0,1-127,520.12c.67-.89,1.33-1.73,2-2.53l25,39,28.29-6.22,6.22-28.26-39.05-25c.85-.69,1.7-1.35,2.55-2a131.88,131.88,0,0,1,46.29-22.86,134.59,134.59,0,0,1,69.53,0A131.86,131.86,0,0,1,60,495.19c.84.64,1.69,1.3,2.53,2l-39,25,6.21,28.26L58,556.62l25-39c.64.8,1.3,1.64,2,2.54a132.17,132.17,0,0,1,22.86,46.28,133.26,133.26,0,0,1,4.59,34.78A133.23,133.23,0,0,1,107.82,636,131.69,131.69,0,0,1,85,682.25Z"/></g><path class="cls-4" d="M290.17,209.83,285.37,188,250,210.59,214.64,188l-4.8,21.85L188,214.64,210.59,250,188,285.36l21.86,4.81,4.8,21.85L250,289.41,285.37,312l4.8-21.86L312,285.36,289.41,250,312,214.64ZM250,277.22A27.22,27.22,0,1,1,277.22,250,27.22,27.22,0,0,1,250,277.22Z"/><polygon class="cls-3" points="446.31 239.69 438.82 238.04 414.9 232.79 431.52 249.99 414.89 267.21 438.82 261.95 446.31 260.3 493.18 249.99 446.31 239.69"/><polygon class="cls-3" points="249.99 68.48 267.21 85.11 261.95 61.19 260.3 53.7 249.99 6.82 239.69 53.7 238.04 61.19 232.79 85.09 249.99 68.48"/><polygon class="cls-3" points="250 431.53 232.79 414.89 238.05 438.82 239.7 446.31 250 493.18 260.3 446.31 261.95 438.82 267.21 414.9 250 431.53"/><polygon class="cls-3" points="68.48 250 85.11 232.79 61.19 238.05 53.7 239.7 6.82 250 53.7 260.3 61.19 261.95 85.11 267.21 68.48 250"/><path class="cls-3" d="M373.28,250a123.18,123.18,0,0,0-4-31.41l69.27,15.23a188.57,188.57,0,0,0-54-116.75l-36.86,57.64c-1.11-1.44-2.17-2.77-3.22-4l-.28-.33,25.73-40.23-40.22,25.72-.34-.28c-1.32-1.12-2.66-2.19-4-3.21l57.64-36.86a188.61,188.61,0,0,0-116.77-54l15.24,69.26a124.42,124.42,0,0,0-62.8,0l15.23-69.26a188.56,188.56,0,0,0-116.75,54l57.63,36.86c-1.32,1-2.66,2.09-4,3.21l-.34.28-40.22-25.72,25.73,40.23-.28.33c-1.05,1.22-2.11,2.54-3.22,4l-36.86-57.63a188.56,188.56,0,0,0-54,116.74l69.26-15.23a123.79,123.79,0,0,0,0,62.81L61.51,266.15a188.59,188.59,0,0,0,54,116.78l36.86-57.64c1,1.33,2.1,2.67,3.21,4l.28.34-25.72,40.22,40.22-25.72.34.28c1.31,1.11,2.65,2.18,4,3.21l-57.65,36.86a188.47,188.47,0,0,0,116.78,54l-15.23-69.27a123.67,123.67,0,0,0,62.78,0L266.16,438.5a188.6,188.6,0,0,0,116.78-54l-57.65-36.86q2-1.53,4-3.21l.34-.28,40.22,25.72-25.72-40.22.28-.34c1.12-1.33,2.2-2.67,3.21-4L384.47,383a188.57,188.57,0,0,0,54-116.8L369.23,281.4A123.16,123.16,0,0,0,373.28,250Zm48.45-27v0s0,.07,0,.12a.11.11,0,0,1,0,.06.5.5,0,0,1,0,.12s0,.07,0,.1,0,.06,0,.09,0,.05,0,.08,0,.06,0,.09a.17.17,0,0,0,0,.07.77.77,0,0,0,0,.15s0,0,0,.06a.5.5,0,0,0,0,.12v0c.06.37.11.74.16,1.11l-10.6,1.49c-.13-.94-.27-1.87-.42-2.8l10.57-1.68ZM420,213.58v0c0,.11.05.22.07.33a.3.3,0,0,1,0,.1.09.09,0,0,1,0,.05c.09.43.18.85.26,1.27l-10.5,2.11c-.19-.93-.37-1.86-.58-2.78l10.46-2.28Zm-2.49-10.22h0l0,.14,0,.08v0c.14.49.27,1,.4,1.48a.19.19,0,0,1,0,.07.43.43,0,0,0,0,.05l.09.34-10.36,2.7c-.24-.91-.49-1.82-.74-2.73l10.31-2.89C417.39,202.87,417.46,203.12,417.52,203.36ZM414.34,193c.24.7.47,1.41.71,2.11v0l0,.1c.07.2.13.39.2.6l-10.19,3.3c-.29-.9-.59-1.79-.9-2.69L414.33,193Zm-3.55-9.41.06.13a0,0,0,0,0,0,0c.33.81.65,1.62,1,2.43,0,0,0,0,0,0s0,.07,0,.11l0,.06-10,3.89c-.34-.88-.69-1.76-1-2.64l9.9-4.06Zm-4.09-9.21c0,.05.05.09.07.14v0l.07.15,0,0,.05.12,0,0,.06.15s0,0,0,0l.06.11s0,0,0,.05l.06.12s0,0,0,0a1,1,0,0,1,.07.15l0,0,.06.12v0l.08.15v0l.06.14v0c.06.11.11.22.16.33h0c.11.23.21.46.31.69l-9.72,4.46c-.4-.86-.81-1.71-1.21-2.56l9.65-4.64Zm-4.39-8.54,0,0a.59.59,0,0,0,0,.08c.2.38.41.75.61,1.12v0l.07.12a.93.93,0,0,0,.05.1l0,.06.06.11h0l.32.59-9.46,5c-.44-.83-.89-1.67-1.34-2.49l9.36-5.18h0Zm-5.16-8.77h0l.09.14,0,.07,0,0,1.22,2-9.16,5.56c-.49-.81-1-1.61-1.49-2.41l9.06-5.72Zm-4.07-6.2L384.27,157c-.54-.78-1.09-1.55-1.64-2.32l8.71-6.22C391.93,149.26,392.51,150.08,393.08,150.91Zm-7.82-10.49.59.74h0l.11.15h0l.09.12,0,0,.07.08.08.1,0,.06.07.08,0,0,.75,1-8.45,6.57c-.58-.75-1.16-1.49-1.75-2.23ZM276,89c-.93-.15-1.86-.29-2.8-.42l1.49-10.6,1.11.16h0l.12,0h.06l.15,0h.07l.09,0h.17l.1,0,.12,0H277l.73.12ZM223,78.27h.23l.12,0,.1,0h.17l.09,0h.07l.15,0H224l.12,0h0l1.11-.16,1.49,10.6c-.94.13-1.87.27-2.8.42l-1.68-10.57ZM88.54,226.77l-10.6-1.49c0-.37.1-.74.16-1.11v0l0-.12V224a.77.77,0,0,0,0-.15.17.17,0,0,0,0-.07l0-.09s0,0,0-.08,0-.06,0-.09l0-.1a.5.5,0,0,1,0-.12V223l.12-.73L89,224C88.81,224.9,88.67,225.83,88.54,226.77Zm1.59-9.31-10.5-2.11c.08-.42.17-.84.26-1.27V214s0-.07,0-.1,0-.22.07-.33v0l.26-1.18,10.46,2.28C90.5,215.6,90.32,216.53,90.13,217.46Zm2.12-9.21-10.36-2.7.09-.34v-.05s0,0,0-.07c.13-.5.26-1,.4-1.48v0l0-.08,0-.14h0l.21-.73L93,205.52C92.74,206.43,92.49,207.34,92.25,208.25Zm2.65-9.06-10.19-3.3.2-.6,0-.1v0c.24-.7.47-1.41.71-2.11v0L95.8,196.5C95.49,197.4,95.19,198.29,94.9,199.19Zm3.18-8.89-10-3.89a.14.14,0,0,1,0-.06s0-.07,0-.11v0c.32-.81.64-1.62,1-2.43v0l.06-.13v0l9.9,4.06C98.77,188.54,98.42,189.42,98.08,190.3Zm3.68-8.7L92,177.14l.32-.69h0l.16-.33v0l.06-.14v0l.08-.15v0l.06-.12,0,0a1,1,0,0,1,.07-.15v0l.06-.12,0-.05.06-.11,0,0,.06-.15,0,0a.61.61,0,0,1,0-.12l0,0,.07-.15v0c0-.05,0-.09.07-.14v0L103,179C102.55,179.89,102.15,180.74,101.76,181.6Zm4.18-8.47-9.46-5,.32-.59h0l.06-.11,0-.06,0-.1.07-.12v0c.2-.37.41-.74.61-1.12l0-.08,0,0,.23-.42h0l9.36,5.18C106.83,171.46,106.38,172.3,105.94,173.13Zm4.67-8.21-9.16-5.56,1.22-2,0,0,0-.07.09-.14h0l.19-.32,9.06,5.72C111.59,163.31,111.1,164.11,110.61,164.92Zm5.12-7.94-8.81-6.07c.57-.83,1.15-1.65,1.74-2.47l8.71,6.22C116.82,155.43,116.27,156.2,115.73,157Zm5.59-7.62-8.45-6.57.75-1,0,0,.07-.08,0-.06.08-.1.07-.08,0,0,.09-.12h0l.11-.15h0l.59-.74,8.33,6.71C122.48,147.87,121.9,148.61,121.32,149.36ZM78.27,277v-.23a.5.5,0,0,1,0-.12l0-.1s0-.06,0-.09,0-.05,0-.08l0-.09a.17.17,0,0,0,0-.07.77.77,0,0,0,0-.15V276l0-.12v0c-.06-.37-.11-.74-.16-1.11l10.6-1.49c.13.94.27,1.87.42,2.8l-10.57,1.68ZM80,286.42v0c0-.11,0-.22-.07-.33s0-.06,0-.1v-.05c-.09-.43-.18-.85-.26-1.27l10.5-2.11c.19.93.37,1.86.58,2.78L80.25,287.6Zm2.48,10.22h0l0-.14,0-.08v0c-.14-.49-.27-1-.4-1.48,0,0,0-.05,0-.07v0l-.09-.34,10.36-2.7c.24.91.49,1.82.74,2.73l-10.31,2.89ZM85.66,307c-.24-.7-.47-1.41-.71-2.11v0l0-.1-.2-.6,10.19-3.3c.29.9.59,1.79.9,2.69L85.67,307Zm3.55,9.41-.06-.13v0c-.33-.81-.65-1.62-1-2.43v0s0-.07,0-.11a.14.14,0,0,1,0-.06l10-3.89c.34.88.69,1.76,1,2.64l-9.9,4.06Zm4.09,9.21-.07-.14v0l-.07-.15,0,0a.61.61,0,0,1,0-.12l0,0-.06-.15,0,0-.06-.11,0,0-.06-.12v0a1,1,0,0,1-.07-.15l0,0-.06-.12v0l-.08-.15v0l-.06-.14v0l-.16-.33h0l-.32-.69,9.74-4.46c.39.86.79,1.71,1.2,2.56l-9.65,4.64Zm4.39,8.54,0,0,0-.08c-.2-.38-.41-.75-.61-1.12v0l-.07-.12,0-.1,0-.06-.06-.11h0l-.32-.59,9.46-5c.44.83.89,1.67,1.34,2.49l-9.36,5.18h0Zm5.16,8.77h0l-.09-.14,0-.07,0-.05-1.22-2,9.16-5.56c.49.81,1,1.61,1.49,2.41L103,343.21Zm4.07,6.2,8.81-6.07c.54.78,1.09,1.55,1.64,2.32l-8.71,6.22C108.07,350.74,107.49,349.92,106.92,349.09Zm7.82,10.49-.59-.74h0l-.11-.15h0l-.09-.12,0-.05-.07-.08-.08-.1,0-.06-.07-.08,0,0-.75-1,8.45-6.57c.58.75,1.16,1.49,1.75,2.23ZM224,411c.93.15,1.86.29,2.8.42l-1.49,10.6-1.11-.16h0l-.12,0H224l-.15,0h-.07l-.09,0h-.17l-.1,0-.12,0H223l-.73-.12Zm53,10.69h-.23l-.12,0-.1,0h-.17l-.09,0h-.07l-.15,0H276l-.12,0h0l-1.11.16-1.49-10.6c.94-.13,1.87-.27,2.8-.42l1.68,10.57Zm134.48-148.5,10.6,1.49c-.05.37-.1.74-.16,1.11v0a.5.5,0,0,0,0,.12s0,0,0,.06a.77.77,0,0,0,0,.15.17.17,0,0,0,0,.07s0,.06,0,.09,0,.05,0,.08,0,.06,0,.09,0,.07,0,.1a.5.5,0,0,1,0,.12.11.11,0,0,1,0,.06c0,.05,0,.08,0,.12V277l-.12.73L411,276C411.19,275.1,411.33,274.17,411.46,273.23Zm-1.59,9.31,10.5,2.11c-.08.42-.17.84-.26,1.27a.09.09,0,0,1,0,.05.3.3,0,0,1,0,.1c0,.11-.05.22-.07.33v0l-.26,1.18-10.46-2.28C409.5,284.4,409.68,283.47,409.87,282.54Zm-2.12,9.21,10.36,2.7-.09.34a.43.43,0,0,0,0,0,.19.19,0,0,1,0,.07c-.13.5-.26,1-.4,1.48v0l0,.08,0,.14h0c-.06.24-.13.49-.2.73L407,294.48C407.26,293.57,407.51,292.66,407.75,291.75Zm-2.65,9.06,10.19,3.3c-.07.21-.13.4-.2.6l0,.1v0c-.24.7-.47,1.41-.71,2.11v0L404.2,303.5C404.51,302.6,404.81,301.71,405.1,300.81Zm-3.18,8.89,10,3.89,0,.06s0,.07,0,.11v0c-.32.81-.64,1.62-1,2.43a0,0,0,0,0,0,0l-.06.13v0l-9.9-4.06C401.23,311.46,401.58,310.58,401.92,309.7Zm-3.67,8.7,9.72,4.46c-.1.23-.2.46-.31.69h0c-.05.11-.1.22-.16.33v0l-.06.14v0l-.08.15v0l-.06.12,0,0a1,1,0,0,1-.07.15s0,0,0,0l-.06.12s0,0,0,0l-.06.11s0,0,0,0l-.06.15,0,0-.05.12,0,0-.07.15v0c0,.05,0,.09-.07.14v0L397,321C397.44,320.11,397.85,319.26,398.25,318.4Zm-4.19,8.47,9.46,5-.32.59h0l-.06.11,0,.06a.93.93,0,0,0-.05.1l-.07.12v0c-.2.37-.41.74-.61,1.12a.59.59,0,0,0,0,.08l0,0-.23.42h0l-9.36-5.18C393.17,328.54,393.62,327.7,394.06,326.87Zm-4.67,8.21,9.16,5.56-1.22,2,0,.05,0,.07-.09.14h0l-.19.32-9.06-5.72C388.41,336.69,388.9,335.89,389.39,335.08ZM384.27,343l8.81,6.07c-.57.83-1.15,1.65-1.74,2.47l-8.71-6.22C383.18,344.57,383.73,343.8,384.27,343Zm-5.59,7.62,8.45,6.57-.75,1,0,0-.07.08,0,.06-.08.1-.07.08,0,.05-.09.12h0l-.11.15h0l-.59.74-8.33-6.71C377.52,352.13,378.1,351.39,378.68,350.64Zm-20.51-237,0,0,.08.07.06,0,.1.08.08.07.05,0,.12.09h0l.15.11h0l.74.59-6.71,8.33-2.23-1.75,6.57-8.45Zm-6.61-5-6.22,8.71c-.77-.55-1.54-1.1-2.32-1.64l6.07-8.81C349.92,107.49,350.74,108.07,351.56,108.66Zm-10.92-7.21,2,1.22.06,0,.07,0,.14.09h0l.31.19-5.71,9.06c-.8-.51-1.6-1-2.41-1.49Zm-8.75-5,.59.32h0l.11.06.06,0,.1,0,.12.07h0l1.12.61.08,0,0,0,.42.23h0l-5.18,9.36-2.49-1.34Zm-9-4.46.69.32h0l.33.16h0l.13.06h0l.15.08h0l.12.06,0,0,.15.07h0l.12.06,0,0,.11.06,0,0,.15.06,0,0,.12,0,0,0,.15.07h0l.14.07h0L321,103c-.85-.41-1.7-.81-2.56-1.2Zm-9.27-3.92.06,0,.11,0h0l2.43,1h0l.13.06h0l-4.07,9.9-2.63-1Zm-9.48-3.39.6.2.1,0h0l2.11.71h0L303.5,95.8c-.9-.31-1.79-.61-2.69-.9Zm-9.66-2.82.34.09h0l.08,0,1.48.4h0l.08,0,.14,0h0l.73.2L294.48,93l-2.73-.74Zm-9.8-2.26,1.27.26H286l.1,0,.33.07h0l1.18.26-2.28,10.46c-.92-.21-1.85-.39-2.78-.58ZM213.58,80h0l.33-.07.1,0h.05l1.27-.26,2.11,10.5c-.93.19-1.86.37-2.78.58L212.4,80.25Zm-10.22,2.49h0l.14,0,.08,0h0l1.48-.4.07,0h.05l.34-.09,2.7,10.36-2.73.74-2.89-10.31ZM193,85.66l2.11-.71h0l.11,0,.6-.2,3.3,10.19c-.9.29-1.8.59-2.69.9L193,85.67Zm-9.41,3.55.13-.06h0l2.43-1h0l.11,0,.06,0,3.89,10-2.64,1-4.06-9.9Zm-36.5,33.86-6.71-8.33.74-.59h0l.15-.11h0l.12-.09,0,0,.08-.07.1-.08.06,0,.08-.07,0,0,1-.75,6.57,8.45Zm7.53-5.7-6.22-8.71c.82-.59,1.64-1.17,2.47-1.74l6.07,8.81C156.2,116.27,155.43,116.82,154.66,117.37Zm7.85-5.27L156.79,103l.32-.19h0l.14-.09.07,0,0,0,2-1.22,5.56,9.16C164.11,111.1,163.31,111.59,162.51,112.1Zm8.13-4.82-5.18-9.36h0l.42-.23,0,0,.08,0L167.1,97h0l.12-.07.1,0,.05,0,.12-.06h0l.59-.32,5,9.46Zm3.76-14h0l.14-.07h0l.15-.07,0,0,.12,0,0,0,.15-.06,0,0,.11-.06.05,0,.12-.06h0l.15-.07,0,0,.12-.06h0l.15-.08h0l.13-.06h0l.33-.16h0l.69-.32,4.46,9.74c-.86.39-1.71.79-2.56,1.2ZM141.83,386.38l0,0-.08-.07-.06,0-.1-.08-.08-.07,0,0-.12-.09h0l-.15-.11h0l-.74-.59,6.71-8.33,2.23,1.75-6.57,8.45Zm6.61,5,6.22-8.71c.77.55,1.54,1.1,2.32,1.64l-6.07,8.81C150.08,392.51,149.26,391.93,148.44,391.34Zm10.92,7.21-2-1.22,0,0-.07,0-.14-.09h0l-.32-.19,5.72-9.06c.8.51,1.6,1,2.41,1.49Zm8.75,5-.59-.32h0l-.12-.06-.05,0-.1-.05-.12-.07h0l-1.12-.61-.08,0,0,0-.42-.23h0l5.18-9.36,2.49,1.34Zm9,4.46-.69-.32h0l-.33-.16h0l-.13-.06h0l-.15-.08h0l-.12-.06,0,0-.15-.07h0l-.12-.06-.05,0-.11-.06,0,0-.15-.06,0,0-.12-.05,0,0-.15-.07h0l-.14-.07h0L179,397c.85.41,1.7.81,2.56,1.2Zm9.27,3.92-.06,0-.11,0h0l-2.43-1h0l-.13-.06h0l4.06-9.9,2.64,1Zm9.48,3.39-.6-.2-.11,0h0l-2.11-.71h0l3.48-10.13c.89.31,1.79.61,2.69.9Zm9.66,2.82-.34-.09h-.05l-.07,0-1.48-.4h0l-.08,0-.14,0h0l-.73-.2L205.52,407l2.73.74Zm9.8,2.26-1.27-.26H214l-.1,0-.33-.07h0l-1.18-.26,2.28-10.46c.92.21,1.85.39,2.78.58Zm71.07-.36h0l-.33.07-.1,0h-.05l-1.27.26-2.11-10.5c.93-.19,1.86-.37,2.78-.58l2.28,10.46Zm10.22-2.49h0l-.14,0-.08,0h0l-1.48.4-.08,0h0l-.34.09-2.7-10.36,2.73-.74,2.89,10.31ZM307,414.34l-2.11.71h0l-.1,0-.6.2-3.3-10.19c.9-.29,1.79-.59,2.69-.9L307,414.33Zm9.41-3.55-.13.06h0l-2.43,1h0l-.11,0-.06,0-3.89-10,2.63-1,4.07,9.9Zm36.5-33.86,6.71,8.33-.74.59h0l-.15.11h0l-.12.09-.05,0-.08.07-.1.08-.06,0-.08.07,0,0-1,.75-6.57-8.45Zm-7.53,5.7,6.22,8.71c-.82.59-1.64,1.17-2.47,1.74L343,384.27C343.8,383.73,344.57,383.18,345.34,382.63Zm-7.85,5.27L343.2,397l-.31.19h0l-.14.09-.07,0-.06,0-2,1.22-5.56-9.16C335.89,388.9,336.69,388.41,337.49,387.9Zm-8.13,4.82,5.18,9.36h0l-.42.23,0,0-.08,0-1.12.61h0l-.12.07-.1.05-.06,0-.11.06h0l-.59.32-5-9.46Zm-3.77,14h0l-.14.07h0l-.15.07,0,0-.12.05,0,0-.15.06,0,0-.11.06,0,0-.12.06h0l-.15.07,0,0-.12.06h0l-.15.08h0l-.13.06h0l-.33.16h0l-.69.32-4.46-9.74c.86-.39,1.71-.79,2.56-1.2Zm19.34-84.09c-.57.75-1.17,1.51-1.77,2.27l-22.37-35-25.32,5.57-5.57,25.32,35,22.37c-.76.61-1.53,1.2-2.28,1.77a117.9,117.9,0,0,1-41.46,20.48,120.55,120.55,0,0,1-62.25,0,118.09,118.09,0,0,1-41.47-20.47c-.76-.58-1.52-1.18-2.28-1.78l35-22.37-5.57-25.32-25.32-5.57-22.36,35c-.61-.76-1.21-1.52-1.78-2.28a117.9,117.9,0,0,1-20.48-41.46,120.27,120.27,0,0,1,0-62.27,118.26,118.26,0,0,1,20.49-41.46c.6-.8,1.19-1.55,1.76-2.26l22.36,35,25.33-5.57,5.57-25.31-35-22.36c.76-.62,1.53-1.21,2.28-1.78a117.9,117.9,0,0,1,41.46-20.48,120.59,120.59,0,0,1,62.26,0,117.89,117.89,0,0,1,41.47,20.49c.75.57,1.51,1.16,2.27,1.77l-35,22.36,5.56,25.31,25.33,5.57,22.36-35c.58.71,1.16,1.47,1.77,2.27a118.36,118.36,0,0,1,20.48,41.45,120.27,120.27,0,0,1,0,62.27A118,118,0,0,1,344.93,322.6Z"/></svg>