<svg id="Capa_1" data-name="Capa 1" xmlns="http://www.w3.org/2000/svg" viewBox="0 0 134 51"><defs><style>.cls-1{fill:#fff;}</style></defs><path class="cls-1" d="M17.18,16.08H9V4.62a1.63,1.63,0,0,0-3.25,0V19.33H17.18a1.63,1.63,0,0,0,0-3.25Z"/><path class="cls-1" d="M84.77,13a1.63,1.63,0,0,0,0-3.25H77.18V6.64h7.59a1.62,1.62,0,1,0,0-3.24H73.93v16H84.77a1.63,1.63,0,0,0,0-3.25H77.18V13Z"/><path class="cls-1" d="M33.09,3.09a8.17,8.17,0,1,0,8.17,8.17A8.19,8.19,0,0,0,33.09,3.09Zm0,13.09A4.92,4.92,0,1,1,38,11.26,4.93,4.93,0,0,1,33.09,16.18Z"/><path class="cls-1" d="M52.1,3.92a1.62,1.62,0,1,0-2.93,1.4L55.4,18.4a1.62,1.62,0,0,0,1.47.93,1.55,1.55,0,0,0,.69-.16A1.62,1.62,0,0,0,58.33,17Z"/><circle class="cls-1" cx="63.25" cy="4.86" r="1.86"/><path class="cls-1" d="M4.44,44.39l6.79-14.7a.83.83,0,0,1,.79-.57h.05a.83.83,0,0,1,.79.57l6.76,14.66a.76.76,0,0,1,.1.36.56.56,0,0,1-.57.54.68.68,0,0,1-.59-.45L16.7,40.72H7.33l-1.87,4.1a.58.58,0,0,1-.56.43.53.53,0,0,1-.55-.49A1,1,0,0,1,4.44,44.39ZM16.2,39.65,12,30.46l-4.2,9.19Z"/><path class="cls-1" d="M27.43,37.27v-.05A7.93,7.93,0,0,1,35.28,29a8.36,8.36,0,0,1,5.43,1.77.6.6,0,0,1,.22.47.6.6,0,0,1-.59.59.58.58,0,0,1-.36-.16,7.15,7.15,0,0,0-4.77-1.61c-3.85,0-6.55,3.27-6.55,7.11v0c0,4.11,2.56,7.17,6.8,7.17a8.17,8.17,0,0,0,5.06-1.81V38H35.58a.55.55,0,1,1,0-1.09h5.49a.6.6,0,0,1,.59.59v5.19a1,1,0,0,1-.41.68,9.46,9.46,0,0,1-5.83,2C30.4,45.44,27.43,41.74,27.43,37.27Z"/><path class="cls-1" d="M51.6,44.57V29.87a.6.6,0,0,1,.59-.59H62.44a.55.55,0,1,1,0,1.09H52.78v6.24h8.64a.55.55,0,1,1,0,1.09H52.78v6.37h9.78a.55.55,0,0,1,0,1.09H52.19A.6.6,0,0,1,51.6,44.57Z"/><path class="cls-1" d="M72.47,29.8a.6.6,0,0,1,.59-.59h.19a.75.75,0,0,1,.59.34L84.55,43.14V29.76a.57.57,0,1,1,1.13,0v15a.48.48,0,0,1-.48.5h-.09a.83.83,0,0,1-.59-.38L73.61,31V44.69a.57.57,0,0,1-1.14,0Z"/><path class="cls-1" d="M95.37,37.27v-.05A8,8,0,0,1,103.31,29a8.27,8.27,0,0,1,5.83,2.22.65.65,0,0,1,.23.48.61.61,0,0,1-1,.43,7.12,7.12,0,0,0-5.06-2.07,6.79,6.79,0,0,0-6.69,7.11v0a6.84,6.84,0,0,0,6.71,7.15,7,7,0,0,0,5.18-2.2.56.56,0,0,1,.4-.18.59.59,0,0,1,.57.56.56.56,0,0,1-.18.41,8.22,8.22,0,0,1-6,2.48A7.9,7.9,0,0,1,95.37,37.27Z"/><path class="cls-1" d="M123.44,38.88l-6.2-8.74a.83.83,0,0,1-.11-.36.62.62,0,0,1,.61-.59.65.65,0,0,1,.55.34l5.76,8.28,5.79-8.28a.64.64,0,0,1,.52-.34.61.61,0,0,1,.59.57.91.91,0,0,1-.18.45l-6.15,8.65v5.8a.59.59,0,0,1-1.18,0Z"/></svg>