<svg width="31" height="31" viewBox="0 0 31 31" fill="none" xmlns="http://www.w3.org/2000/svg">
<path d="M6.78125 28.0938H24.2188" stroke="#454545" stroke-width="2" stroke-linecap="round" stroke-linejoin="round"/>
<path d="M15.5 16.4688C17.6401 16.4688 19.375 14.7339 19.375 12.5938C19.375 10.4536 17.6401 8.71875 15.5 8.71875C13.3599 8.71875 11.625 10.4536 11.625 12.5938C11.625 14.7339 13.3599 16.4688 15.5 16.4688Z" stroke="#454545" stroke-width="2" stroke-linecap="round" stroke-linejoin="round"/>
<path d="M25.1875 12.5938C25.1875 21.3125 15.5 28.0938 15.5 28.0938C15.5 28.0938 5.8125 21.3125 5.8125 12.5938C5.8125 10.0245 6.83314 7.56041 8.6499 5.74365C10.4667 3.92689 12.9307 2.90625 15.5 2.90625C18.0693 2.90625 20.5333 3.92689 22.3501 5.74365C24.1669 7.56041 25.1875 10.0245 25.1875 12.5938V12.5938Z" stroke="#454545" stroke-width="2" stroke-linecap="round" stroke-linejoin="round"/>
</svg>
