<svg id="Capa_1" data-name="Capa 1" xmlns="http://www.w3.org/2000/svg" viewBox="0 0 338.11 80.49"><defs><style>.cls-1{fill:#ededed;}</style></defs><path class="cls-1" d="M176.4,1.18l-1.51.07C176.32,1.15,177,1.12,176.4,1.18Z"/><path class="cls-1" d="M156.35,2.6c5.17-.45,13.37-1.24,18.54-1.35C170.28,1.42,158,2.75,156.35,2.6Z"/><path class="cls-1" d="M177.34,1.57l-6.44.29C174.66,1.57,174,1.74,177.34,1.57Z"/><polygon class="cls-1" points="174.98 1.45 175.31 1.33 178.76 1.23 174.98 1.45"/><path class="cls-1" d="M191.48,73.85c.67,0,1.09,0,.78.05Z"/><path class="cls-1" d="M176.57,75.17l-3.07.32C174.41,75.38,175.18,75.3,176.57,75.17Z"/><path class="cls-1" d="M205,72l-2.63.38Z"/><path class="cls-1" d="M324.57,12.43a66.06,66.06,0,0,0-6.23-2.3,34.8,34.8,0,0,1,4.39,1.44C323.55,11.91,323.94,12.13,324.57,12.43Z"/><path class="cls-1" d="M107.93,78.32l-.64.09C106.59,78.38,106.25,78.35,107.93,78.32Z"/><path class="cls-1" d="M172.86,74.25c.07,0-.07.09-.34.14l-.77.07Z"/><path class="cls-1" d="M215.36,70.34l.14,0,2.15-.28C216.5,70.22,215.77,70.32,215.36,70.34Z"/><path class="cls-1" d="M87,78.27c-.93,0-1.83-.11-2.61-.19C86.39,78.13,87.33,78.22,87,78.27Z"/><path class="cls-1" d="M173.13,75.53h0l.4,0Z"/><path class="cls-1" d="M194.31,71.79l-3.41.39C192.34,72,193.54,71.85,194.31,71.79Z"/><path class="cls-1" d="M324.57,12.43c.65.27,1.27.58,1.91.88Z"/><path class="cls-1" d="M193.75.31a20.89,20.89,0,0,1,3,.08C195.57.38,194.55.35,193.75.31Z"/><path class="cls-1" d="M234.14,14.55l.83,0Z"/><path class="cls-1" d="M154.13,13.46c-.38,0-.78,0-1.07,0A2.72,2.72,0,0,1,154.13,13.46Z"/><path class="cls-1" d="M81.12,22.59c2.53-.6,5.15-1,7.69-1.32s5-.69,7.23-1l-1.54.14,2.27-.31L99,19.81,99,19.67c3.75-.43,7.94-1,11.56-1.42s6.65-.63,8-.66l-.9-.13c2.67-.21,5.33-.41,8-.52-1.53.07-3.07.09-4.6.21,4.49-.4,10.16-.76,14.94-1l9.65-.38-.81-.05c1.47-.1,2.63-.13,4.17-.14l-1.19-.09c13.58-.37,17.29-.76,32.47-.62,4.14,0-2.29-.05-2.36-.12,2.26-.09,7.58,0,8.73.08-1.2-.2-7.6-.16-2.74-.3,3.45.11-2.36-.2,3.72-.13l2.38.29c3.38,0,.67-.19,6-.08,6.1.2-7.47.17,2.35.36,4.92.08,10.37-.38,19.91,0,8.24.12-4.32-.52,7.07-.11l-7.29-.39a43.52,43.52,0,0,1,5.64,0c1.55.14,4.6.36,7.27.47-10.67-.55,9.36,0-.56-.56l3.7.14c-.46,0-.58-.06-.33-.07l4.92.15c-3-.16-10.25-.42-6.89-.5l7.13.19c-1.9-.2.71-.17.3-.3l-21-.94c.82.11,3.83.25,2.71.3-5.6-.09-4.57-.3-9.83-.32l2.32.17c-.42-.05-1.16-.08,0-.07a8.91,8.91,0,0,1,2.67.16c-1.85.08-7.16-.14-8.73-.27-6.82-.15-1.41.22-2.91.22-3.52-.34-11.38-.19-15.6-.37l2.71.19c-5.19.09-9.83,0-12.87-.12l1.18.13c-7.22-.08-10.8.46-16.3.05l.76.08c-3,0-7.45.29-10.29.23a6.32,6.32,0,0,1-1.77.19,86.38,86.38,0,0,0-9,.33c2.89-.09,2,.17,5,.09-6.72.55-6.18,0-11.83.32-3.38.28,3,0,3.86,0-2.18.09-4.39.17-6.56.37l-6.34.59-5.74.5c-1.76.17-3.37.28-4.75.3l3.72-.51c-3.47.24-5.34.43-4.92.43a14.72,14.72,0,0,1,1.89-.12c-2.6.32-4.93.55-7.12.75s-4.22.45-6.27.64L98,18c-2.2.22-4.52.64-7.14,1.06.8,0,2.3-.25,2.37-.19a51.77,51.77,0,0,1-5.15.66,52.32,52.32,0,0,0-7.35,1.19l1.54-.21a26.59,26.59,0,0,1-4.16.71,13.25,13.25,0,0,1-2.7.7c-1.62.36-3.84.72-6.18,1.32L62.11,25,59,25.82c-.94.28-1.75.57-2.4.81-1.88.42-5.5,1.34-9,2.28S40.6,31.09,39,31.65c-4.53,1.73,4.15-1.1,2.51-.34-1.8.6-3.19,1-4.8,1.48s-3.44,1-6.07,2.08c-.19-.22,10.4-4.13.31-.7l-1.35.63c1-.41,2.43-1,3.9-1.47,2.94-.89-1.7.74-2.34,1.06-3.58,1.31-7.12,2.72-10.58,4.35-.43.08.91-.62,2.45-1.33s3.3-1.43,3.62-1.58a89.21,89.21,0,0,0-12.91,6.5,62.5,62.5,0,0,0-11,8.61l.62-.51A9.73,9.73,0,0,0,.14,55.24,5.87,5.87,0,0,0,.18,58a12.43,12.43,0,0,0,.73,2.11,18.68,18.68,0,0,0,2.27,3.83,8,8,0,0,0,.82,1l.38.35c.14.11.07,0,0-.07s0-.07.33.25l.74.75L7,67.43c1.52,1.18.58.55.28.38.84.62,1.5,1.16,2.09,1.52l1.41.86a17.14,17.14,0,0,0,1.54.78c.77.33,1.41.76,5,2.21l-1.48-.8a67.21,67.21,0,0,0,13.29,3.81A102.69,102.69,0,0,0,42,77.74c-.46-.22-5.36-.57-7.28-1,2.66.4,5.6.66,8.67.92l9.41.75,17.52,1c-3,.07,4.69.51-1.68.44-1.63-.32-4.62-.33-8-.54,5.47.94,23,.67,24.7,1.1l1.45-.17c1.53,0,5.4.2,2.73.24,3.65,0,7.31,0,11-.09-3.86-.06-12-.52-14.52-.32-3.11-.22,4.49-.09,1.74-.34,7.33.35,4.5,0,12.09,0-3.43.32,7.56.25,7.22.39,1.24-.05,3.25-.06,5.21-.05l4.94,0c2.2-.07,5.81-.24,9.76-.43s8.22-.53,11.74-.68c-2.67.06-6.89.19-6.59,0a56.08,56.08,0,0,0,7.88-.55c-12.27.32-3.91.72-15,1-2.76-.13-5.8-.07-11.52.07a7.49,7.49,0,0,0,2.52-.44c3.5.1,8.06,0,12.87-.27s9.89-.59,14.46-.81c3.86-.15,1,.36,9.71-.25l-7.48.72c8.23-.76,1.94,0,8.76-.48l-2.72.06c4.16-.33,5.68-.47,8-.58l-3.54.1c2.24-.24,6.38-.66,6.45-.53.57-.11.76-.18.76-.22.44,0,1.5-.07,4.12-.33a20.83,20.83,0,0,1-2.68.17c10-.9,2.31-.46,8.5-1.09-1,0,.77-.21,3-.49-.06.2,3,0,6.44-.33s7.33-.77,9-.86h0c2.78-.31,5.57-.59,8.35-.93-1.69.21.12-.15,2.53-.53l-.39.06c2.63-.43-3.2,0,4.74-1l4.19-.48c-.75.09,0-.07.34-.15l4.3-.54c6.5-1.35,12.4-1.68,20.06-3.14-2.21.39-5.6.92-4.17.57s3.74-.61,4.91-.75l-.39,0c4.9-.71,9.79-1.48,14.68-2.26-1.21.09-9.4,1.5-5.77.72,2.14-.54,6.37-1.09,9-1.54-.32.16-5.15,1.09-.24.29.59-.15,5.22-1.07,3-.75l16.82-2.74c1.42-.32-.83.08-1.58.21l-.36.1a53.21,53.21,0,0,0-6.41,1c-.56-.26,8.54-1.54,13.69-2.82-2.76.55-5.53,1.06-8.31,1.48,13.89-2.9,32.39-8,45.31-13.69-3.75,1.75-7,2.87-6.47,2.94,4.1-1.54,5.85-2.3,7.59-3.05s3.48-1.53,7.39-3.5l-.68.33c2-1.09,4.34-2.38,6.46-3.69a16.27,16.27,0,0,0,4.75-4.25,30.47,30.47,0,0,1-2.9,2.81A6,6,0,0,1,329.68,40,19.31,19.31,0,0,0,334,36.48a17.66,17.66,0,0,0,3.15-4.62,20.91,20.91,0,0,1-4.52,5.88,19.73,19.73,0,0,1-3.45,2.5c-1.15.72-2.23,1.37-3.17,1.85-1.32.73,0,0,1.54-.8s3.17-1.83,2.6-1.37A74.86,74.86,0,0,1,320.61,45l-3.17,1.32-3.24,1.2c-2.89,1,4.05-1.93,5.75-2.79a75.31,75.31,0,0,0,10.45-5.37,19.05,19.05,0,0,0,5.09-4.9,13.29,13.29,0,0,0,2.62-7,10.38,10.38,0,0,0-1.5-5.38,20.77,20.77,0,0,0-1.37-2.37,14.54,14.54,0,0,0-1.07-1.44c-.83-.91-2.06-2.35-6.18-4.46.8.46,1.58,1,2.33,1.48-1.75-1-3-1.52-3.84-1.94,3.52,1.71,7.14,4.19,9.07,7.18a25.23,25.23,0,0,0-8-6.24,59,59,0,0,0-11.33-4.32c.37.14,2.93.86,3.66,1.2-5.43-1.65-11.11-2.88-16.49-4-2.69-.53-5.3-1-7.8-1.46s-4.86-.68-7-1c-3.69-.3,7.22,1,5.4,1-4.56-.66-9.75-1-11-1.36,2,.48-10.53-1.06-1.79.1C264.65,2.86,246.44,1.36,229.68.59c.81.12.81.19.1.22,2.84.11,6.34.28,9.52.46s6,.45,7.61.63c-3.73-.08-8.79-.68-9.87-.62a55.73,55.73,0,0,1,5.73.49c-4.85-.12-7.56-.41-11-.6h1.86c-5.32-.34-6.79-.46-8.34-.6s-3.19-.25-8.85-.32c-4.1.14,0,.15.1.36-2.66-.09-11.26,0-14-.14l3.42,0,3.43,0L205.85.39h-9.13a10.77,10.77,0,0,0,1.64.09c-3.81-.06-8.7.13-10.65.06L186.65.8c2.26-.18,9.06-.42,10.21-.26-.33.12-2.21.12-4.38.19l-6.15.18c3.32-.09,5.81-.15,7.87-.16l5.23.07c3.1.06,5.95,0,11.56,0L209.1.77c3.5,0,7,0,10.48.11s6.77.3,9.83.38c-1.73,0-2.08.07-1.27.13,13.54.3,26.84,1.19,42.22,2.44l4.61.65.3-.14c7.52.66,1.61.4,6.45.87A8.64,8.64,0,0,1,279.84,5c8.7,1.1,4.86.35,9.74,1-2.3-.46-9.42-1.1-7.21-1.11,4.33.57,9.91,1.18,14.48,1.92a65.28,65.28,0,0,1,8.81,1.87A123.59,123.59,0,0,1,318,11.39a46.24,46.24,0,0,1,12,5,18.34,18.34,0,0,1,4.64,4.09,13.55,13.55,0,0,1,1.52,2.54,10.78,10.78,0,0,1,.8,2.72,10,10,0,0,1-.88,5.27,15.84,15.84,0,0,1-2.8,4.25c-1.14,1.37.79-.78.37-.24A22.26,22.26,0,0,1,330,38.27c-1.59,1-3.38,2.13-5.05,3s-3.25,1.72-4.38,2.32a10.46,10.46,0,0,1-1.93.83c-2.33,1.17-3.28,1.7-3.9,2-3.21,1.28-7.08,2.75-11.23,4.18,1-.34,2-.67,3-1l-.32.15c-1.43.51-2.88,1-4.32,1.46l.16-.07a198.28,198.28,0,0,1-32.34,8.37c5.64-.9-1.37.52,1.3.11-5,.58-16.95,2.74-26.63,4.42.06.07-.68.25.46.11L239.2,65l.76,0c-5,.84-10.29,1.67-15.14,2.35s-9.26,1.3-12.57,1.88c4.12-.58,4.15-.52,4.58-.47-3.61.57-7.13,1-10.79,1.55s-7.49,1-11.73,1.51a3.78,3.78,0,0,1,.77,0c-2.22.31-4.9.56-7.17.81l-.29.21c-4.33.51-9.93,1.15-15.1,1.61-.5.1-1.54.23-2.89.38l-4.87.4c-3.62.27-7.74.62-10.72.9-2.29.13,5-.19-1.42.29-.93-.3-8.31.62-8.84.27-1.87.2-3.73.37-5.6.51L136.93,77a50.77,50.77,0,0,1-6.29.43c-2.11.06-4.51.09-8.06.25.38,0,1.14,0,.78.06-2.3,0-7.58.21-3.49,0-1.89.05-6.05.23-9,.27s-4.74.11-1.85.17a14.42,14.42,0,0,1,2.56-.09l4.6-.07a26,26,0,0,1-3.28.25c-1.63.08-3.4.11-4.11.22l-1.48,0-.8.12c-3.56-.07-7.14,0-10.49,0s-6.44-.1-9-.24a38.13,38.13,0,0,1-4,0l-.1-.22-7.56-.23,3.53.42c-4.14-.1-7.67-.26-11-.48s-6.49-.54-9.89-.75c-1.78.35-13.25-1.07-19.15-1.21l5.3.51c-5.68-.46-9-.72-12.1-1.13A68.62,68.62,0,0,1,20.78,73,75.2,75.2,0,0,0,30,74.83c2.73.37,6,.77,12.5,1.09A107.47,107.47,0,0,1,25,73.65a55.92,55.92,0,0,1-7.77-2.29A37.43,37.43,0,0,1,9.8,67.65c.57.51,3,2.06.58.65-.48-.31-1.21-.93-2.1-1.58C7.85,66.39,7.44,66,7,65.6c-.22-.2-.44-.38-.65-.58l-.58-.62c-.36-.41-.74-.78-1-1.13l-.68-.93c-.35-.48-.45-.67-.16-.36A15.33,15.33,0,0,1,2,59a5.58,5.58,0,0,1-.57-2.31C1.5,55,2.62,53.42,4,52a46.48,46.48,0,0,1,4.65-4l-.32.2a60.41,60.41,0,0,1,13-8.08,123.6,123.6,0,0,1,13.9-5.46l7.12-2.25c2.39-.75,4.77-1.54,7.23-2.16,4.89-1.32,9.83-2.79,15-4l-.43,0,5.24-1.07c-4.1.86,1.74-.55,2-.73,4.5-.79,9-1.63,13.49-2.37C85.24,22,84.4,21.88,81.12,22.59Zm1.46,55.74c1.08,0,2.17,0,3.25.06.65,0,1.32,0,2.06,0l-2.06,0A15.69,15.69,0,0,1,82.58,78.33Zm230.84-68.2c-1.49-.47,2.19.48,3.23.78-1.69-.48-3.39-.9-5.11-1.29C310.82,9.51,312.68,9.93,313.42,10.13ZM82.74,79.71l-1.82.09-2.32-.19ZM36.62,77.12c1.52.19,3.05.33,4.58.47h-.39c-1.51-.14-3-.29-4.53-.47ZM4.15,51.41l-.62.6c.19-.2.41-.41.62-.6a35.31,35.31,0,0,1,6-4.89C7.41,48.74,5.65,50.1,4.15,51.41ZM66.44,78c1.54.12,2.29.17,3.42.18-.8-.08-3.88-.39-1.62-.29,1.57.16,6.84.33,6.91.48C70.57,78.11,67.31,78.39,66.44,78Zm108.42-3.78-1.15.14,4.22-.36Zm19.6-2.2c2.36-.09,8.33-1,12.47-1.51,1-.31-3.18.1-8,.8C193.18,71.94,196.77,71.85,194.46,72ZM31.13,75.58l1.14.28-1.09-.13c1.5.24,3,.45,4.5.64a64.46,64.46,0,0,1-13-2.4c1.28.34,3.69.93,5.65,1.31S31.74,75.85,31.13,75.58Zm204.94-9.66c4.18-.55,11.68-1.72,11-1.47.23-.29-5.79.66-7.67,1C238.33,65.59,237.54,65.71,236.07,65.92Zm-.14.49c-6.05.87-6.47.86-11.11,1.35,6-1,7.62-1,6.94-.78a55.88,55.88,0,0,0,5.55-1Zm-6.37.36-2.44.43a49.87,49.87,0,0,1-7.57,1.27l7.57-1.27C227.76,67.07,228.56,66.93,229.56,66.77ZM280,57.66c-.82.17-1.63.35-2.45.49,2.4-.54,2.68-.59,2.45-.49l2-.41C276.79,58.6,279.49,57.86,280,57.66Zm-38.42,7.21L234.47,66C234.9,66.06,239.33,65.27,241.59,64.87Zm36.91-6.62c-1.48.34-4.15.94-6.32,1.35s-3.86.72-3.32.62c.34-.13,2.3-.49,4.38-.91S277.55,58.41,278.5,58.25ZM257.44,2.49l4.53.35h-2.2Zm52.9,6.3-1.12-.15-2.59-.54Zm20.84,29.63c.17-.18,0-.14-.31.08a11.31,11.31,0,0,1-1.45.88l1.45-.88a18.28,18.28,0,0,0,2.51-2.19,15.74,15.74,0,0,0,1.76-2.24c-.25.3-.82,1.06-1.5,1.77a16.37,16.37,0,0,1-1.9,1.77,23.71,23.71,0,0,0,2.77-2.94,16,16,0,0,0,2.28-3.75,10.14,10.14,0,0,0,.77-2.92c0-.6,0-.68-.25,0a9.41,9.41,0,0,0,.09-2c0-.4-.11-.81-.18-1.22s-.19-.82-.33-1.18c-.5-1.45-1-2.37-.45-1.43a10.9,10.9,0,0,1,1.23,4.27,11,11,0,0,1-1,5.06,19.06,19.06,0,0,1-5.46,6.9,8.65,8.65,0,0,1-1.22.93C330.16,39.18,330.65,38.86,331.18,38.42Zm-62,22.32c-1.83.31-2.63.44-3,.49-1.58.24-2.78.39-2.33.23,3.83-.62,1.4-.12,2.33-.23Zm-11.52,2.12,6-1-3,.43,9.07-1.41C264.56,62,258.51,62.87,257.69,62.86Zm-2.09.49-1.26.07,1.91-.18-.65.11.29,0L245.78,65ZM151.85,77.14c-1.9.39.37.3,3.36.12s6.7-.55,7.71-.53c.41-.2,4.26-.81-5.71.14,8.6-1,5.43-.2,10.51-1.08-4.12.41-9.1.76-9.83.82l4.85-.48C160,76.09,155.28,77,151.85,77.14ZM99.31,79.55c-2.15,0-4.29,0-6.43,0,2,0,4.06.08,6.08.06ZM42.87,30.75a30.25,30.25,0,0,1,3.74-1.4c2.16-.65,4.63-1.34,5.61-1.5l-5.83,1.67C44.69,30.09,43.36,30.54,42.87,30.75Zm66.66-13.7-7.17.81a28.36,28.36,0,0,1,4.12-.62l2.88-.32c1-.08,1.92-.16,2.76-.26C113.31,16.68,110.64,16.85,109.53,17.05Zm46.86-3,2.3,0-2.42-.18Zm-3.17-.24c1.45-.16-3.49-.07-4.65,0Zm42.33-.42-3,0,2.72.27Zm-4.8.19c-.71-.15-.41-.43-7.34-.34-.29.17,1.6.18-1,.37,2.28.05,4.15,0,5.29,0-1.55-.05-3.39,0-3.81-.09,2.58-.07,5.24,0,6.84.08a7.94,7.94,0,0,0,1.54.16A7,7,0,0,0,190.75,13.55Zm-25.12.17c-.91,0-1.7.07-2.07.1l-.41,0a21.55,21.55,0,0,1,2.48-.06l3.37-.09c.77-.15-4-.2-5.23-.27,2.26,0,4.22.14,7.21,0a8.06,8.06,0,0,0-1.91-.05l4.14-.08c4.73.19.21.25-4.21.38a9.94,9.94,0,0,1-1.3.11C167,13.77,166.34,13.74,165.63,13.72Zm33.22.45-2.26-.07c-1.16-.08-.42-.12-.83-.17C198.42,14,201.88,14.13,198.85,14.17Zm-135,11c1.45-.38-2,.24-5.24,1.08.56-.23,1.13-.42,1.69-.63.12.11,6.72-1.46,7.47-1.63C68.94,24,66.35,24.49,63.81,25.22ZM76.93,79.11a53.1,53.1,0,0,0,5.64.34c2.55,0,5.19,0,6.15.07C84.22,79.63,74,79.3,76.93,79.11Zm15,.15c2.36,0,3,0,2.79.14,1.15,0,3,0,4.18,0a61.2,61.2,0,0,1-7-.19l-2.2,0C90.68,79.23,91.34,79.25,91.92,79.26Zm-88.39-16L2.68,62A12.63,12.63,0,0,1,2,60.63,7.84,7.84,0,0,1,.88,56.2a7.3,7.3,0,0,0,.63,3.71A15.13,15.13,0,0,0,3.53,63.29ZM37.28,33.4c-.42,0,4.93-1.75,6.06-2.06-.39,0-4,1.17-6.83,2.09l-1.88.6,1.88-.6c1.08-.32.36,0,.38,0l-1.4.51,4-1.26Zm90.78-17.11c3.35-.36,3.75-.35,6-.47C133.35,15.93,130.34,16.16,128.06,16.29Zm-116,28.63c2.34-1.55,1.76-1.21.94-.79s-1.8,1-.27,0c-.82.54-1.65,1.08-2.44,1.66a20.22,20.22,0,0,1,3.28-2.15c.61-.31,1.07-.5,2.52-1.36-.64.39-1.3.76-1.93,1.16-1.46,1,3-1.68,3.47-1.72-1.15.63-3,1.69-4.36,2.51S11.16,45.56,12.07,44.92ZM133.38,16c5.59-.5,4.62-.09,8-.25C136.94,16.12,137.57,15.76,133.38,16ZM44.83,31.5l-.33.14L46.67,31l2.2-.58.34-.12-2.2.57C46.28,31.05,45.56,31.28,44.83,31.5Z"/><path class="cls-1" d="M140.26,14.14c1.39-.09,2.3-.13,3.06-.16Z"/><path class="cls-1" d="M105.7,80.21a8.38,8.38,0,0,1,1.27-.09A11.81,11.81,0,0,1,105.7,80.21Z"/><path class="cls-1" d="M116.7,80.05l.42,0h.35Z"/><path class="cls-1" d="M197.06.09c-2.36-.16,2.28,0,4.17-.08C199.34,0,198.61.17,197.06.09Z"/><path class="cls-1" d="M212,.35c-1.12-.06-2.72-.11-4.67-.15C208.52.21,209.86.24,212,.35Z"/><path class="cls-1" d="M199.81.28c2.9-.05,5.43-.12,7.48-.08C205.38.18,203.76.3,199.81.28Z"/><path class="cls-1" d="M252.05,1.81c-2.33-.28-6.82-.46-6.82-.46,9.8.45-2-.32-2.78-.45C248.55,1.29,248.58,1.41,252.05,1.81Z"/><path class="cls-1" d="M265,2.82l-2.71-.19C263.24,2.67,264.14,2.75,265,2.82Z"/><path class="cls-1" d="M268.65,3c3.38.33,4.56.57,6.1.81-4.1-.29-6.7-.73-9.75-1C267.4,3,269.75,3.22,268.65,3Z"/><path class="cls-1" d="M319.91,45.66c.72-.3,2.41-1.15,2.49-1.12-1.7.88-3.45,1.64-5.18,2.45-1.06.44-.64.24.17-.13Z"/><path class="cls-1" d="M300.23,53.07c-4.32,1.43-2,.84-4.23,1.51l.18-.31C297.54,53.9,298.88,53.48,300.23,53.07Z"/><path class="cls-1" d="M302.23,51.1l1.26-.42-1.44.5Z"/><path class="cls-1" d="M279.22,59.31l3.13-.48C278.61,59.66,278.51,59.46,279.22,59.31Z"/><polygon class="cls-1" points="262.22 62.8 264.86 62.4 256.64 63.81 262.22 62.8"/><polygon class="cls-1" points="241.63 66.28 240.91 66.46 235.25 67.32 241.63 66.28"/><path class="cls-1" d="M15.55,72.82c-.18-.13.21,0,.95.23l1.34.47,1.69.52a61.38,61.38,0,0,0,6.61,1.61,12,12,0,0,1-1.95-.3c-.81-.16-1.75-.41-2.74-.69C19.46,74.13,17.31,73.34,15.55,72.82Z"/><path class="cls-1" d="M132.35,14.69l-8.69.57C130.38,14.69,125.53,15.12,132.35,14.69Z"/></svg>