<svg width="169" height="21" viewBox="0 0 169 21" fill="none" xmlns="http://www.w3.org/2000/svg">
<path d="M32.23 2.30978C31.0983 2.68918 29.9379 2.97678 28.76 3.16978H29.16L28.09 3.36978L28.17 3.57978C26.45 4.02978 24.44 4.99978 23.71 4.88978L24.03 5.14978L22.15 5.53978L23.25 5.38978C21.25 6.18978 18.19 7.12978 17.78 7.32978H18C17.7109 7.48954 17.3962 7.59782 17.07 7.64978L17.41 7.72978C14.41 8.93978 13.84 9.72978 10.54 11.0798C9.69 11.5498 11.05 10.8998 11.12 10.9998C10.5531 11.3915 9.91934 11.6762 9.25 11.8398C9.64 11.9898 10.93 11.2298 10.03 11.9698C9.25 12.1998 10.66 11.9698 9.36 12.5698L8.68 12.4698C8.01 12.8898 8.68 12.8198 7.57 13.3698C6.22 13.8898 8.89 12.1398 6.83 13.1798C5.83 13.7498 5.16 15.1798 3.14 16.1098C1.61 17.2798 4.32 16.1098 2.01 17.4198C2.54 17.1998 3.06 16.9698 3.59 16.7598C3.28 17.0898 3.59 17.1098 2.59 17.6398C2.02583 17.7662 1.48786 17.9895 1 18.2998C3.25 17.2298 -0.57 19.8598 1.57 18.9498L0.85 19.3998C0.95 19.3998 0.99 19.3998 0.96 19.3998L0 20.0798C0.63 19.7698 2 18.8998 1.56 19.5698L0.23 20.5198C0.72 20.4698 0.23 20.8698 0.45 20.9698C1.86 20.2198 3.27 19.4798 4.71 18.7998C4.48 18.7998 3.84 19.0498 3.99 18.7998C4.99 18.0498 4.99 18.4798 5.99 17.7098L5.45 17.8298C5.57 17.8298 5.72 17.7698 5.51 17.9298C5.3 18.0898 4.98 18.2198 4.92 18.1198C5.40075 17.6411 6.01369 17.3173 6.68 17.1898C8.02 16.4098 6.76 16.6798 7.02 16.4498C7.91 16.3898 9.3 15.1898 10.24 14.9098L9.53 14.9998C10.3079 14.3843 11.2078 13.9412 12.17 13.6998L11.84 13.6398C13.34 12.9398 13.84 11.9798 15.25 12.0998L15 11.9998C15.6514 11.5347 16.384 11.1956 17.16 10.9998C17.16 10.9098 17.16 10.7698 17.45 10.6298C17.9 10.7398 18.45 10.2798 19.37 9.83978C18.73 10.0298 18.79 9.61978 18.1 9.83978C19.4 8.89978 19.57 9.65978 20.78 9.16978C21.44 8.70978 20.05 9.23978 19.83 9.16978C21.76 8.59978 23.39 6.86978 24.83 7.11978L24.09 7.62978C24.9 7.50978 25.31 7.35978 25.19 7.32978C25.1196 7.3628 25.0428 7.37991 24.965 7.37991C24.8872 7.37991 24.8104 7.3628 24.74 7.32978C26.9 6.14978 28.49 6.57978 30.74 5.69978C30.53 5.61978 30.18 5.69978 30.13 5.57978C31.13 5.09978 31.39 5.92978 33.04 5.12978H32.65C33.2 4.85978 33.65 4.95978 33.65 5.01978C33.53 4.39978 37.32 4.01978 38.38 3.01978C39.7763 3.1229 41.1799 3.05574 42.56 2.81978C43.63 2.35978 41.56 2.49978 41.93 2.12978C42.81 2.03978 43.28 2.32978 44.57 2.18978C44.57 2.51978 42.09 2.96978 44.46 3.07978L44.79 2.88978C44.4862 2.94188 44.1782 2.96532 43.87 2.95978C43.17 2.78978 44.27 2.70978 44.43 2.61978C45.2863 2.64128 46.1408 2.70804 46.99 2.81978C47.14 3.18978 45.64 2.99978 45.48 3.09978C47.48 3.09978 49.99 2.93978 51.76 3.70978L51.62 3.52978C52.1858 3.86151 52.8346 4.02458 53.49 3.99978C53.82 3.99978 54.07 3.99978 54.87 4.57978C55.87 4.87978 54.68 4.06978 56.13 4.65978C56.53 4.83978 56.24 4.85978 56.13 4.86978C57.81 5.79978 57.05 4.86978 58.49 5.99978L58.32 5.48978C60.11 6.68978 61.65 8.40978 63.32 9.22978C63.38 8.91978 62.4 8.34978 62.12 7.91978C63.97 9.65978 67.12 11.1598 69.12 12.4198C68.38 12.3298 69.86 13.4198 68.41 12.9498C68.24 12.4298 67.5 12.3198 66.82 11.8898C67.18 12.5798 68.44 13.1498 69.63 13.5898C70.82 14.0298 71.93 14.3398 71.97 14.7598L72.41 14.6098C72.73 14.7898 73.52 15.3298 72.89 15.1898C73.74 15.4398 74.6 15.6698 75.47 15.8498C74.61 15.3998 72.99 14.2398 72.32 14.3098C71.75 13.7498 73.39 14.4998 72.91 13.9298C74.35 14.9998 73.97 14.1198 75.62 14.7598C75.17 14.8498 75.55 15.1198 76.04 15.3798C76.53 15.6398 77.13 15.8698 77.04 15.9698C77.8473 16.1406 78.6373 16.3849 79.4 16.6998C81.1458 16.8526 82.9004 16.8794 84.65 16.7798C83.98 16.6898 82.96 16.5298 83.04 16.2398C83.86 16.4098 84.79 16.3298 84.91 16.0098C83.45 15.8098 83.23 16.0098 83.03 16.1798C82.83 16.3498 82.65 16.6498 81.33 16.3598C80.5039 15.9285 79.6171 15.625 78.7 15.4598C79.33 15.3698 79.08 15.2398 79.37 15.0298C80.2613 15.5216 81.2738 15.7505 82.29 15.6898C83.41 15.6898 84.58 15.5898 85.66 15.6298C86.74 15.6698 85.97 16.3398 88.07 16.0098C87.49 16.1898 86.91 16.4098 86.31 16.5698C88.31 15.9998 86.82 16.7198 88.49 16.4598C88.2516 16.4405 88.0145 16.4071 87.78 16.3598C88.4249 16.1442 89.1 16.0328 89.78 16.0298L88.84 15.9098C89.36 15.7198 90.3 15.3798 90.38 15.5698C90.48 15.4298 90.5 15.3498 90.48 15.2798C90.8299 15.2786 91.1738 15.1892 91.48 15.0198C91.12 15.1098 90.87 15.2298 90.83 15.1198C93.1 14.3198 91.19 14.5398 92.56 13.9898C92.31 13.9898 92.66 13.7498 93.09 13.4698C93.33 14.0398 95.96 12.7398 96.76 12.6098L98.57 11.8198C98.2 11.9798 98.48 11.6098 98.93 11.2698L98.86 11.3198C99.34 10.9298 97.86 11.1398 99.57 10.3198L100.49 9.99978C100.33 10.0598 100.43 9.89978 100.49 9.81978C100.81 9.69978 101.12 9.57978 101.44 9.47978C102.51 8.25978 104.09 8.47978 105.6 7.70978C105.14 7.87978 104.43 8.14978 104.66 7.84978C104.986 7.65589 105.361 7.55878 105.74 7.56978H105.63C106.171 7.45233 106.719 7.36883 107.27 7.31978C107.81 7.24633 108.355 7.2129 108.9 7.21978C108.61 6.99978 106.81 7.37978 107.57 6.98978C107.99 6.57978 109 6.76978 109.57 6.71978C109.5 6.88978 108.46 7.15978 109.57 7.10978C109.69 6.99978 110.72 6.78978 110.23 6.69978C111.499 6.75052 112.755 6.97943 113.96 7.37978C114.28 7.37978 113.79 7.21978 113.63 7.17978H113.54C112.88 7.03978 113.48 6.73978 112.13 6.82978C112.04 6.28978 114.13 6.82978 115.26 6.95978C114.65 6.72978 114.04 6.52978 113.41 6.34978C115.244 6.22857 117.083 6.49081 118.81 7.11978C120.65 7.69978 122.43 8.43978 124.02 8.86978C123.02 8.77978 122.32 8.40978 122.32 8.86978C123.479 9.33832 124.673 9.71612 125.89 9.99978L125.72 9.93978C126.8 9.93978 128.13 10.6898 128.89 10.4298C128.48 10.1398 127.37 10.3698 127.44 9.90978C128.27 10.1098 129.12 10.2398 129.96 10.4098C128.823 10.082 127.668 9.82152 126.5 9.62978C125.8 9.48978 127.87 9.99978 127.5 10.2198C126.096 10.0028 124.772 9.42378 123.66 8.53978C123.06 8.04978 124.75 8.53978 125.18 8.60978C125.989 9.06059 126.844 9.42269 127.73 9.68978C128.819 9.99017 129.934 10.1844 131.06 10.2698L132.39 10.0998C133.51 10.5398 132.94 11.1498 135.07 11.2698L134.46 10.9598C134.793 10.928 135.127 10.928 135.46 10.9598C134.569 10.7084 133.691 10.4114 132.83 10.0698C134.07 9.72978 136.22 10.7098 137.98 10.9298C137.9 10.8598 137.28 10.8098 137.11 10.6598C139.73 10.6598 142.47 11.4198 144.52 11.4698C145.39 11.2298 142.83 11.3398 143.25 10.9898C144.32 11.1198 145.53 10.7998 145.82 11.1198C145.34 10.6798 148.27 11.0398 146.22 10.6598C150.06 10.3898 154.3 10.5198 158.22 10.3898C158.01 10.2698 158 10.1598 158.16 10.0498C156.83 10.2334 155.48 10.203 154.16 9.95978C155 9.65978 156.22 10.1198 156.46 9.95978C156.01 9.89978 155.13 9.95978 155.1 9.73978C155.939 9.56196 156.802 9.53487 157.65 9.65978L157.23 9.80978C159.72 9.87978 158.67 10.4798 161.23 10.0598C162.14 9.67978 161.23 9.83978 161.14 9.49978C161.77 9.56978 163.7 8.96978 164.39 9.23978L162.81 9.46978C163.93 9.46978 164.97 9.28978 165.75 9.30978C165.637 9.22062 165.494 9.17774 165.35 9.18978C166.178 9.10005 167.012 9.10005 167.84 9.18978L168.04 8.78978C167.291 9.07322 166.486 9.17601 165.69 9.08978C165.8 8.75978 167.4 8.73978 168.09 8.62978C165.03 8.93978 164.92 8.36978 162.37 8.92978L162.82 8.97978C161.24 9.43978 159.53 9.18978 158.13 9.32978C158.52 9.20978 158.58 9.06978 158.39 9.02978C155.3 9.62978 152.22 9.64978 148.67 9.96978L147.59 9.64978L147.53 9.91978C145.79 10.0998 147.14 9.55978 146.03 9.60978C146.45 9.60978 146.38 9.60978 146.46 9.70978C144.46 9.41978 145.35 9.97978 144.22 9.89978C144.75 10.1898 146.4 9.98978 145.9 10.3798C143.9 10.1198 140.74 10.1998 140.47 9.53978C136.658 9.5151 132.862 9.04184 129.16 8.12978C128.72 8.12978 129.41 8.25978 129.23 8.32978C128.09 7.77978 125.15 7.69978 125.23 7.37978C124.859 7.34713 124.486 7.40193 124.14 7.53978C123.297 7.14867 122.428 6.81458 121.54 6.53978L122.24 6.82978H122.14L121.14 6.41978C118.7 5.61978 115.76 4.97978 113.34 4.41978C114.72 4.77978 112.95 4.78978 113.6 4.98978C112.702 4.58334 111.726 4.37854 110.74 4.38978C110.102 4.37077 109.463 4.40086 108.83 4.47978C108.19 4.53845 107.554 4.64542 106.93 4.79978C106.93 4.90978 106.8 5.03978 107.1 5.06978C106.63 5.06978 106.1 5.06978 105.67 5.16978L105.88 5.24978C103.47 5.96978 100.76 6.67978 99.47 7.69978C100.37 7.26978 100.47 7.37978 100.61 7.48978C99.06 8.28978 97.61 9.13978 95.89 10.0098C96 10.0098 96.08 10.0098 96.1 10.0098C95.6251 10.2961 95.1225 10.534 94.6 10.7198L94.68 10.9898C93.6831 11.5374 92.6429 12.0023 91.57 12.3798C91.28 12.8798 88.93 13.1998 87.73 13.5998C87.23 13.6698 88.85 13.5998 87.5 13.9598C87.18 13.4198 85.72 14.2998 85.5 13.6498C85.12 13.7598 84.73 13.9098 84.34 13.9898L84.06 13.6898C83.8659 13.8232 83.6412 13.9051 83.4068 13.9278C83.1724 13.9506 82.9361 13.9134 82.72 13.8198C82.1728 13.6328 81.5983 13.5381 81.02 13.5398C81.1 13.6098 81.26 13.6498 81.17 13.6898C80.69 13.5998 79.58 13.3698 80.47 13.3398C79.66 13.3398 77.01 12.5298 78.14 13.1398C78.14 12.9398 79.14 13.3198 79.65 13.4598C79.54 13.7398 78.35 13.3898 77.98 13.6098C77.8909 13.5404 77.7974 13.4769 77.7 13.4198L77.48 13.5398C76.04 12.8798 74.48 12.5398 73.54 11.7798C73.45 11.7798 73.16 11.7798 72.67 11.5598L72.79 11.2398C72.27 11.0298 71.79 10.7998 71.26 10.5598L71.77 11.3398C70.03 10.6598 69.14 9.53978 67.87 8.70978C67.33 8.99978 65.49 6.89978 64 6.59978L65 7.37978C62.79 5.89978 62.26 5.99978 60.14 4.56978C62.14 5.43978 62.08 5.56978 64.94 6.75978C62.2 5.34978 60.47 3.67978 57.64 2.75978C57.76 2.96978 58.39 3.35978 57.64 3.17978C57.26 2.64978 55.09 2.08978 55.64 1.94978C54.73 1.71978 54.47 1.94978 53.92 1.82978C52.992 1.34569 52.0371 0.914985 51.06 0.539782L51.14 0.629782C48.46 0.409782 46 0.0897822 43.51 -0.000217756C40.9738 -0.125957 38.4347 0.178338 36 0.899782L36.14 1.04978L34.82 1.10978C35.82 1.02978 34.45 1.43978 34.42 1.61978C33.34 1.77978 32.26 1.95978 31.19 2.14978C31.21 2.31978 31.5 2.60978 32.23 2.30978ZM72.65 11.4998L73.31 11.7998C73.4583 11.8383 73.5999 11.899 73.73 11.9798L73.31 11.7998C73 11.7098 72.64 11.7198 72.65 11.4998ZM138.65 9.54978C138.99 9.72978 138.13 9.54978 137.87 9.54978L139.09 9.65978C139.28 9.60978 138.84 9.58978 138.67 9.54978H138.65ZM71.81 13.5498H71.33L70.9 13.1698L71.81 13.5498ZM62.39 8.35978L63.24 9.02978H63.14L62.3 8.36978L62.39 8.35978ZM52.25 1.62978L52.44 1.72978L52.25 1.62978C51.45 1.22978 51.02 1.62978 50.42 1.01978C50.7508 0.986199 51.085 1.02321 51.4005 1.12836C51.7159 1.23351 52.0055 1.40442 52.25 1.62978V1.62978ZM69.25 10.2798C69.4555 10.4382 69.6807 10.5693 69.92 10.6698C69.81 10.4698 69.29 9.96978 69.77 10.1598C70.01 10.4598 71.05 11.0298 70.97 11.2298C70.13 10.5698 69.19 10.7898 69.23 10.2798H69.25ZM92.19 12.2798L91.97 12.4098C92.28 12.3398 92.59 12.2398 92.9 12.1498L92.19 12.2798ZM96.19 10.2798C97.1268 9.98394 98.0211 9.56709 98.85 9.03978C99 8.69978 98 8.99978 97 9.56978C95.73 10.0698 96.75 10.1598 96.2 10.2898L96.19 10.2798ZM62 6.48978L62.13 6.79978L61.89 6.68978L62.74 7.34978C61.7807 6.89987 60.9154 6.27212 60.19 5.49978C60.74 5.81978 62 7.10978 62 6.48978ZM105.16 5.92978C106.16 5.74978 108 5.65978 107.87 5.92978C107.87 5.54978 106.39 5.64978 105.95 5.78978C105.69 5.86716 105.421 5.91414 105.15 5.92978H105.16ZM105.32 6.63978C104.841 6.73474 104.357 6.80483 103.87 6.84978C103.446 6.8486 103.022 6.87197 102.6 6.91978C103.86 6.18978 104.43 6.54978 104.33 6.78978C105.33 6.60978 105.07 6.46978 105.56 6.25978L105.32 6.63978ZM103.53 6.12978L103 6.39978C102.41 6.83978 102.46 7.28978 101.39 7.31978C101.91 6.99978 102.46 6.70978 103 6.39978C103.161 6.2875 103.336 6.19673 103.52 6.12978H103.53ZM115.89 5.12978L115.32 4.89978C115.91 5.00978 115.96 5.08978 115.89 5.12978L116.36 5.33978C115.05 5.20978 115.73 5.19978 115.88 5.09978L115.89 5.12978ZM106.41 5.36978C105.83 5.47978 105.27 5.66978 104.7 5.81978C104.85 5.93978 105.86 5.49978 106.4 5.33978L106.41 5.36978ZM115.41 5.36978C114.7 5.23978 112.8 5.11978 113.07 5.11978C113.869 5.00789 114.684 5.09726 115.44 5.37978L115.41 5.36978ZM151.68 10.2298H150.63L151.12 9.91978L151.68 10.2298ZM139.35 10.5798L139.61 10.4498L140.22 10.5098L139.35 10.5798ZM128.07 9.27978C128.14 9.27978 128.12 9.14978 128.07 9.06978C127.937 9.02881 127.815 8.9607 127.71 8.86978C127.847 8.89884 127.973 8.96853 128.07 9.06978C128.533 9.21164 129.016 9.27915 129.5 9.26978C129.35 9.10978 128.65 9.00978 128.41 8.86978C129.47 8.73978 131.61 10.0998 131.1 9.06978C131.51 9.23978 132.97 9.66978 132.43 9.75978C130.997 9.51904 129.551 9.35879 128.1 9.27978C128.04 9.27978 127.94 9.32978 127.74 9.27978C127.85 9.26979 127.96 9.26979 128.07 9.27978V9.27978ZM113.08 5.99978C112.847 5.97676 112.616 5.93326 112.39 5.86978C112.02 5.77978 111.74 5.66978 111.85 5.54978C112.76 5.69978 112.17 5.77978 112.39 5.86978C112.61 5.95978 112.85 5.99978 113.08 5.99978ZM110.38 5.99978C110.85 5.99978 111.31 6.10978 111.78 6.15978L111.07 5.95978C111.772 6.07502 112.467 6.23197 113.15 6.42978C112.205 6.51969 111.253 6.37187 110.38 5.99978V5.99978ZM109.9 6.19978L109.6 5.99978C109.753 6.05458 109.904 6.11801 110.05 6.18978H109.9H109.97C109.191 6.20499 108.413 6.26509 107.64 6.36978C108.38 6.31978 109.15 6.29978 109.9 6.22978V6.19978ZM87.63 15.0498C87.27 15.4998 87.82 15.5698 88.53 15.4598C89.1367 15.3127 89.7563 15.2257 90.38 15.1998C90.38 15.0698 90.57 14.8198 90.48 14.7198C90.39 14.6198 90.03 14.7198 88.9 14.9998C89.3619 14.7589 89.8699 14.6191 90.39 14.5898C90.61 14.5898 90.74 14.5898 91.18 14.0698C90.7363 14.2541 90.2781 14.4013 89.81 14.5098C89.39 14.6098 89.05 14.6298 88.97 14.6498C89.3192 14.5434 89.6629 14.4199 90 14.2798C89.5877 14.2303 89.1715 14.3335 88.83 14.5698C88.4726 14.8205 88.0618 14.9848 87.63 15.0498V15.0498ZM75.63 14.4598C75.16 14.3198 74.69 14.1498 74.22 13.9798C74.66 14.1498 75.1 14.3398 75.54 14.4798L75.63 14.4598ZM41.66 2.39978C41.0053 2.81231 40.2279 2.98545 39.46 2.88978C40.2023 2.76985 40.9369 2.60623 41.66 2.39978V2.39978ZM26.44 6.39978L28.07 5.99978C27.89 6.49978 26.65 6.46978 25.93 6.78978C25.61 6.65978 26.23 6.57978 26.44 6.36978V6.39978ZM16.31 10.3998L15.8 10.5498L16.47 10.6998L16.31 10.3998ZM17.2 10.5998C16.96 10.8898 18.04 10.5198 18.28 10.3998L17.2 10.5998ZM8.58 15.0998L9.18 14.7498H8.46L8.58 15.0998ZM9.36 14.2098C9.62 14.3598 9.72 14.6998 11.06 13.8198C11 13.5498 10.61 13.7498 10.99 13.1898C10.6159 13.3568 10.2634 13.5683 9.94 13.8198C10.28 13.6898 10.6 13.3998 10.77 13.5098C10.3499 13.8324 9.87098 14.0702 9.36 14.2098C9.29479 14.1772 9.22289 14.1603 9.15 14.1603C9.07711 14.1603 9.00521 14.1772 8.94 14.2098C9 14.2498 9.14 14.2598 9.36 14.2098V14.2098ZM14.44 11.3998C14.5833 11.3144 14.7145 11.2101 14.83 11.0898H14.94C14.8808 11.1696 14.8059 11.2365 14.7199 11.2864C14.6339 11.3362 14.5387 11.368 14.44 11.3798L13.77 11.7898C13.71 12.0798 14.77 11.7898 15.08 11.7898C14.5257 11.8745 13.9928 12.0646 13.51 12.3498C13.63 12.3498 13.57 12.4598 13.96 12.2698L13.12 12.7198C12 12.9198 12.89 12.3498 13.77 11.8298C13.77 11.7698 13.83 11.6898 13.98 11.5598C14.1178 11.4694 14.2758 11.4144 14.44 11.3998V11.3998ZM7.33 14.3998L7.82 14.2098C8.1 14.2098 7.99 14.3198 8.11 14.3398C7.56 14.5998 6.78 14.8398 7.33 14.3898V14.3998ZM36.64 2.84978C36.32 2.99978 37.16 3.06978 37.91 2.84978L37.58 3.26978C37.51 3.04978 35.99 3.43978 35.82 3.46978C35.47 3.21978 36.09 3.19978 36.64 2.84978ZM70.87 12.3698C70.94 12.8998 72.87 13.4498 73.27 13.6898C72.25 13.4398 70.05 12.5198 70.87 12.3698ZM74.12 13.5298C74.63 13.7098 74.79 13.7198 74.67 13.8998C74.89 14.0798 75.33 14.1098 75.56 14.2598C74.49 14.1298 74.67 13.7998 74.12 13.5298C73.9634 13.4709 73.8099 13.4041 73.66 13.3298C73.8177 13.3858 73.9714 13.4526 74.12 13.5298V13.5298ZM55.2 3.61978L54.62 3.05978C54.26 2.91978 53.88 2.81978 53.51 2.69978C54.09 2.99978 54.65 3.29978 55.2 3.61978ZM43 0.999782C43.1 1.16978 41.77 1.28978 41.48 1.23978C41.59 1.45978 42.48 1.33978 43.2 1.31978C43.3564 1.33187 43.5136 1.33187 43.67 1.31978C43.5135 1.30946 43.3565 1.30946 43.2 1.31978C42.93 1.31978 43.1 1.14978 43.1 1.05978L43.44 0.999782H42.44H43ZM21.89 6.50978C21.5075 6.79747 21.0618 6.98948 20.59 7.06978C20.9795 6.7945 21.4224 6.60375 21.89 6.50978V6.50978ZM49.74 1.21978C48.37 1.09978 50.32 1.68978 49.42 1.64978L50.12 1.74978C48.94 1.79978 49.36 1.31978 48.54 1.27978H49.09C49.55 1.10978 48.28 0.989782 48.2 0.809782C48.86 0.809782 50.29 1.27978 49.74 1.21978ZM20.67 6.80978C19.53 7.51978 19.57 6.98978 18.81 7.24978C19.71 6.65978 19.73 7.11978 20.67 6.80978ZM41 0.329782H41.08L40 0.299782L39.92 0.359782C40.27 0.349782 40.64 0.329782 41 0.329782Z" fill="white"/>
</svg>
