<svg id="Capa_1" data-name="Capa 1" xmlns="http://www.w3.org/2000/svg" viewBox="0 0 329.07 70.99"><defs><style>.cls-1{fill:#ededed;}</style></defs><path class="cls-1" d="M261.48,28.39l1.19.22C261.53,28.46,261,28.38,261.48,28.39Z"/><path class="cls-1" d="M277.39,30.88c-4.12-.58-10.64-1.51-14.72-2.27C266.33,29.07,276.22,30.16,277.39,30.88Z"/><path class="cls-1" d="M260.87,27.42l5.1.88A43.37,43.37,0,0,1,260.87,27.42Z"/><polygon class="cls-1" points="262.67 28.18 262.37 28.34 259.67 27.77 262.67 28.18"/><path class="cls-1" d="M3.87,32.76c.26-.31.49-.45.48-.23A5.24,5.24,0,0,0,3.87,32.76Z"/><path class="cls-1" d="M7.38,41.49c.79.71,1.38,1.16,1.89,1.54A15,15,0,0,1,7.38,41.49Z"/><path class="cls-1" d="M11.81,27.08,10,28C10.55,27.72,11.19,27.38,11.81,27.08Z"/><path class="cls-1" d="M142.76,16.22l5.25.65A15.71,15.71,0,0,1,142.76,16.22Z"/><path class="cls-1" d="M57.71,63l.54-.06C58.79,63.06,59.05,63.18,57.71,63Z"/><path class="cls-1" d="M8.06,45.37c0-.11.14-.09.35,0l.5.41Z"/><path class="cls-1" d="M19.36,23.72l.11,0,1.65-.43A7.35,7.35,0,0,1,19.36,23.72Z"/><path class="cls-1" d="M74.36,66a19.4,19.4,0,0,1,2,.66C74.79,66.32,74.06,66.05,74.36,66Z"/><path class="cls-1" d="M9.5,43.21l0,0L9.27,43Z"/><path class="cls-1" d="M2.76,28.79A9,9,0,0,0,.64,31.47,7,7,0,0,1,2.76,28.79Z"/><path class="cls-1" d="M142.76,16.22,141.1,16A9.08,9.08,0,0,1,142.76,16.22Z"/><path class="cls-1" d="M247.66,26.83a6.27,6.27,0,0,1-2.33-.55C246.23,26.46,247,26.64,247.66,26.83Z"/><path class="cls-1" d="M327.21,4.12c.12-.18.26-.35.37-.54A4.82,4.82,0,0,1,327.21,4.12Z"/><path class="cls-1" d="M278.09,43.13a7,7,0,0,1-.81.24C277.75,43.11,278.06,43,278.09,43.13Z"/><path class="cls-1" d="M223.09,64.59c2-.51,4.16-.89,6.22-1.2,1-.17,2-.3,3-.48s1.92-.37,2.82-.57l-1.27.09,3.65-.69-.11-.27c6-1.26,13.22-3.7,15.49-4l-.83-.21c2.1-.56,4.23-1,6.31-1.67-1.2.34-2.43.59-3.64.88.87-.3,1.8-.57,2.75-.91l2.91-1c2-.72,4-1.35,5.81-2.06,3.63-1.41,6.6-2.54,7.32-2.84l-.68.1c1.07-.54,2-.87,3.12-1.34l-1,.18c2.51-1.16,4.54-2.13,6.35-3l4.94-2.77,2.45-1.38,2.66-1.57c1.87-1.11,4-2.4,6.63-4,1.39-1,1-.72.23-.25a16.74,16.74,0,0,1-2,1.09c1.45-1.14,5.12-3.38,5.93-3.86-1,.28-5.24,3.24-2.16.78,2.41-1.42-1.75.81,2.3-2l1.86-.71c2.11-1.74.22-.62,3.64-3.25,4-2.93-4.36,4.24,1.9-.7a48.22,48.22,0,0,0,4.64-4.81c1.71-1.93,3.72-4.19,6.41-6.95,2.12-2.57,1.38-2,.9-1.73s-.66.47,2.3-3l-2,2.14c-.67.71-1.37,1.38-2.06,2.07a11.23,11.23,0,0,0,.71-1.15c.25-.37.73-.95,2-2.43a31.3,31.3,0,0,0,3.94-4.3c-2.72,3.3-1.71,1.7-.66.07s2-3.4-.47-.33l1.71-2.39c-.23.29-.32.34-.24.16.74-1.06,1.4-2.18,2.1-3.27-1.33,2-4.69,6.59-3.47,4.22,1.08-1.53,2.06-3.11,3-4.7-1,1.1,0-.68-.4-.52A90.48,90.48,0,0,1,318,12.66c.55-.36,2.21-2,1.75-1.28-2.8,3.36-2.59,2.46-5.3,5.55.49-.37,1-.75,1.43-1.13-.28.17-.7.57-.1-.1.89-1.14,1.45-1.47,1.56-1.39a17.3,17.3,0,0,1-2.34,2.6,28.58,28.58,0,0,1-2.56,2.16c-3.92,3.62-.47,1.12-1.28,2-.59.38-1.31.93-2.11,1.57l-2.54,2.12a50.73,50.73,0,0,1-5,3.86c.65-.32,1.27-.68,1.9-1A45.46,45.46,0,0,1,295,33.35l.92-.29c-2.41,1.53-4.14,2.81-5.78,3.9a28.72,28.72,0,0,1-2.51,1.46,16.45,16.45,0,0,1-2.88,1.1l.62-.13c-1,.58-2.3,1.33-3.59,2-.64.35-1.29.7-1.91,1a16.55,16.55,0,0,1-1.77.7c0,.12-.3.41-1.15.84a10.23,10.23,0,0,0-2.58,1c-1.08.53-2.38,1.26-4,1.92,2.17-.79,1.67-.1,3.92-1a14.65,14.65,0,0,1-4.65,1.94,21.64,21.64,0,0,0-4.22,1.29c-2.41,1.25,2.33-.69,3-.78-1.64.59-3.24,1.34-4.85,2l-4.68,2a29.44,29.44,0,0,1-8,2.47l2.76-1.17c-2.7.65-4.12,1.1-3.78,1.08a4.29,4.29,0,0,1,1.48-.32c-7.87,2.94-12.75,3-20.92,5,.65.06,1.84-.18,1.92-.05-3.77,1-3.89-.07-10,1.5.42,0,.83,0,1.24,0a7.84,7.84,0,0,1-3.34.37c0,.38-3.29,1-7.09,1.57a78.1,78.1,0,0,0-10.26,1.94c-1.56,0-4.53.16-7.45.31s-5.8.4-7.13.64c-1.91.36-1.05.43.12.46s2.64,0,1.94.28c-3,.3-4.65-.07-9.14.41-.1-.42,8.83-1.48.35-1.13l-1.17.31c.88-.09,2.08-.26,3.31-.29,2.46.08-1.45.38-2,.54-3,.19-6.07.24-9.1.37-.69-.42,4.76-.59,5.31-.73-7.18.5-15.84,1.43-22.56,1.23l.64.15c-8.56-.27-5,.9-11.81.19-3.6.11,1.3.49-4.14.5-1.53,0-.63-.17-.36-.22-6.67-.26-2.94.41-9.1-.14l1.32.52c-7.34-.48-15-1.65-21.32-1.82.35.41,4.27.57,5.82.93-8.55-1-20.57-1.41-28.42-2.68,2.39,0-3.65-1.14,1.42-.83,1.25.63,3.66.53,6.36.85a23.36,23.36,0,0,0-4.69-.83c-1.93-.22-4.12-.41-6.22-.57-4.19-.37-8-.71-8.61-1.27l-1.2.2c-1.19-.23-4.2-1-2.08-.76-2.89-.33-5.76-.76-8.65-1.16,1.49.39,3.8,1,6,1.52a27.06,27.06,0,0,0,5.34.8c2.41.76-3.58-.27-1.47.5-5.7-1.46-3.6-.26-9.57-1.39,1.4,0-.06-.46-1.82-.92a23.52,23.52,0,0,1-3.67-1.08,60.23,60.23,0,0,1-7.86-1.93c-3.4-.78-11.34-2.13-16.65-3.9,2,.77,5.17,1.82,4.85,2.09C36.88,55,34,54.14,33.37,54.37,38,56.09,38.82,56,39.53,56s1.31-.19,5.58,1a46.79,46.79,0,0,0,8.82,2.66c-2.09-.18-1.21.12-2.12.25-5.27-2.1-14.24-3.23-21.09-6a7.22,7.22,0,0,1-2.1-1.28,9.85,9.85,0,0,0-1.43-.79c-.73-.34-1.79-.8-3.38-1.46,1.87.64,3.75,1.25,5.66,1.78C26.34,51.25,26,51,25.83,50.83s-.22-.36-2.67-1.43c.6.38,1.23.73,1.85,1.09a25.77,25.77,0,0,1-5.67-2.71c.76.53,1.53,1.08,2.31,1.6-.82-.34-2-.84-2.91-1.31s-1.64-.91-1.59-1c-.46-.1-.64-.11-.68,0a26,26,0,0,0-2.75-1.72c1,.69,1.78,1.07,1.73,1.21-3.38-2-3.78-2.26-3.94-2.18s0,.39-2-1.07c.57.53-.67-.14-2.09-1.21.33-.29-1.62-1.86-3.06-4a6.07,6.07,0,0,1-1.19-3.22,3.1,3.1,0,0,1,.69-2.07l0,0a10.88,10.88,0,0,1,4.54-3.47C7.21,29.9,8.34,29,10,28l-.27.14c1.82-1-2.64.35,3.14-2.19,1-.4,2.09-.74,3.14-1.08-.56.19-.07-.12.2-.29,1.09-.33,2.18-.68,3.29-.95a26.93,26.93,0,0,1,7.36-2.16c2.56-.45,5.25-.79,8.27-1.45-1.75.34-4.43.8-3.33.36a22.23,22.23,0,0,1,3.91-.57l-.32,0c3.91-.46,7.85-.8,11.79-1-1-.21-7.57.61-4.66-.05,1.7-.57,5.13-.55,7.25-.72-.25.23-4.14.78-.18.5.47-.14,4.21-.71,2.42-.68l7-.39c2.43-.13,4.83-.12,6.65-.08,1.14-.16-.67-.13-1.28-.11l-.28.07c-2.45.07-.42-.52-5.2.08-.46-.67,6.91-.67,11.11-1H63.19c2.81-.41,5.89-.72,9.08-1,1.6-.14,3.24-.22,4.88-.26l5-.12c6.65-.2,13.29,0,18.91,0-3.29.25-6.05.09-5.65.6,7,.17,6.06,0,13,.18l-.6,0c3.6-.21,8.51.32,10.87-.08-1.54-.33-5.11.2-5.18-.38l4.39.07,4.38.16c-2.75-.47-8.77-.23-12.12-.34-2.42,0,4.85.13,3.7.49a99.52,99.52,0,0,1-14.09-1c-2.47-.34,3.58-.48,5.11-.44a200,200,0,0,0,21,1l4.48-.29c4,.51,2.27,1.25,9.53,1.51L137.69,16c1.59,0,2.64,0,3.41,0l-9.28-1.21a41.59,41.59,0,0,1,8.25.35l9.68,1.07c-.31-.1-2.43-.28-3.05-.48,4.53.23,9.16.71,13.52,1.2s8.45,1.13,11.94,1.47c3,0-5.79-.69-4.31-1,3.66.48,7.84.45,8.79.95-1.56-.72,8.43.79,1.46-.43,13.26,1,27.75,3.19,41,5.16-.62-.25-.61-.39,0-.43a130.88,130.88,0,0,1-13.59-2.2c3,.07,7,1.23,7.85,1.17-1.5-.33-4.51-.69-4.53-1,3.91.15,6,.86,8.73,1.24l-1.49,0c8.43,1.42,4.55,1.56,13.56,2.56,3.3.08,0-.29,0-.71,2.1.42,9,.88,11.12,1.63l-5.44-.7c3.79.63,7.39,1.12,10,1.62a3.88,3.88,0,0,0-1.27-.39c3,.54,6.89,1,8.4,1.54l.91-.33a51.6,51.6,0,0,1-8.1-1.13c.57-.33,6,.66,8.38,1-10.51-1.59-10.55-2.28-19.51-3.21l1.48.34c-5.59-.39-11.25-1.68-16.12-2.3,1.39.08,1.68,0,1.05-.2-5.41-.49-10.76-1.12-16.3-1.77S193,18.48,186.81,18l-3.67-.82-.26.32c-6-.45-1.26-.61-5.15-1,1.48.15,1.21.18,1.5.29-7-1.07-3.92,0-7.84-.5,1.84.51,7.57.8,5.77,1.12-6.95-1-17.84-1.73-18.81-2.57-13-.72-29.14-1.88-40.11-2.25-1.5.11.93.13.35.24-4.33-.54-14.55.17-14.62-.26a15.67,15.67,0,0,0-3.54.58C97.65,13,94.31,13,90.78,13l2.59.08-.29.06L89.41,13l.14,0c-4.4.08-9.15.28-13.79.41s-9.17.46-13.18.48c4.61,0-1.12.59,1.06.61a35.94,35.94,0,0,0-4-.12c-1.61.06-3.45.18-5.41.33C50.3,15,45.9,15.35,42,15.89c.05.14-.55.32.39.32-1.53.09-3.06.2-4.6.32l.63.09c-4.07.62-8.36,1.21-12.28,2a50.28,50.28,0,0,0-10,2.87c3.25-1.09,3.33-.88,3.72-.79a71.13,71.13,0,0,0-8.37,3.13c-.7.3-1.39.64-2.1,1s-1.41.7-2.12,1.09a20.85,20.85,0,0,0-4.47,2.9c.34-.27.58-.4.62-.37A12.43,12.43,0,0,0,1.09,31,7,7,0,0,0,0,34.67c.12.11.23.22.35.31a7.66,7.66,0,0,0,1,3.3A13.65,13.65,0,0,0,3.42,41a30.63,30.63,0,0,0,2.49,2.26c.82.73,1.68,1.4,2.5,2.1.79.35,2.87,1.89,5.42,3.48a48.25,48.25,0,0,0,7.86,4c1.7.8-3.6-2,1.23.11.21.47,1.79,1.12,3.35,1.69s3.09,1.08,3.16,1.54c1.49.37,3,.73,4.47,1.06l.86.66c3.93.31,5.62,1.87,11.28,2.92-.28-.15-.87-.32-.57-.31,1.78.52,6,1.49,2.67,1l7.13,1.54c2.36.45,3.78.65,1.53,0,.28.31-3.87-.75-5.66-1.21.31-.3,4.77.81,6,.63.14.06.73.23,1.15.37l.68-.09C64.49,64.27,70.3,64.89,74.36,66a15.36,15.36,0,0,1,3.21.3l0,.43,6.06.77-2.76-1c6.65.73,11.26,1.87,16.72,2.49.74-.3,3.4,0,6.49.31a60.11,60.11,0,0,0,9,.42c-1.42-.13-2.85-.3-4.27-.45,9.15.67,10.62.3,19.15.81L110.09,70c10.61.34,18.31,1.25,28,1-.64-.17-3.08-.32-.7-.46,1.89.42,9.14,0,7.7.46,3-.13,3.54-.56,5.38-.62,3.37.17,6.74.25,10.12.37l-.31-.08c8.58-.71,16.6-.85,24.64-1.21,4-.13,8-.42,12.14-.69,2-.18,4.11-.4,6.2-.63s4.2-.53,6.33-.89l-.36-.18,4.35-.27c-3.41.24,1.41-.48,1.64-.74l5.52-.68,2.76-.35,2.75-.43C226.47,64.29,225.75,64,223.09,64.59ZM77.9,66.25c-.87-.12-1.73-.24-2.59-.39a13.06,13.06,0,0,1-1.65-.26l1.65.26C76.65,66,77.65,66,77.9,66.25ZM152,14.65c1.24.28-1.81-.07-2.68-.1l4.24.35C154.12,14.82,152.59,14.72,152,14.65ZM78.12,63.51l1.47-.09,1.82.46Zm36.77,3.35-3.66-.36.31,0,3.63.36Zm41.08,3-.71,0c.23,0,.48,0,.71,0,2.86.15,4-.38,6.32.07A20.72,20.72,0,0,1,156,69.81Zm-65.1-2.48c-1.23-.18-1.83-.28-2.73-.35.62.24,3.07.76,1.25.62-1.24-.34-5.46-.86-5.48-1.15C87.55,67.16,90.22,66.67,90.87,67.33ZM7,44.05l.79.55C6.86,43.87,6,43,5.18,42.26ZM3.2,29.1a60.22,60.22,0,0,1,9.18-4.89c.7-.63-2.68.34-6.17,2.43-2.16,1.13-2.46,1.66-2.46,1.79S4.05,28.5,3.2,29.1ZM119.32,68.83l-.92-.29h.88l-3.65-.34a76.54,76.54,0,0,1,10.68.85C124.16,69,118.33,68.11,119.32,68.83Zm-84-51.12c3.39-.33,9.47-.77,9-.44.16-.52-4.73-.14-6.24.09C37.13,17.51,36.5,17.58,35.3,17.71Zm0,.92c-4.87.59-5.24.45-9,.84,4.73-1.28,6.17-.82,5.64-.49a22.74,22.74,0,0,0,4.45-.89ZM30,18.19l-2,.47c-2.29.72-2.64,1.33-6,1.69,2-.63,4-1.18,6-1.69C28.55,18.51,29.19,18.35,30,18.19Zm41.05-4.38-2,0c2-.12,2.22-.06,2,0l1.68,0C68.38,14.3,70.61,14,71.05,13.81Zm-31.31,3c-1.92.24-3.84.49-5.76.8C34.35,17.74,37.91,17.06,39.74,16.78Zm30-2.46c-2.43.2-8.77.69-7.89.6C62.45,14.62,68.23,14.29,69.78,14.32Zm127.31,5.39-3.61-.43,1.78-.14Zm-42.55-3.64.91-.11,2.11.17ZM115.2,14.32c.19-.07.09-.16-.24-.25a7.86,7.86,0,0,1-1.37-.15,6,6,0,0,1,1.37.15c1.58.09,3.93.08,5,0-.63-.2-3.06-.23-4-.33,3.62-.38,11.67,1.15,9.4-.1,1.52.19,6.73.66,4.92.8-2.06-.1-5-.18-7.91-.22l-4.07,0c-1.24,0-2.32.06-3.1.1a4.44,4.44,0,0,1-1.24.11A12.09,12.09,0,0,1,115.2,14.32ZM62.18,16c-1.49.08-2.14.07-2.43.07-1.28,0-2.26,0-1.9-.19,3.11-.16,1.14.16,1.9.19S61.38,16.08,62.18,16Zm-9.34.91,4.87-.25H55.24c2.45-.08,4.9-.19,7.35-.17-2.09.23-4.35.43-6.18.51A16.5,16.5,0,0,1,52.84,16.94Zm-1.68.39-1-.18,1.56.13-.53,0,.24,0c-2.73.22-5.46.39-8.18.67C45.86,17.75,48.52,17.56,51.16,17.33ZM24.09,51.91c1.61.1-.05-.66-2.18-1.71a31.31,31.31,0,0,1-5.34-3c-.23.06-1.07-.17-1,.06s1,1,4.68,2.67a18.65,18.65,0,0,1-4.66-2.44,9.39,9.39,0,0,0-2.88-1.37c2.84,1.71,6.33,3.68,6.87,3.93-1.2-.52-2.36-1.12-3.53-1.71C17.76,49.93,21.61,50.75,24.09,51.91ZM64.94,62l5.07.87L65.22,62Zm126.6,4c-.38-.2,6.17-1.16,7.77-1C196,65.57,192.37,65.8,191.54,66.07ZM245.2,56.8l-5.62,1.34c.95-.77,5-1.34,7.56-2.14C248.12,56,246,56.4,245.2,56.8Zm35.07-13.3,1.66-.79-1.93.45Zm-2.58.46c.94-.69-2.66.87-3.48,1.29ZM306.05,26c-.61.51-1.24,1-1.87,1.49.67-.32,1.34-.63,2-1Zm-2.7,2.74c-.65.07-.67-.37-5.06,2.94,0,.41,1.24-.44-.23,1a31,31,0,0,0,3.41-2.48c-1,.68-2.15,1.64-2.56,1.63,1.62-1.26,3.36-2.46,4.44-3.13a2.78,2.78,0,0,0,1.14-.53C304.42,28.16,304,28.37,303.35,28.76ZM286.69,39.83c-.62.38-1.16.72-1.39.9l-.34.08a7,7,0,0,1,1.73-1c.7-.4,1.49-.89,2.3-1.41.19-.27-.56,0-1.47.42s-2,.85-2.5,1c.81-.39,1.6-.7,2.43-1.07a22.55,22.55,0,0,0,2.68-1.54c-.32.08-.09-.12-1.39.63.94-.56,1.88-1.12,2.8-1.72,3.42-1.62.45.4-2.55,2.26a3.46,3.46,0,0,1-.81.7A7.28,7.28,0,0,1,286.69,39.83Zm22.38-14.29-1.47,1.08c-.79.49-.4,0-.71.17C308.58,25.5,310.8,23.83,309.07,25.54ZM208.85,64.72c1.18-.27-1.62-.17-4.29.23l1.37-.59c.1.27,5.48-.52,6.09-.58C213,64,210.9,64.16,208.85,64.72ZM82.63,65c-.91-.65-7.82-1.23-9.31-1.63C76.89,63.78,85,64.64,82.63,65ZM70.7,63.51c-1.88-.29-2.42-.36-2.18-.58-.89-.26-2.39-.37-3.29-.63,3.68.36,3.38.77,5.47,1.21l1.73.28C71.68,63.69,71.15,63.6,70.7,63.51Zm73.73,5.22,2.52.39,3.94-.06ZM186.76,68c-.17-.11.88-.23,2.08-.34s2.57-.22,3-.21c-.31-.28-3.33.07-5.74.18-.31,0-.82,0-1.59.07l1.59-.07c.91,0,.29.2.3.31l-1.2.17,3.35-.16Zm73.16-14a26.44,26.44,0,0,1,4.56-1.72A34.65,34.65,0,0,1,259.92,54ZM164.34,69.41c4.55-.3-2.21-.37.78-.62l-2.39.11c3.86-.44,2.78.25,5.5.07l-1.82.12c-1.44.33,2.8.1,3.15.31C167.43,69.59,162.52,69.53,164.34,69.41ZM264,52.72c4.13-1.91,3.58-1.12,6.16-2.1C266.93,52.22,267.25,51.59,264,52.72ZM193.1,68.6l-.28.08,3.67-.17.29-.08Z"/><path class="cls-1" d="M268.13,47.86c1-.45,1.69-.73,2.25-.94C269.67,47.23,268.93,47.55,268.13,47.86Z"/><path class="cls-1" d="M60.19,59.64a2.85,2.85,0,0,1-1,0A3,3,0,0,1,60.19,59.64Z"/><path class="cls-1" d="M51.63,57.74l-.33-.07L51,57.59Z"/><path class="cls-1" d="M245,26.84c1.82.61-1.81-.19-3.32-.39A19.17,19.17,0,0,1,245,26.84Z"/><path class="cls-1" d="M233.24,24.64c.88.22,2.13.47,3.68.71A31,31,0,0,1,233.24,24.64Z"/><path class="cls-1" d="M242.86,26.1c-2.31-.24-4.32-.5-5.94-.75C238.44,25.54,239.74,25.58,242.86,26.1Z"/><path class="cls-1" d="M201.34,20.8a30.36,30.36,0,0,0,3.41.52l2,.21c-7.82-.71,1.53.59,2.15.86A47.87,47.87,0,0,1,201.34,20.8Z"/><path class="cls-1" d="M191,19.54c.8.08,1.57.16,2.17.2C192.42,19.71,191.71,19.63,191,19.54Z"/><path class="cls-1" d="M188.09,19.46a26.32,26.32,0,0,1-4.85-1A71.24,71.24,0,0,1,191,19.54C189.1,19.34,187.23,19.14,188.09,19.46Z"/><path class="cls-1" d="M104.5,15.87a9.46,9.46,0,0,1,2.17.19c-1.52,0-3,0-4.54,0C100.31,16,103.59,15.86,104.5,15.87Z"/><path class="cls-1" d="M87.74,15.42c-3.63.12-1.73.41-3.57.4l.19-.49Z"/><path class="cls-1" d="M89.7,12.92l1.08,0H89.55Z"/><path class="cls-1" d="M70.31,16.7l2.53.36C69.8,17.13,69.73,16.71,70.31,16.7Z"/><polygon class="cls-1" points="56.54 18.08 58.67 18.05 52.04 18.53 56.54 18.08"/><path class="cls-1" d="M40,19.57l-.57.2c-1.51.15-3,.33-4.51.53C36.56,20,38.26,19.79,40,19.57Z"/><path class="cls-1" d="M132.06,67.06c.68.46-6.6.12-8.72.13C124.81,66.7,129.14,67.56,132.06,67.06Z"/><path class="cls-1" d="M262.35,50.38l-6.56,2.25C260.79,50.66,257.2,52.13,262.35,50.38Z"/></svg>