<svg id="Capa_1" data-name="Capa 1" xmlns="http://www.w3.org/2000/svg" viewBox="0 0 233.1 150.57"><defs><style>.cls-1{fill:#ededed;}</style></defs><path class="cls-1" d="M3.4,77.86c-.07-.21-.17-.55-.25-.82C3.45,77.8,3.58,78.17,3.4,77.86Z"/><path class="cls-1" d="M0,67C.44,68.4,1,70.22,1.51,72s1.23,3.59,1.64,5c-.25-.6-.59-1.47-1-2.43A29.1,29.1,0,0,1,1,71.51,16.62,16.62,0,0,1,0,67Z"/><path class="cls-1" d="M2.79,78.68c-.42-1.16-.77-2.35-1.15-3.52A26.55,26.55,0,0,1,2.79,78.68Z"/><path class="cls-1" d="M2.77,77.24l.26.11a17.69,17.69,0,0,0,.57,1.88A20.36,20.36,0,0,1,2.77,77.24Z"/><path class="cls-1" d="M162,144.49c-.39,0-.63-.09-.48-.24Z"/><path class="cls-1" d="M170.47,143.83l1.71-.34C171.67,143.62,171.24,143.7,170.47,143.83Z"/><path class="cls-1" d="M154.47,145.59l1.48-.21A14.25,14.25,0,0,1,154.47,145.59Z"/><path class="cls-1" d="M62.56,135.06c-1.22-.7-2.39-1.31-3.23-1.86A8.48,8.48,0,0,1,62.56,135.06Z"/><path class="cls-1" d="M207.41,130.76l.19-.35C208,130.21,208.18,130.14,207.41,130.76Z"/><path class="cls-1" d="M173.05,146c-.06-.08,0-.16.15-.25l.44-.06Z"/><path class="cls-1" d="M148.59,146.49l-.08,0h-1.23A4.17,4.17,0,0,1,148.59,146.49Z"/><path class="cls-1" d="M216.5,122.39a10.81,10.81,0,0,1,1.25-1C216.93,122.3,216.45,122.63,216.5,122.39Z"/><path class="cls-1" d="M172.38,143.45h0l-.22,0Z"/><path class="cls-1" d="M160.81,148.08l2-.21A9,9,0,0,1,160.81,148.08Z"/><path class="cls-1" d="M62.56,135.06l1,.59A4.54,4.54,0,0,1,62.56,135.06Z"/><path class="cls-1" d="M7.93,86.59a3.56,3.56,0,0,1,.59,1.6A12.13,12.13,0,0,1,7.93,86.59Z"/><path class="cls-1" d="M128.67,5.41l-.45.11Z"/><path class="cls-1" d="M172.89,6.23a5.12,5.12,0,0,1,.53.28C173.05,6.45,172.86,6.32,172.89,6.23Z"/><path class="cls-1" d="M211.05,23.25a34.33,34.33,0,0,1-3.39-3.09c-.54-.53-1-1.08-1.57-1.58s-1.08-.91-1.61-1.32l.61.7-2-1.75-.15.25c-.44-.35-.88-.7-1.34-1.05l-.69-.53-.74-.47-2.85-1.81c-.91-.55-1.7-1.13-2.41-1.53A9.42,9.42,0,0,1,193.33,10l.24.64-4-2.51,2.23,1.53c-2.3-1.29-5.35-2.56-7.88-3.77S179.22,4,178.69,3.83l.4.31a19.3,19.3,0,0,1-2.29-.85c.2.14.4.28.59.44-1.89-.57-3.47-1-4.88-1.29-.7-.17-1.36-.35-2-.46l-2-.31c-1.3-.2-2.63-.41-4.16-.7s-3.32-.41-5.5-.74c-2.38-.23,1.32.24,1.34.38a19.49,19.49,0,0,1-2.75-.25c-1-.09-1.94-.21-2.27-.28.67.41,4.36.51,1.54.67-2-.3,1.32.43-2.15.18L153.24.35a3.11,3.11,0,0,0-1.31.16,10.69,10.69,0,0,1-2.15.11C146.26.48,154.09,0,148.41,0a18.18,18.18,0,0,0-2.22.25c-.77.13-1.59.25-2.49.49s-1.88.43-3,.6c-.55.09-1.12.17-1.73.23l-.94.09-1,.13c-4.6,1.07,2.55.36-3.86,1.34l4.13-.38a7.24,7.24,0,0,1-3.09.83,14.24,14.24,0,0,0-4.12.37c5.92-1.1-5,1.86.56,1l-2,.49c.26,0,.33,0,.21.06l-2.66.71c1.68-.31,5.59-1.26,3.86-.43l-3.81,1.06c1.1,0-.27.48,0,.64l5.65-1.16c1.9-.31,3.81-.49,5.71-.75-.47-.09-2.12.09-1.54-.19,3-.69,2.52-.11,5.37-.63l-1.3-.1c.24.06.65,0,0,.14-1,.24-1.46.11-1.48,0a15.79,15.79,0,0,1,4.8-.36c1.86-.23,2.06-.26,1.88-.42s-.73-.26-.32-.31c2,.46,6.31-.25,8.64.21l-1.49-.39a24.7,24.7,0,0,1,7.13.54l-.62-.33c2,.27,3.51.25,4.9.33a11,11,0,0,1,4,1.15l-.38-.24c.82.12,1.86.24,2.87.44a17.12,17.12,0,0,1,2.72.87c.06-.09.37-.14,1,0a5.16,5.16,0,0,0,1.84.67c.82.2,1.81.51,3,.87-1.5-.62-.87-.88-2.46-1.55,3.73.82,3.13,1.62,6.1,2.68.91.27.55,0-.09-.29a19.51,19.51,0,0,1-1.8-.83c.57.23,1.15.44,1.74.64l1.72.66c1.16.43,2.31.81,3.4,1.19a18.68,18.68,0,0,1,3,1.32,10.31,10.31,0,0,1,2.22,1.55l-2-.74c1.63,1.09,2.56,1.58,2.39,1.39a2.13,2.13,0,0,1-.86-.61c.67.3,1.31.57,1.89.9s1.11.69,1.62,1c1,.7,1.95,1.39,2.86,2.09s1.74,1.54,2.69,2.32,2,1.58,3.14,2.52c-.2-.44-.85-1-.79-1.12a6.78,6.78,0,0,1,2,2.14A12.56,12.56,0,0,0,208.41,26c-.16-.25-.33-.48-.5-.72a5.28,5.28,0,0,1,1.25,1.3c.24.35.33.57.25.52.3-.21,1.92,1.46,3.73,3.46.84,1.05,1.74,2.18,2.6,3.15.43.49.85.94,1.25,1.33a8.6,8.6,0,0,0,1,1c.2.51.59,1.21,1,2s.88,1.74,1.35,2.65.89,1.84,1.3,2.61.72,1.45,1,1.85c1.59,2.26-.58-2.39.24-1.67.94,1.94,1,3.12,2.34,6-.33.16-3.19-5.43-1.13.12l.5.69c-.24-.57-.61-1.32-.91-2.13-.44-1.67.68.83.91,1.17.34,1,.71,2,1,3s.62,2,.89,3.07c-.27.56-1.32-3.09-1.56-3.42,1.75,4.68,3.7,10.53,3.93,15.25l.1-.46a17.69,17.69,0,0,0,.6,4.57,7.51,7.51,0,0,1,0,3.69c.11,2.53.51-.92.49,2.92,0,1.08-.18.44-.23.24a21.27,21.27,0,0,0-.08,3.35,9,9,0,0,1-.38,3l.59-.88c-.87,5.17-2.85,10.26-4,14.53.43-.14,1.22-2.78,1.73-3.79-1.07,2.85-2.18,6.29-3.58,9.58a46.55,46.55,0,0,1-4.58,8.7c.58-1.58-2,1.86-.38-1.31a3.92,3.92,0,0,0,1.17-1.46c.35-.69.7-1.5,1.16-2.32-1.16,1.12-2.51,4-4.05,6.45s-3,4.67-3.69,4.73l-.23.85c-.56.63-2.24,2-1.32.83a55.17,55.17,0,0,1-4.08,4.43,18,18,0,0,0,1.6-1.14c.58-.46,1.25-.94,1.83-1.47a10.49,10.49,0,0,0,2.5-2.8c1.41-1.08-1.41,2.09-.07,1.21-3.23,2.62-1.48,2.08-4.66,5,1.08-1.65-3.65,2.25-3.71,1.85a17.93,17.93,0,0,1-2.33,1.71c-.94.56-1.87,1.07-2.41,1.34s-1.19.75-1.95,1.27-1.64,1.11-2.6,1.65a41,41,0,0,1-5.81,3c1.42-.46,3.63-1.32,3.63-.93-1.83.68-3.74,1.59-3.93,2.07,3.3-1.08,3.68-1.6,4-2s.51-.89,3.35-2.17a20.39,20.39,0,0,0,5.81-2.91c-1.06,1-.47.77-.79,1.38a31.92,31.92,0,0,0-3.07,1.46c-1.07.62-2.24,1.26-3.43,1.92a40.55,40.55,0,0,1-7.46,3.42,3.56,3.56,0,0,1-1.78.11,12.49,12.49,0,0,0-3.67.9c1.31-.52,2.56-1.16,3.84-1.73-2.11.94-2.39,1-2.58.93s-.32-.17-2.14.38l1.54-.19a16.6,16.6,0,0,1-4.32,1.18c.68,0,1.35-.07,2-.14-1.16.49-3.4,1.15-3.51.91-.27.2-.36.32-.34.4a12.75,12.75,0,0,0-2.26.5c.85-.17,1.44-.35,1.5-.22-5.49,1.29-1.14.86-4.56,1.63.57,0-.38.34-1.59.68-.07-.69-6.91.51-8.78.36h0c-1.57.12-3.14.28-4.71.37,1-.06,0,.27-1.39.52l.22,0c-1.48.29,1.88.61-2.64.91l-2.38,0c.42,0,0,.14-.19.22h-2.45a18.06,18.06,0,0,1-5.46.52,47.4,47.4,0,0,0-6,.15c1.27-.1,3.2-.13,2.39.13a12.54,12.54,0,0,1-2.81,0l.23.07c-2.8,0-5.6-.16-8.38-.3.67.25,5.36.23,3.27.53-1.24.34-3.65,0-5.15,0,.19-.18,3-.34.17-.47-.35.09-3,.24-1.76.41-2.87-.22-7-.56-9.56-1.06-.81,0,.46.21.88.25l.21,0c1.72.19.24.52,3.64.47.25.67-4.91,0-7.87-.21,1.56.25,3.13.57,4.71.78a54.58,54.58,0,0,1-6.47-.11c-2.26-.2-4.61-.48-6.93-.84C99,146,94.4,145,90.53,144.13c2.31.32,4.2.83,4,.28-2.41-.53-3.42-.87-4.47-1.08s-2.09-.42-4.44-1.1l.4.13a33.24,33.24,0,0,1-4-1,14.37,14.37,0,0,0-3.4-.82c1,.58,3.51.78,3.43,1.33l-5.93-1.8a59.87,59.87,0,0,0,8.2,2.46c1.66.39-3.3-.93-2.42-1.08a59.77,59.77,0,0,1,5.81,1.74c1.34.45,2.31.89,3.65,1.45,1.63.75-2.56-.14-3.62-.37-1.74-.7-3.88-1.49-6.3-2.22s-5.07-1.56-7.82-2.41L70.48,139c-2.52-1.41-1.14-1.64-5.91-3.47.43.3.85.6,1.29.87a15.75,15.75,0,0,1-2.27-.79c1.91,1.14,4.07,2.17,5.84,3.14a19.35,19.35,0,0,1-5.46-2.1l-6-3.33c.17.18,1.5.87,1.83,1.22-5.91-2.58-11.34-6.68-15.4-9.46-.93-.48-.13.18.82.84s2,1.42,1.46,1.34c-2.16-1.47-4.74-2.9-5.1-3.61.3.56-.94-.28-1.78-.86a4,4,0,0,0-.7-.48,8.53,8.53,0,0,0,1.32,1.24c-7.89-5.22-15.22-12.77-21-20.23.17.46.07.55-.28.32,1.06,1.21,2.29,2.77,3.47,4.15a31.18,31.18,0,0,1,2.7,3.43c-1.67-1.35-3.22-3.87-3.72-4.23.6.91,2.13,2.43,1.94,2.67-2.19-1.76-2.84-3.28-4.07-4.79l.8.71c-.92-1.21-1.47-2-1.84-2.61s-.53-1-.73-1.43a23.46,23.46,0,0,0-2.86-4.11c-1.59-1.72-.22.18-.54.46-.36-.67-1.32-2-2.27-3.26a13.32,13.32,0,0,1-2-3.5c.7,1.1,1.33,2.24,2.1,3.28-.75-1.13-1.35-2.32-2-3.37s-1.16-2-1.55-2.89a1.61,1.61,0,0,0,.27.91A44.46,44.46,0,0,1,6.3,83.6c-.23-.12-.47-.23-.68-.35a25,25,0,0,1,2.66,5.16c-.51-.14-2.14-3.72-2.92-5.24.81,1.71,1.44,3,1.9,4.07.24.54.44,1,.64,1.48L8.5,90c.39.8.78,1.56,1.29,2.46.25.45.54.93.87,1.47s.78,1.09,1.27,1.73l-.5-1c.64.78,1.23,1.59,1.79,2.42s1.09,1.69,1.66,2.48c1.14,1.6,2.15,3.24,3.3,4.56-.72-.68-1-.73-.73-.33,5.21,5.77,10.44,11.39,17.51,16.73l1.84,2,.33-.17C38.89,123.58,39,123.82,39,124s-.25.16.91,1c-.88-.61-.69-.54-.82-.74,3.93,3.18,2.48,1.34,4.75,3-.91-1.06-4.4-3.19-3.09-2.87,3.79,3.32,10.69,6.94,11,8,2.06,1.1,4.32,2.12,6.57,3.25,1.11.58,2.3,1.05,3.45,1.59s2.3,1.08,3.47,1.55c2.33.93,4.59,2,6.8,2.71l3.18,1.16c1,.35,2,.64,3,.93s-.61-.3-.18-.29a18.86,18.86,0,0,0,2.77,1c1.08.31,2.26.54,3.35.78s2.07.44,2.79.61,1.17.27,1.16.38a8.84,8.84,0,0,0,2.59,0,55.24,55.24,0,0,0,6.69,1.63l-1.8-.43.21,0,2.55.63h-.1c6.18,1.12,13.4,1.74,19.06,2.5-3.26-.43.85-.47-.68-.71,2.84.82,9.79,1.17,15.42.95,0-.14.4-.26-.26-.37,1.09.09,2.18.17,3.27.21l-.44-.15c5.82-.25,12.21,0,16-.67-2.39.13-2.41,0-2.67-.22,4.17-.31,8.08-.73,12.95-1.23-.26,0-.44,0-.45-.07,1.26-.24,2.81-.31,4.12-.46l.11-.36c2.5-.25,5.64-1.06,8.61-1.48a24.9,24.9,0,0,1,4.35-1.08,44.39,44.39,0,0,0,6-1.66c1.28-.34-2.86.55.66-.61.76.57,4.53-1.66,5.09-1l2.9-1.56c.27,0,.54,0,.82.05a9.59,9.59,0,0,1,3.25-1.75,18.46,18.46,0,0,0,4.24-2.11c-.23.05-.62.26-.47.1,1.19-.64,3.87-2.23,1.92-.79,1-.55,3-2,4.44-3s2.17-1.78.7-.89c.16,0-.39.47-1.15,1s-1.73,1.08-2.3,1.43c-.05-.38,2.79-2.15,3.18-3,.11,0,.49-.26.77-.41l.25-.46c3.51-2.3,6.3-5.56,8.65-7.56a7.29,7.29,0,0,1,1.36-1.92l.38.21c.9-1.18,1.81-2.38,2.63-3.62-.54.47-1.13.91-1.71,1.35,2.74-4,5-6.67,6.87-10.26a3.85,3.85,0,0,1,.48-1.67c.33-.77.74-1.74,1.21-2.77a24,24,0,0,0,2-6.26c-.38,1-.71,2-1.12,2.92.56-1.57.93-2.83,1.22-3.92s.47-2,.68-3c.34-1.84.68-3.61,1.25-6.67-.28,2.62-.49,3.93-.78,5.53-.13.81-.29,1.69-.52,2.83s-.52,2.57-1,4.47c1.07-3.74,1.89-7,2.56-10.19a45.72,45.72,0,0,0,1-10c-.17.47-.39,2.23-.47.49a17.28,17.28,0,0,0,.28-3.7c0-1.36,0-2.43.22-1.91-.2-2.19-.65-2.55-.76-3.88s0-2.46-.09-3.69-.12-2.46-.26-3.68l0,.23a148.24,148.24,0,0,0-5.06-17.23,61.67,61.67,0,0,0-3.67-8.1A42.82,42.82,0,0,0,218,30.44l0,.33-1.7-2.7c1.35,2.11-.85-.69-1.19-.64l-2.59-3.11c-.43-.52-.85-1.06-1.31-1.56l-1.42-1.44C209.47,21.35,209.53,22,211.05,23.25Zm6.92,97-1.24,1.46a7.19,7.19,0,0,1-.78.92l.78-.92C217.31,120.91,217.63,120.25,218,120.25Zm-162.16,14c-.72-.58,1.18.52,1.76.77l-2.7-1.39C54.44,133.54,55.42,134,55.81,134.25Zm159.93-15.61c.15-.32.27-.65.39-1l1-.92C216.64,117.37,216.21,118,215.74,118.64Zm11.45-23.13c-.26.82-.6,1.63-.89,2.44v-.23c.29-.8.63-1.59.87-2.41Zm4.33-28.91v.52c0-.17,0-.35,0-.52-.06-2.08-.68-2.81-.5-4.54A9.48,9.48,0,0,1,231.52,66.6Zm-8.69,45.53a17.34,17.34,0,0,0-1.06,1.69c.38-.31,1.52-1.75.9-.57-.6.72-2.35,3.27-2.61,3.14C221.83,114.34,222,112.26,222.83,112.13Zm-51,33.68.64-.18-2.41.32Zm-11.16,1.75a69.29,69.29,0,0,0-7.16.53c-.58.38,1.87.49,4.65.09C161.46,148,159.33,147.52,160.67,147.56Zm69-54.74c-.14.2-.25.4-.4.6,0-.21.08-.42.11-.62-.23.84-.53,1.66-.79,2.5a70.1,70.1,0,0,1,2-7.42C230.35,89.42,228.85,93.39,229.67,92.82Zm-92.91,56.67c-2.41-.1-6.73-.35-6.33-.61-.16.47,3.32.7,4.4.63A17.07,17.07,0,0,1,136.76,149.49Zm.09-.91a54.58,54.58,0,0,1,6.4.57c-3.43.42-4.4-.15-4-.43a9.8,9.8,0,0,0-3.2.26Zm3.67,1.2,1.41-.15c1.67-.32,2-.85,4.36-.49-1.45.2-2.9.32-4.36.49A10.7,10.7,0,0,1,140.52,149.78Zm-29.3-.46,1.42.28c-1.41-.13-1.57-.21-1.42-.28l-1.17-.23C113.16,149.16,111.55,149.2,111.22,149.32Zm22.35.58,4.11-.1C137.43,149.58,134.87,149.79,133.57,149.9ZM112.18,149l3.69.23c1.26,0,2.24.08,1.92.08a8.89,8.89,0,0,1-2.56,0C114,149.23,112.72,149.08,112.18,149Zm-82.49-33.7c.61.62,1.29,1.15,1.93,1.72l-1.18-.55Q30.05,115.87,29.69,115.27Zm25,17-.65-.14-1.3-.75C53.38,131.7,54,132,54.68,132.3Zm25.95,10.15c-.14,0-.1.14.1.29a4.82,4.82,0,0,1,.9.4,3,3,0,0,1-.9-.4,21.77,21.77,0,0,0-3.42-1c.38.29,2,.75,2.66,1.05a24.4,24.4,0,0,1-4.68-1.52c-1.43-.6-2.4-.94-1.81-.13-1-.48-4.39-2-3.11-1.74,1.37.5,3.38,1.17,5.32,1.78s3.85,1,4.94,1.22a2.28,2.28,0,0,1,.87.14A8,8,0,0,1,80.63,142.45Zm37.08,5.69a13.32,13.32,0,0,1,1.71.19c.91.13,1.59.29,1.32.43-2.2-.24-.79-.3-1.32-.43S118.28,148.18,117.71,148.14Zm6.64.18c-1.15-.11-2.3-.17-3.44-.31.58.11,1.15.22,1.73.31-1.73-.19-3.45-.47-5.17-.7a30.65,30.65,0,0,1,4.39.23A8.36,8.36,0,0,1,124.35,148.32Zm1.21-.2.71.29-1.08-.3h.37l-.16-.07c1.93.11,3.87.14,5.8.17C129.32,148.21,127.44,148.21,125.56,148.12Zm58.63-7.28c.88-.79-.4-.55-2-.11a20.88,20.88,0,0,1-4.27.91c-.14.37-2.12,1.49,3.31-.15-4.61,1.71-3.09.31-5.71,1.82,2.27-.6,5-1.25,5.45-1.32l-2.65.82a6.81,6.81,0,0,0,2.88-.75A17.22,17.22,0,0,1,184.19,140.84Zm25.61-15c.88-.83,1.76-1.67,2.61-2.54-.82.81-1.67,1.58-2.51,2.37Zm12.51-83c0,.17-.7-.73-1.37-1.81a12.68,12.68,0,0,1-1.53-2.88C220.71,40.12,221.87,42.42,222.31,42.86Zm-26-27.8c1.11.8,2.25,1.53,3.32,2.38-.91-.07-3-2-4.7-3C194.51,13.91,195.7,14.86,196.32,15.06ZM172,4.69l-1.24-.42,1.2.85Zm1.54,1.12c-.84,0,1.79.83,2.43,1ZM150.07,3a13.46,13.46,0,0,1,1.68,0,14,14,0,0,0-1.52-.47Zm2.69-.47c.39.34.2.77,4.08.75.19-.33-.87-.38.61-.71a24.79,24.79,0,0,0-3-.06c.87.1,1.92,0,2.14.25a19.32,19.32,0,0,1-3.84-.23,1.54,1.54,0,0,0-.86-.31C151.91,2.34,152.24,2.46,152.76,2.55Zm14.08,1.24a7.44,7.44,0,0,0,1.17.08l.22.13a3.42,3.42,0,0,1-1.39-.21L165,3.54c-.47.2,2.11.91,2.76,1.2a19.83,19.83,0,0,0-3.93-1c.21.12,0,.14,1,.34a19.82,19.82,0,0,0-2.3-.3c-1.28-.35-1.3-.49-.68-.51a19.41,19.41,0,0,1,3.12.23,2,2,0,0,1,.76,0A4.5,4.5,0,0,1,166.84,3.79ZM148.19,1.54l1.28.05c.66.1.24.22.47.3C148.44,1.9,146.47,1.75,148.19,1.54Zm68,30.7c-.6-.61.37,1.13,1.59,2.6-.3-.2-.64-.37-1-.56.2-.2-2.19-3.2-2.43-3.56C214.23,29.93,215,31.22,216.15,32.24Zm2.24,84.26c-.44.12-1.3,1.23-2.18,2.38a31.63,31.63,0,0,1-2.25,2.66C215.61,119.59,218.88,114.82,218.39,116.5Zm-5.24,6.77c-.9,1-1.19,1.27-1.27,1-.54.38-1.21,1.23-1.75,1.61,1.69-2,1.92-1.55,3-2.6l.87-.91C213.66,122.77,213.39,123,213.15,123.27ZM230.9,74.94c.13-.6.26-1.21.35-1.81-.06-.94-.1-1.88-.18-2.82C231,71.86,231,73.4,230.9,74.94Zm-5.69-29.58c-.1.3-1.5-2.63-1.71-3.28-.16.32.82,2.25,1.5,3.84a9.16,9.16,0,0,0,.41,1.07c-.11-.32-.25-.67-.41-1.07-.19-.62.13-.27.22-.31l.42.76c-.28-.75-.58-1.49-.92-2.23ZM187.88,8.43a13.29,13.29,0,0,1-3.22-1.34A17.81,17.81,0,0,1,187.88,8.43Zm42.48,52.24c-.86-3.17-.1,1.63-.71-.44.15.55.25,1.11.36,1.67-.83-2.66-.07-2-.57-3.9l.34,1.26c.5,1-.22-2-.11-2.29C230.18,58.43,230.69,61.94,230.36,60.67ZM185.13,7a12.47,12.47,0,0,1-2.57-1.12A6.78,6.78,0,0,0,180.92,5C183.47,5.62,182.93,6,185.13,7ZM224.22,40.8l.15.16c-.38-.81-.74-1.63-1.15-2.44l-.16-.15C223.49,39.16,223.83,40,224.22,40.8Z"/><path class="cls-1" d="M180.34,8.33a16.23,16.23,0,0,1-1.61-.56C179.24,7.94,179.78,8.12,180.34,8.33Z"/><path class="cls-1" d="M206.11,127.07c0,.1-.19.3-.46.54C205.65,127.55,205.76,127.4,206.11,127.07Z"/><path class="cls-1" d="M201.1,130.53l-.19.13-.17.08Z"/><path class="cls-1" d="M9.13,88.07c-.14-.68,0-.39.28.16s.7,1.37,1,1.82C9.84,89.14,9.4,88.92,9.13,88.07Z"/><path class="cls-1" d="M13.08,95.52a19.72,19.72,0,0,0-1.32-2.3A14.39,14.39,0,0,1,13.08,95.52Z"/><path class="cls-1" d="M9.53,89.62c.92,1.37,1.66,2.58,2.23,3.6C11.19,92.3,10.6,91.59,9.53,89.62Z"/><path class="cls-1" d="M27.86,112.71a20.39,20.39,0,0,0-1.66-1.77c-.56-.58-1-1-1-1a9.52,9.52,0,0,0,1.62,1.43c.15.06-.07-.18-.39-.59-.64-.81-1.8-2.16-1.9-2.38a21.19,21.19,0,0,1,2.09,2.53C27,111.47,27.26,111.91,27.86,112.71Z"/><path class="cls-1" d="M33.27,117.7c-.43-.37-.86-.72-1.2-1A9.89,9.89,0,0,1,33.27,117.7Z"/><path class="cls-1" d="M35,118.87a14,14,0,0,1,2.45,2.52,17.36,17.36,0,0,1-2.36-1.87c-.63-.61-1.16-1.24-1.81-1.82C34.32,118.58,35.32,119.46,35,118.87Z"/><path class="cls-1" d="M88.35,142.71c-.43-.11-1.45-.36-1.45-.51,1,.27,2.08.46,3.12.69C91.25,143.24,89,142.81,88.35,142.71Z"/><path class="cls-1" d="M99.81,145.58c2.54.39,1.27-.16,2.54.11l-.21.45Z"/><path class="cls-1" d="M98,147.78l-.74-.19.86.18Z"/><path class="cls-1" d="M112.11,146.55l-1.71-.67C112.52,146.18,112.52,146.61,112.11,146.55Z"/><path class="cls-1" d="M121.86,146.78l-1.49-.24c1.56.15,3.12.2,4.68.29Z"/><polygon class="cls-1" points="133.62 147.09 134.03 146.96 137.25 146.98 133.62 147.09"/><path class="cls-1" d="M229,83.61c.25-.22.18.93,0,2.33s-.48,3-.53,3.77a6.45,6.45,0,0,1,.25-2.67A10.67,10.67,0,0,0,229,83.61Z"/><path class="cls-1" d="M184.54,9.78l2.21,1a20.14,20.14,0,0,1,2.18,1.09,17.92,17.92,0,0,0-1.66-.73,4.31,4.31,0,0,1-.55-.26A17.38,17.38,0,0,0,184.54,9.78Z"/></svg>