<svg width="247" height="9" viewBox="0 0 247 9" fill="none" xmlns="http://www.w3.org/2000/svg">
<path d="M50.84 5.00022C49.17 5.17022 47.44 5.00022 45.98 5.00022L46.48 5.08022L45 5.00022V5.14022C42.57 5.14022 39.55 5.39022 38.66 5.14022L38.95 5.36022L36.37 5.26022L37.85 5.36022C34.95 5.50022 30.55 5.45022 29.93 5.47022L30.19 5.55022C29.744 5.58524 29.296 5.58524 28.85 5.55022L29.24 5.67022C24.87 5.76022 23.69 6.08022 18.82 6.10022C17.49 6.17022 19.55 6.10022 19.57 6.19022C18.6383 6.26903 17.7017 6.26903 16.77 6.19022C17.17 6.37022 19.22 6.25022 17.66 6.46022C16.55 6.39022 18.42 6.62022 16.47 6.64022L15.7 6.41022C14.62 6.48022 15.49 6.61022 13.78 6.64022C11.78 6.64022 16.16 6.28022 13.01 6.34022C11.43 6.40022 9.70999 7.02022 6.63999 6.98022C4.00999 7.19022 8.03999 7.33022 4.38999 7.37022L6.72999 7.47022C6.14863 7.65295 5.53729 7.72088 4.92999 7.67022C4.1553 7.55553 3.37313 7.49871 2.58999 7.50022C6.01999 7.59022 -0.410006 7.88022 2.78999 8.03022H1.59999C1.74999 8.03022 1.78999 8.03022 1.70999 8.08022L0.159994 8.28022C1.15999 8.28022 3.44999 8.28022 2.37999 8.48022L0.0999942 8.60022C0.709994 8.72022 -0.120006 8.80022 0.0199941 8.91022L6.74999 9.00022C6.47999 8.92022 5.50999 8.90022 5.86999 8.80022C7.65999 8.68022 7.33999 8.91022 9.01999 8.74022L8.26999 8.66022C8.40999 8.66022 8.63999 8.66022 8.26999 8.73022C7.67999 8.82022 7.41999 8.73022 7.40999 8.67022C8.33917 8.54558 9.28082 8.54558 10.21 8.67022C12.39 8.58022 10.65 8.40022 11.13 8.34022C12.27 8.54022 14.77 8.22022 16.13 8.34022L15.26 8.22022C16.6273 8.0235 18.0095 7.94987 19.39 8.00022L19 7.90022C21.31 7.85022 22.45 7.39022 24.22 7.79022L24 7.71022C25.0958 7.59263 26.1991 7.5592 27.3 7.61022C27.3 7.56022 27.48 7.49022 27.86 7.46022C28.8262 7.54703 29.7991 7.52354 30.76 7.39022C29.83 7.39022 30.12 7.13022 29.14 7.11022C31.29 6.81022 31.14 7.30022 32.94 7.24022C34.02 7.10022 31.94 7.15022 31.7 7.07022C34.5 7.07022 37.43 6.38022 39.21 6.77022L38 7.00022C38.5237 7.07887 39.0563 7.07887 39.58 7.00022C39.3794 7.04785 39.1705 7.04785 38.97 7.00022C42.32 6.67022 44.24 7.17022 47.63 7.00022C47.37 6.92022 46.89 6.91022 46.86 6.84022C48.42 6.70022 48.4 7.23022 50.86 6.98022L50.37 6.90022C51.21 6.81022 51.83 6.90022 51.72 6.97022C51.72 6.58022 57.06 6.82022 58.8 6.27022C60.751 6.45896 62.7141 6.48906 64.67 6.36022C66.26 6.00022 63.34 6.00022 63.91 5.80022C65.12 5.80022 65.76 5.96022 67.57 5.80022C67.57 6.01022 64.01 6.34022 67.42 6.36022L67.89 6.23022C67.54 6.23022 67.05 6.31022 66.56 6.30022C65.56 6.20022 67.15 6.14022 67.37 6.07022H71.03C71.3 6.29022 69.11 6.30022 68.89 6.36022C71.78 6.23022 75.25 5.79022 77.95 5.86022L77.69 5.79022C81.13 5.88022 79.69 5.31022 82.42 5.59022C83.86 5.49022 81.89 5.37022 84.07 5.29022C84.68 5.29022 84.33 5.36022 84.22 5.40022C86.89 5.40022 85.39 5.15022 87.86 5.28022L87.32 5.06022C90.32 5.13022 93.32 5.46022 95.9 5.28022C95.1208 5.1324 94.3322 5.03884 93.54 5.00022C97 5.23022 101.8 4.80022 104.99 4.88022C104.04 5.06022 106.51 5.20022 104.47 5.39022C103.618 5.26878 102.752 5.26878 101.9 5.39022C103.67 5.86022 109.26 4.91022 109.82 5.39022L110.28 5.19022C110.77 5.19022 112.01 5.31022 111.16 5.39022L114.66 5.17022C113.117 4.95317 111.555 4.8962 110 5.00022C109 4.84022 111.43 4.83022 110.54 4.63022C112.9 4.87022 111.98 4.46022 114.42 4.45022C113.32 4.75022 116.85 4.74022 116.74 4.87022C117.827 4.82233 118.916 4.84572 120 4.94022C121.4 4.94022 124.62 4.61022 126.89 4.64022C126.03 4.58022 124.67 4.51022 124.77 4.34022C125.617 4.45349 126.478 4.39223 127.3 4.16022C123.3 3.91022 126.04 4.65022 122.48 4.52022C121.258 4.31513 120.018 4.23805 118.78 4.29022C119.61 4.13022 119.24 4.09022 119.58 3.92022C121.84 4.33022 125.42 3.79022 128.36 3.92022C129.6 4.02022 128.68 4.35022 131.48 4.32022L129.08 4.53022C131.72 4.32022 129.7 4.65022 131.89 4.64022L131 4.53022C131.854 4.44325 132.716 4.44325 133.57 4.53022L132.43 4.32022C133.116 4.21521 133.814 4.21521 134.5 4.32022C134.69 4.26022 134.75 4.21022 134.75 4.17022C135.192 4.21507 135.638 4.21507 136.08 4.17022C135.58 4.17022 135.23 4.17022 135.21 4.17022C138.43 4.17022 135.96 3.89022 137.95 3.85022C137.63 3.80022 138.2 3.72022 138.95 3.67022C138.95 4.04022 142.87 3.98022 143.95 4.15022L146.65 4.22022C146.1 4.22022 146.65 4.08022 147.47 4.02022H147.34C148.2 3.94022 146.34 3.65022 148.88 3.68022L150.23 3.75022C149.99 3.75022 150.23 3.68022 150.35 3.65022L151.74 3.71022C153.85 3.29022 155.74 3.78022 158.25 3.54022C157.53 3.54022 156.43 3.54022 156.89 3.47022C157.422 3.42009 157.958 3.42009 158.49 3.47022H158.36L163.13 3.56022C162.74 3.45022 160.07 3.56022 161.26 3.34022C162.229 3.23009 163.207 3.20666 164.18 3.27022C164.08 3.38022 162.5 3.51022 164.1 3.52022C164.29 3.46022 165.8 3.32022 165.1 3.27022C166.73 3.27022 169.1 3.27022 170.56 3.44022C171.03 3.38022 170.3 3.36022 170.05 3.36022H169.94C168.94 3.36022 169.78 3.11022 167.85 3.27022C167.68 2.95022 170.63 3.10022 172.32 3.00022L169.62 2.86022C174.15 2.28022 180.3 2.58022 184.8 2.45022C183.48 2.59022 182.37 2.53022 182.54 2.77022C185.34 2.77022 184.97 2.77022 187.76 2.77022H187.52C188.96 2.60022 190.94 2.77022 191.87 2.53022C191.25 2.41022 189.87 2.72022 189.79 2.44022L193.31 2.36022C192.2 2.22022 189.79 2.44022 188.45 2.44022C187.45 2.44022 190.39 2.44022 189.94 2.62022C188.045 2.73082 186.144 2.63357 184.27 2.33022C183.27 2.17022 185.7 2.09022 186.27 2.07022C189.072 2.30616 191.888 2.30616 194.69 2.07022L196.47 1.80022C198.09 1.94022 197.41 2.35022 200.33 2.21022L199.45 2.08022C200.09 2.00022 200.51 1.97022 200.81 1.96022L197 1.73022C198.65 1.35022 201.76 1.73022 204.2 1.73022C204.08 1.73022 203.2 1.73022 202.97 1.63022C206.6 1.44022 210.42 1.71022 213.23 1.68022C214.41 1.50022 210.89 1.68022 211.46 1.43022C212.639 1.35431 213.821 1.35431 215 1.43022C214.35 1.17022 218.4 1.31022 215.56 1.13022C220.88 0.850222 226.74 0.930222 232.13 0.930222C231.86 0.850222 231.86 0.780222 232.13 0.720222C230.289 0.805126 228.445 0.765034 226.61 0.600222C227.8 0.420222 229.45 0.710222 229.79 0.600222C229.17 0.622811 228.549 0.572466 227.94 0.450222C229.115 0.349953 230.295 0.349953 231.47 0.450222L230.88 0.540222C234.3 0.630222 232.78 0.970222 236.4 0.790222C237.71 0.570222 236.4 0.650222 236.4 0.430222C237.26 0.490222 240 0.180222 240.9 0.430222L238.7 0.510222C240.24 0.510222 241.7 0.510222 242.77 0.510222C242.602 0.441827 242.421 0.411105 242.24 0.420222C243.381 0.391515 244.522 0.421555 245.66 0.510222L246 0.230222C244.916 0.370959 243.82 0.401114 242.73 0.320222C243.845 0.147952 244.973 0.0843197 246.1 0.130222C241.85 0.190222 241.78 -0.159778 238.18 0.130222L238.79 0.190222C236.56 0.430222 234.24 0.190222 232.28 0.280222C232.83 0.210222 232.94 0.130222 232.68 0.100222C228.34 0.410222 224.06 0.400222 219.11 0.660222L217.61 0.480222L217.53 0.650222C215.11 0.800222 216.99 0.430222 215.43 0.490222C216.03 0.490222 215.92 0.490222 216.04 0.490222C213.23 0.380222 214.49 0.700222 212.91 0.690222C213.66 0.850222 215.91 0.690222 215.25 0.930222C212.44 0.820222 208.08 1.06022 207.66 0.660222C202.46 0.980222 195.99 0.920222 191.61 1.01022C191.01 1.10022 191.98 1.06022 191.76 1.12022C190.02 0.940222 185.95 1.46022 185.92 1.25022C185.439 1.29284 184.965 1.39702 184.51 1.56022C183.4 1.50022 182.06 1.49022 180.65 1.50022H181.65H181.53H180.07H180.12C176.6 1.50022 172.55 1.71022 169.35 1.58022C171.19 1.67022 168.9 1.85022 169.77 1.91022C166.885 1.67554 163.987 1.65882 161.1 1.86022C161.1 1.93022 160.87 1.99022 161.25 2.04022L159.4 2.00022L159.65 2.07022C156.38 2.23022 152.81 1.96022 150.65 2.19022C151.99 2.19022 152 2.26022 152.13 2.37022C149.79 2.43022 147.58 2.49022 144.84 2.47022C144.99 2.47022 145.08 2.47022 145.09 2.54022C144.37 2.54022 143.51 2.54022 142.77 2.54022L142.68 2.71022C141.27 2.71022 139.47 2.82022 137.8 2.71022C137.15 2.92022 133.8 2.66022 131.8 2.80022C131.06 2.80022 133.41 2.94022 131.35 3.00022C131.04 2.64022 128.67 3.07022 128.5 2.68022L126.7 2.87022L126.29 2.69022C124.77 3.11022 123.96 2.59022 121.68 2.78022C121.8 2.78022 122.05 2.78022 121.93 2.86022C121.19 2.86022 119.49 2.86022 120.81 2.72022C119.59 2.72022 115.45 2.79022 117.31 2.95022C118.078 2.86915 118.852 2.86915 119.62 2.95022C119.52 3.12022 117.7 3.11022 117.25 3.31022C117.19 3.31022 116.95 3.31022 116.77 3.25022L116.52 3.36022C114.23 3.24022 111.91 3.45022 110.24 3.26022C109.83 3.32647 109.413 3.33992 109 3.30022V3.08022L106.58 3.16022L107.72 3.44022C105.06 3.58022 103.18 3.28022 100.99 3.30022C100.44 3.67022 96.72 3.30022 94.83 3.66022H96.54C92.89 3.66022 92.31 3.93022 88.9 3.91022C91.79 3.71022 91.81 3.78022 96.01 3.36022C91.79 3.64022 88.7 3.36022 84.84 3.70022C85.1 3.78022 86.07 3.81022 85.13 3.92022C84.37 3.76022 81.48 4.04022 82.05 3.81022C80.85 3.91022 80.65 4.12022 79.91 4.17022L75.91 4.03022H76.04C69.2 4.73022 63.23 4.03022 56.36 4.50022L56.5 4.61022L54.77 4.49022C56.12 4.56022 54.19 4.65022 54.09 4.76022L49.67 4.64022C49.5 4.83022 49.76 5.05022 50.84 5.00022ZM108.84 3.36022H109.84C110.06 3.34498 110.28 3.34498 110.5 3.36022H109.84C109.38 3.36022 109 3.46022 108.88 3.33022L108.84 3.36022ZM205.06 0.850222C205.57 0.930222 204.34 0.900222 203.99 0.930222H205.69C205.93 0.840222 205.31 0.860222 205.06 0.850222ZM109 4.70022L108.42 4.86022L107.67 4.77022L109 4.70022ZM94.19 5.15022H95.67H95.55H94.09H94.19ZM77.69 4.50022H77.98H77.69C76.8517 4.57636 76.0083 4.57636 75.17 4.50022C76.0028 4.3453 76.8571 4.3453 77.69 4.50022V4.50022ZM103.69 3.72022C104.056 3.74105 104.424 3.74105 104.79 3.72022C104.53 3.65022 103.53 3.55022 104.26 3.50022C105.007 3.51437 105.752 3.5812 106.49 3.70022C105 3.58022 104 4.00022 103.7 3.72022H103.69ZM138.54 2.72022H138.17L139.53 2.79022L138.54 2.72022ZM144.88 2.72022C146.211 2.82837 147.547 2.85175 148.88 2.79022C149.22 2.62022 147.88 2.48022 146.28 2.55022C144.47 2.46022 145.63 2.81022 144.89 2.72022H144.88ZM92.34 4.33022L92.72 4.45022H92.37H93.83C92.4044 4.56327 90.9712 4.53983 89.55 4.38022C90.41 4.42022 92.76 4.66022 92.34 4.33022ZM158.34 2.40022C159.535 2.39058 160.73 2.4809 161.91 2.67022C161.99 2.43022 160.03 2.38022 159.42 2.40022C159.074 2.41892 158.726 2.41892 158.38 2.40022H158.34ZM158.28 2.86022C157.073 2.83373 155.87 2.7201 154.68 2.52022C156.62 2.36022 157.15 2.65022 156.93 2.79022C157.533 2.8352 158.14 2.7914 158.73 2.66022L158.28 2.86022ZM156.28 2.24022L155.48 2.30022C154.686 2.55511 153.843 2.61682 153.02 2.48022L155.48 2.30022C155.742 2.266 156.006 2.24597 156.27 2.24022H156.28ZM172.73 1.76022L171.92 1.71022C172.72 1.71022 172.81 1.71022 172.73 1.76022L173.4 1.81022C171.65 2.00022 172.54 1.84022 172.72 1.76022H172.73ZM160.18 2.21022H157.87C158.635 2.28728 159.405 2.28728 160.17 2.21022H160.18ZM172.18 1.99022C171.18 2.04022 168.67 2.15022 169.02 2.12022C170.077 1.97978 171.145 1.9396 172.21 2.00022L172.18 1.99022ZM223.18 0.790222H221.73L222.43 0.590222L223.18 0.790222ZM206.09 1.44022L206.45 1.34022H207.3L206.09 1.44022ZM190.33 1.92022C190.41 1.92022 190.33 1.84022 190.23 1.80022C190.045 1.80551 189.861 1.78873 189.68 1.75022C189.865 1.742 190.05 1.75882 190.23 1.80022C190.898 1.8154 191.566 1.78533 192.23 1.71022C191.98 1.63022 191 1.71022 190.63 1.63022C192.06 1.39022 195.32 1.89022 194.38 1.34022C194.99 1.34022 197.08 1.48022 196.38 1.61022C194.73 1.61022 191.6 1.78022 190.38 1.92022C190.223 1.97695 190.057 2.00408 189.89 2.00022C190.051 1.96196 190.215 1.93522 190.38 1.92022H190.33ZM169.1 2.68022C168.767 2.70406 168.433 2.70406 168.1 2.68022C167.59 2.68022 167.2 2.60022 167.35 2.52022C168.59 2.52022 167.8 2.64022 168.1 2.68022C168.4 2.72022 168.82 2.69022 169.15 2.68022H169.1ZM165.34 2.83022H167.34L166.34 2.74022L169.28 2.88022C167.988 3.0533 166.677 3.03646 165.39 2.83022H165.34ZM164.66 2.96022L164.25 2.84022L164.87 2.96022H164.66H164.75H161.47H164.66ZM131.09 3.70022C129.87 4.21022 134 3.95022 134.65 4.16022C134.79 3.99022 136.02 3.71022 132.82 3.81022C135.58 3.57022 134.56 4.07022 136.2 3.62022C134.87 3.69022 133.27 3.62022 133.03 3.62022L134.6 3.56022C133.75 3.27022 132.24 3.76022 131.14 3.70022H131.09ZM114.23 4.27022L112.17 4.32022H114.17L114.23 4.27022ZM63.44 5.93022C62.4159 6.17654 61.3571 6.2442 60.31 6.13022C61.64 6.06022 63.1 6.00022 63.44 5.93022ZM41.6 6.56022H43.91C43.47 6.83022 41.85 6.56022 40.76 6.69022C40.38 6.60022 41.24 6.65022 41.6 6.56022ZM26.54 7.00022H25.8L26.59 7.23022L26.54 7.00022ZM27.54 7.30022C27.08 7.43022 28.67 7.44022 29.04 7.41022L27.54 7.30022ZM14 7.94022H15L14.13 7.74022L14 7.94022ZM15.53 7.63022C15.76 7.79022 15.67 8.01022 17.89 7.83022C17.98 7.66022 17.37 7.68022 18.19 7.46022C17.6254 7.45962 17.0613 7.48967 16.5 7.55022C16.9053 7.50388 17.3146 7.50388 17.72 7.55022C16.9915 7.61742 16.2584 7.61742 15.53 7.55022C15.3758 7.4694 15.204 7.42816 15.03 7.43022C15.05 7.57022 15.24 7.61022 15.54 7.63022H15.53ZM23.53 7.21022C23.7515 7.1928 23.9719 7.16275 24.19 7.12022H24.33C24.0655 7.16823 23.7945 7.16823 23.53 7.12022L22.45 7.22022C22.21 7.37022 23.73 7.42022 24.14 7.49022C23.3714 7.42348 22.5985 7.42348 21.83 7.49022C21.95 7.49022 21.83 7.56022 22.44 7.49022L21.11 7.56022C19.59 7.41022 21.04 7.30022 22.45 7.20022C22.5805 7.13229 22.7233 7.09147 22.87 7.08022C23.1104 7.09973 23.3483 7.14328 23.58 7.21022H23.53ZM12.87 7.21022H13.6C13.98 7.21022 13.74 7.32022 13.87 7.36022C13.07 7.39022 12 7.33022 12.92 7.21022H12.87ZM56.49 5.86022C56.01 5.86022 57.13 6.05022 58.21 5.97022L57.64 6.20022C56.8264 6.11243 56.0069 6.09236 55.19 6.14022C54.8 6.00022 55.65 6.00022 56.49 5.86022ZM107.1 4.33022C107.5 4.59022 110.27 4.33022 110.88 4.40022C109.44 4.50022 106.17 4.66022 107.1 4.33022ZM111.9 4.08022C112.66 4.08022 112.9 4.08022 112.8 4.16022C113.17 4.16022 113.8 4.16022 114.14 4.16022C113.394 4.24951 112.638 4.22252 111.9 4.08022H111.2C111.433 4.06581 111.667 4.06581 111.9 4.08022V4.08022ZM82.32 5.00022L81.32 4.83022L79.75 4.90022L82.32 5.00022ZM65.39 5.16022C64.7118 5.29259 64.0189 5.33295 63.33 5.28022C64.0903 5.40389 64.8636 5.42743 65.63 5.35022V5.35022C65.27 5.35022 65.52 5.25022 65.51 5.20022L66 5.09022H64.66L65.39 5.16022ZM35.63 5.89022C34.9893 5.99831 34.3379 6.02853 33.69 5.98022C34.3317 5.87979 34.9806 5.83296 35.63 5.84022V5.89022ZM74.35 4.71022C72.53 4.84022 75.23 4.91022 74.04 5.02022L75 5.00022C73.46 5.21022 73.89 4.87022 72.81 4.94022H73.53C74.11 4.78022 72.42 4.88022 72.28 4.77022C73.11 4.61022 75.07 4.66022 74.35 4.71022ZM33.92 5.80022C33.0591 5.88358 32.1907 5.84656 31.34 5.69022C32.2015 5.64043 33.0658 5.67729 33.92 5.80022V5.80022ZM62.87 4.62022H62.99H61.52H61.41H62.87Z" fill="white"/>
</svg>
