<svg id="Capa_1" data-name="Capa 1" xmlns="http://www.w3.org/2000/svg" viewBox="0 0 325.04 211.99"><defs><style>.cls-1{fill:#ededed;}</style></defs><path class="cls-1" d="M60.59,6.09l-2.06.22C60.48,6,61.43,5.92,60.59,6.09Z"/><path class="cls-1" d="M33.26,9.61,45.89,7.8C50.44,7.16,55,6.68,58.53,6.31l-6.28.87-3.89.54-4,.6A94.69,94.69,0,0,1,33.26,9.61Z"/><path class="cls-1" d="M62,6.8l-8.79,1C58.28,7,57.36,7.33,62,6.8Z"/><polygon class="cls-1" points="58.7 6.71 59.13 6.45 63.84 6.05 58.7 6.71"/><path class="cls-1" d="M227.92,187.61c.89-.25,1.46-.36,1.1-.1Z"/><path class="cls-1" d="M208.13,193.34l-4.07,1.17C205.27,194.14,206.29,193.85,208.13,193.34Z"/><path class="cls-1" d="M245.23,180.43c-1.11.53-2.23,1-3.35,1.51Z"/><path class="cls-1" d="M263.54,16.7l-8.61-2.85A42.42,42.42,0,0,1,263.54,16.7Z"/><path class="cls-1" d="M115.42,207.82l-.86.19C113.6,208,113.13,207.92,115.42,207.82Z"/><path class="cls-1" d="M202.66,192.21c.12.06,0,.18-.4.34l-1,.26Z"/><path class="cls-1" d="M258.13,173.76l.18-.11,2.67-1.32A20.05,20.05,0,0,1,258.13,173.76Z"/><path class="cls-1" d="M87,207c-1.25-.22-2.45-.47-3.49-.73C86.18,206.63,87.44,206.92,87,207Z"/><path class="cls-1" d="M203.58,194.65h-.05l.53-.15Z"/><path class="cls-1" d="M230.65,183l-4.4,1.58C228.08,183.8,229.65,183.27,230.65,183Z"/><path class="cls-1" d="M263.54,16.7l2.72.91C265,17.23,264.17,17,263.54,16.7Z"/><path class="cls-1" d="M84.24,3.21a19.52,19.52,0,0,1,4.09-.15C86.75,3.15,85.35,3.21,84.24,3.21Z"/><path class="cls-1" d="M286.51,6.44l1.14.12C287.17,6.52,286.8,6.48,286.51,6.44Z"/><path class="cls-1" d="M176.76,8.61c-.51,0-1.06.06-1.46.06C176.23,8.51,176.76,8.51,176.76,8.61Z"/><path class="cls-1" d="M83.1,44.27c5.93-3.83,12.74-6.62,18.33-9.19l-2,.71c1.88-.86,3.83-1.6,5.74-2.39l-.17-.24c9.48-4,21.43-8.79,25.16-9.62h-1.3c3.49-1.1,7-2.31,10.45-3.32-2,.5-4,1.2-6,1.78,11.3-4.8,29.87-7.3,32.45-7.77h-1.12c2-.4,3.56-.54,5.64-.81h-1.63c2.28-.36,4.37-.68,6.31-.93l5.41-.77,9.46-1.24c3.07-.39,6.22-.68,9.88-1.05s7.88-.6,13.06-.91c2.82-.17,2-.15.54-.1s-3.72.18-3.77.11A115.79,115.79,0,0,1,221.47,8c-1.66-.3-10.4.27-3.78-.39,4.74,0-3.24-.2,5.08-.55,1.09.1,2.18.26,3.28.39,4.62-.23.91-.43,8.22-.6,4.18,0,1.63.21-.29.39s-3.19.27,3.53.21S251.69,6,264.75,6.85c5.64.09,4.17-.17,3.24-.35-.47-.09-.8-.17-.05-.17.38,0,1,0,2.08,0l4.43.31c-1.66-.16-3.32-.35-5-.48l-5-.37a36.57,36.57,0,0,1,7.73.08c2.13.34,6.29.86,9.94,1.15-7.29-.7-4.08-.61-.74-.55s6.81.31,0-.58c1.69.14,3.38.33,5.07.5-.63-.08-.78-.15-.44-.15l6.74.63c-4.14-.52-14-1.54-9.4-1.46l9.78.87c-2.58-.54,1-.3.48-.58-9.58-1.17-19.19-2.19-28.83-2.69,1.13.21,5.29.48,3.73.59-3.86-.08-5.43-.21-6.95-.34A53.08,53.08,0,0,0,255,3.13l3.19.27c-.57-.09-1.59-.14,0-.14,2.55-.06,3.65.16,3.67.3-2.55.12-9.85-.12-12-.36-4.7-.07-5.18.14-4.75.25s1.78.26.75.31c-2.43-.22-6.34-.18-10.38-.11S227.3,4,224.4,4l3.74.19c-1.78.16-3.52.25-5.18.34s-3.26.18-4.76.24c-3,.12-5.65.11-7.74.23l1.63.14c-5,.34-8.64.77-12,1.16a71.87,71.87,0,0,1-10.3.61l1.06,0c-4,.55-10.16,1.37-14.06,1.68a6.46,6.46,0,0,1-2.37.59c-2.24-.08-6.39.84-12.3,1.88,3.95-.58,2.77.09,6.93-.46A72.17,72.17,0,0,1,160.44,12c-1,.09-1.89.15-3.05.28a38.91,38.91,0,0,0-4.47.76c-4.52,1.21,4.14-.66,5.28-.62A117.45,117.45,0,0,0,141,16.7L137.09,18c-1.24.47-2.43.91-3.58,1.32a59.59,59.59,0,0,1-6.26,1.9l4.75-2c-4.55,1.42-7,2.3-6.41,2.19a11.94,11.94,0,0,1,2.49-.75c-6.67,2.71-12,4.54-17.29,6.52-1.33.49-2.67.95-4,1.48l-4.11,1.66c-2.83,1.11-5.76,2.5-9,4.11,1.05-.32,3-1.16,3.1-1.07-1.49.76-2.63,1.26-3.65,1.67s-1.9.79-2.9,1.2-2.12.88-3.57,1.59-3.21,1.76-5.51,3.2c.64-.32,1.3-.6,1.94-.9-1.55.92-2.9,1.75-3.84,2.26s-1.44.73-1.25.57c0,.21-1.18,1-3,2.39-.93.67-2.06,1.41-3.24,2.29l-3.82,2.83a141.58,141.58,0,0,0-13.6,11.69c-1.09.76-2.65,1.91-4.45,3.23S46,68.25,44,69.73s-4,3-5.7,4.38-3,2.64-3.86,3.43C29.73,82.32,39.16,74,37.58,76c-1,.86-1.85,1.6-2.7,2.3L33.6,79.34l-1.25,1.12c-.85.78-1.76,1.61-2.8,2.59s-2.1,2.23-3.4,3.67c-.18-.08,2.23-3.09,3.55-4.65.66-.78,1-1.24.51-.87-.25.19-.71.58-1.44,1.24s-1.65,1.67-2.93,3c-.41.56-.83,1.11-1.23,1.67,1-1.15,2.38-2.73,3.87-4.26s1.19-.91.31,0-2.13,2.43-2.42,2.83L25,87.13l-1.29,1.49-2.56,3-2.42,3.12-1.21,1.55L16.41,97.9c-1.1.64,4.6-6.92,5.23-7.67a110.92,110.92,0,0,0-11,16.61A115.76,115.76,0,0,0,3,124.5l.48-1c-.58,1.76-1,3.21-1.42,4.43s-.5,2.25-.66,3.08A19.28,19.28,0,0,0,1,134.55c0,.9-.08,1.7-.25,3s-.36,3.1-.68,6.05A9.1,9.1,0,0,0,.15,146c.06.23.11,0,.16,0s.18.07.49,4.73c.34,2.62,0,1.11-.15.64q.13,1.08.24,1.95c.11.58.2,1.1.29,1.57a21.19,21.19,0,0,0,.51,2.22c.33,1.13.51,1.72.72,2.25.49,1.07.62,2.12,2.66,7-.18-.77-.38-1.52-.52-2.28a56.44,56.44,0,0,0,9.9,16.18A59,59,0,0,0,21,186.76c1.12,1,2.31,1.88,3.45,2.76s2.31,1.67,3.49,2.38a29.31,29.31,0,0,0-3.34-2.73c-.82-.68-1.7-1.37-2.47-2s-1.45-1.31-1.92-1.79a78.28,78.28,0,0,0,20.94,13.54A136.18,136.18,0,0,0,64,206.72c-4.08-.63,6.19,2.19-2.47.43-2.09-1-6.17-1.78-10.62-3.4,3.42,1.79,11.17,4,18.43,5.11,3.63.53,7.08.95,9.77,1.33a24.73,24.73,0,0,1,5.18.85l2-.15c2.08.24,7.4.85,3.71.73,2.53.12,5,.3,7.57.29l3.79.06,1.89,0,1.89,0c-1.32,0-3-.17-4.87-.33l-5.79-.46c-1.94-.2-3.82-.38-5.44-.5-.81-.06-1.55-.1-2.21-.13s-1.2-.07-1.65-.07c-2.11-.42-.57-.32,1-.22s3.27.08,1.4-.26c10,1.29,6.19.22,16.6.62-4.73.55,10.39.7,9.93.83,1.71-.14,4.47-.14,7.17-.27s5.34-.2,6.81-.22c3-.3,8-.82,13.35-1.66,2.7-.36,5.49-.85,8.21-1.3s5.37-.9,7.77-1.29c-3.64.54-9.41,1.21-9,.8,4.73-.49,9.85-1.52,10.66-2-8.34,1.18-9.66,1.51-10.76,2s-2,1-9.61,1.67c-1.9,0-3.89.11-6.39.26l-4.17.3-5.24.28c3.55-.52,2-.51,3.41-.93a77.61,77.61,0,0,0,8.14-.36c3-.23,6.16-.72,9.44-1.14s6.62-1.05,9.92-1.63,6.58-1.12,9.67-1.67c5.24-.82,1.48.69,13.22-1.87-3.34.83-6.66,1.76-10,2.51,5.54-1.28,6.19-1.43,6.63-1.39s.64.17,5.22-.86c-1.23.2-2.47.37-3.7.54,5.58-1.34,7.62-1.85,10.77-2.38l-4.83.7c3-.76,8.51-2.28,8.65-2,.74-.32,1-.48,1-.56a44.63,44.63,0,0,0,5.52-1.38,17.55,17.55,0,0,1-3.61.82c13.31-3.6,3-1.33,11.19-3.64-1.33.26,1-.52,3.88-1.49,0,.4,4.07-.61,8.66-1.95s9.67-3,11.85-3.61h0c3.64-1.27,7.28-2.56,10.88-4-2.2.83.08-.29,3.13-1.71l-.5.22c1.67-.79.58-.54.36-.62s.43-.43,5.48-2.64c1.79-.73,3.55-1.53,5.33-2.29-1,.42-.1-.1.36-.41,1.8-.84,3.62-1.65,5.4-2.55,3.87-2.44,7.64-4.5,11.54-6.77A91.09,91.09,0,0,0,282,158.73c-2.42,2-6.37,4.58-4.83,3.24s4.24-3.07,5.6-4l-.49.26A130.3,130.3,0,0,0,297.93,145c-.65.54-3,2.82-4.86,4.44s-3.08,2.61-1.28.77c1-1.12,2.61-2.69,4.3-4.27s3.38-3.27,4.58-4.67c-.13.51-4.65,5.62.1.62.23-.35,1.43-1.76,2.22-2.87s1.28-1.83.25-.68a107.41,107.41,0,0,0,7.42-9.52c1.16-1.77,2.37-3.49,3.37-5.18l1.48-2.42,1.28-2.21c.84-1.82-.68,1-1.19,1.87l-.18.48a15,15,0,0,1-1.71,2.45,16.46,16.46,0,0,0-.92,1.44c-.49.76-1.2,1.9-2.27,3.69-.22.06.05-.55.65-1.6s1.55-2.52,2.53-4.26,2.07-3.72,3.1-5.67c.49-1,.93-2,1.37-2.95a27.11,27.11,0,0,0,1.14-2.73c-.36.9-.79,1.78-1.23,2.64l-1.3,2.61c-1,1.69-1.86,3.41-2.9,5A111.32,111.32,0,0,0,320,107.55a82.53,82.53,0,0,0,3.79-16.48,68.29,68.29,0,0,0,.06-16.9,50.66,50.66,0,0,0-4.18-15.07c.6,1.3,1.16,2.56,1.66,3.7s.75,2.24,1,3.11c.15.43.29.81.4,1.14s.19.61.26.82c.16.42.28.57.36.37a37.12,37.12,0,0,0-1-3.85c-.17-.56-.32-1.07-.47-1.55s-.35-.9-.5-1.32c-.34-.82-.63-1.53-.9-2.2-.13-.34-.27-.66-.4-1s-.31-.6-.47-.89l-1-1.82a17,17,0,0,0-1.19-2.06l-1.67-2.52a12.88,12.88,0,0,0-1.12-1.49c-.42-.52-.88-1.07-1.36-1.67l.65.84-1.63-1.87L310.54,45c-1.24-1.24-2.49-2.5-3.75-3.67a50.38,50.38,0,0,0-6.64-5.46c1.93,1.86,6.9,5.52,6.6,6.08a138,138,0,0,0-11.66-9.66c1.8,1.56,4.82,3.85,7.8,6.38a97.16,97.16,0,0,1,7.94,7.38c1.44,1.52,0-.06-1.61-1.76s-3.55-3.55-2.68-3a68.24,68.24,0,0,1,6.19,6.32l2.07,2.63a27.48,27.48,0,0,1,1.53,2.37c.45.75.88,1.44,1.25,2.13s.64,1.41.95,2.11.64,1.37.91,2.11.5,1.52.78,2.35c.64,2-.06.63-1-1.54l-.38-.85-.48-.85c-.31-.58-.63-1.17-.94-1.72s-.56-1.1-.86-1.53l-.72-1.08L315,52.24a11.69,11.69,0,0,0-1-1.53L311.6,47.6a85.08,85.08,0,0,0-6-6.27,111.58,111.58,0,0,0-15.72-12.2c-1.1-.66-2.23-1.27-3.34-1.91l-3.39-1.79c-2.9-1.88-3.67-2.56-5.08-3.54a29.32,29.32,0,0,0-3-1.72c-.74-.33-1.61-.72-2.67-1.16s-2.36-.87-3.87-1.26c1.17.41,2.34.95,3.49,1.46-2.66-.84-4.4-1.21-5.67-1.6a56.93,56.93,0,0,1,7.67,3c1.25.54,2.42,1.23,3.59,1.82s2.24,1.27,3.27,1.9c-3.27-1.37-7.74-3.77-13-5.4l-8-2.63c-2.68-.88-5.33-1.76-7.87-2.37.26.1,1.27.38,2.34.69a22.31,22.31,0,0,1,2.69.92c-15.05-3.89-30.85-8-42.74-9.91-5.06-.57,9.82,1.86,7.3,1.87-3.1-.61-6.42-1.13-9.17-1.57a48.18,48.18,0,0,1-5.76-1c2.66.92-14.39-1.89-2.49.24-2.82-.33-5.67-.74-8.56-1.06l-8.75-.87-4.42-.46c-1.48-.15-3-.23-4.45-.35l-8.95-.69c-3-.26-6-.33-9-.5S154,.86,151,.79L142.18.58,137.8.48l-4.34,0c1.12.14,1.12.29.16.42,3.89-.14,8.7,0,13.06.12,2.19.06,4.27.12,6.06.23s3.32.27,4.4.41c-5.11,0-12.08-.59-13.55-.46,2.61.16,7.79.2,7.87.48-6.66.28-10.38-.25-15.07-.27.85-.07,1.7-.12,2.54-.16-7.3-.12-9.32-.28-11.46-.43-1.07-.07-2.16-.12-4-.13s-4.3.14-8.18.34c-5.61.59.06.28.18.7-1.83,0-5.69.19-9.56.5s-7.75.57-9.66.47l9.37-.67c-6.57.34-12.78.7-17.33,1a10.46,10.46,0,0,0,2.26,0c-5.22.35-11.9.93-14.59,1l-1.41.61a118.33,118.33,0,0,1,14-1.3,37.45,37.45,0,0,1-6,.76L78,4.5l-3.85.41c4.52-.5,8-.68,10.76-.87l7.16-.39c4.25-.18,8.15-.31,15.82-1l-2.6,0c9.55-.91,19.44-.73,27.82-.83-2.36.13-2.83.31-1.72.36a464.76,464.76,0,0,1,57.85,2l6.28,1.08L196,5c10.27,1.2,2.17.76,8.77,1.61-2.51-.34-2.05-.33-2.55-.49,11.83,2,6.66.52,13.28,1.73-3.08-1-12.83-2-9.78-2.09l4.7.75c1.64.27,3.33.62,5,.92l10,1.83c6.23,1.38,11.18,2.57,11.95,3.14,2.74.48,5.5,1.2,8.34,1.87l8.63,2.11L263,18.89c2.88.87,5.87,1.65,8.55,2.68a85.11,85.11,0,0,1,15.09,8.09A144.55,144.55,0,0,1,299,38.73c2,1.49-1.15-1.09-.33-.55,2.71,2.46,7.4,6.42,11,10.15.93.92,1.65,1.88,2.4,2.72.37.42.71.83,1,1.2s.55.8.79,1.15a11.14,11.14,0,0,1,1.45,2.4c.88,1.48,1.54,2.52,2.07,3.28a17.43,17.43,0,0,1,1.06,1.7,57.67,57.67,0,0,1,3.72,15.57l-.51-4.28.12.46a56.65,56.65,0,0,1,.55,6.1l0-.23a69.48,69.48,0,0,1-.18,11.33A77.15,77.15,0,0,1,320,101.2,76,76,0,0,1,316.26,112a81.61,81.61,0,0,1-4.95,9.38c1-1.63,1.46-2.35,1.62-2.54s.05.18-.13.65c-.36.94-1.05,2.28-.05.74-2,2.83-5.05,7.73-9.13,12.91a124.82,124.82,0,0,1-14,15.12c.14.07-.55.85.68-.12-1.94,1.68-4,3.28-6,4.85.31-.17.61-.34.9-.52a127.79,127.79,0,0,1-17,11.92c-5.71,3.42-11.09,6.19-15.1,8.39,5.07-2.51,5.14-2.46,5.75-2.51A213.24,213.24,0,0,1,230.65,183a3.59,3.59,0,0,1,1-.26c-2.81,1.18-6.32,2.3-9.28,3.27l-.29.46c-5.67,1.86-12.95,4.39-19.84,6.12A103.79,103.79,0,0,1,192,195.43l-7.47,1.81c-2.48.57-4.85,1.13-6.83,1.66-3.07.67,6.73-1.24-1.82.82-.69-.22-3.47.4-6.19,1s-5.38,1.09-5.79.78l-3.73.91-3.75.83-1.73-.09c-6.29,1.84-9.83,1.34-19.38,2.76.52,0,1.55-.08,1.06.05-3.12.26-10.29.92-4.75.16-2.56.32-8.21.67-12.24.95s-6.44.32-2.51.38c-.28-.12,1.37-.16,3.49-.26l6.24-.31c-.38.36-8.11.84-10,1.2-.25,0-1.27-.05-2-.07l-1.1.25c-9.69,0-19.54-.2-26.5-1.27a38.21,38.21,0,0,1-5.41-.42l-.09-.44c-.84-.09-1.7-.17-2.54-.28l-2.53-.38-5.07-.75L76,206A84.4,84.4,0,0,1,61.4,203c-4.32-1.31-8.31-2.79-12.56-4.48-1.22-.08-5.38-1.76-9.93-4.17s-9.46-5.54-12.78-7.66q1.41,1.08,2.85,2.13c1,.66,1.94,1.37,2.95,2A84.94,84.94,0,0,1,19,181c-.77-.74-1.56-1.45-2.3-2.26l-1.15-1.21-1.16-1.35a45.52,45.52,0,0,1-5-7.13l1.12,1.77c.39.53.75,1,1.09,1.51.66,1,1.36,1.75,1.95,2.52,1.24,1.5,2.35,2.74,3.65,4.05a66.15,66.15,0,0,0,13.23,10.22,62.06,62.06,0,0,1-17.27-15.74,50.34,50.34,0,0,1-8.92-19.87c0,1.05.78,4.92-.23,1.21-.06-.78-.28-2.06-.41-3.55L3.45,150,3.4,148.8c0-.8-.07-1.61-.1-2.37a21.45,21.45,0,0,1,.05-3.7c.07-.82.14-1.12.22-.53,0-1.22,0-2.2,0-3s.09-1.49.11-2.1l.06-1.74a10.75,10.75,0,0,1,.24-2l1-4c.37-1.34.88-2.65,1.3-4,.23-.66.43-1.32.69-2l.8-1.94c.57-1.27,1-2.59,1.67-3.83L9.2,118a84.48,84.48,0,0,1,9.92-18.32A109.09,109.09,0,0,1,32.28,84.36c1.23-1.14,2.42-2.31,3.68-3.42l3.83-3.27,4-3.08L48,71.43c5.6-4.25,11.1-8.83,16.71-13.51l-.58.18c2-1.47,3.94-2.86,5.92-4.26-4.63,3.32,1.77-1.75,2-2.12a137.91,137.91,0,0,1,15.84-9.56C88.18,41.79,87,41.92,83.1,44.27ZM81,206.57l4.39.5c.88.07,1.79.18,2.79.28-.94,0-1.86-.17-2.79-.28C83.13,206.88,81.45,206.88,81,206.57ZM248,14.7c-2-.71,3,.68,4.47,1l-7-1.79C244.4,13.79,247,14.42,248,14.7Zm-167,194.62c-.84,0-1.68,0-2.52,0l-3.13-.69C77.17,208.89,79,209.17,80.94,209.32Zm-58.82-22,2.47,2,2.56,1.9-.47-.26c-1.7-1.24-3.36-2.53-5-3.89ZM5.88,124.45l-.4,1.12.4-1.12c1.75-4.43,2-6.41,4.09-9.73-.4,1.13-.8,2.13-1.2,3s-.7,1.77-1.06,2.55C7.06,121.88,6.31,123.15,5.88,124.45ZM59.43,203c2,.6,3,.88,4.47,1.19-1-.38-5-1.7-2-1,1,.35,3.24,1,5.24,1.44a25,25,0,0,1,3.8,1C64.87,204.34,60.44,203.91,59.43,203Zm146-11.19-1.5.48,5.6-1.48ZM231,183.4c3.13-.8,10.75-4,15.94-6.36,1.2-.92-4.17,1.25-10.35,3.83C229.21,183.56,234,182.43,231,183.4ZM17.53,180.85l.95,1.29-1.08-1c.71.74,1.43,1.48,2.19,2.18s1.5,1.41,2.29,2.08a43.67,43.67,0,0,1-7.57-7.32A64.48,64.48,0,0,1,10,171.89a69.42,69.42,0,0,0,4.63,6.36C16.42,180.3,17.91,181.7,17.53,180.85Zm263.85-24.53c1.17-.82,2.53-1.87,3.95-2.91s2.81-2.2,4-3.22l3-2.5c.7-.6,1.09-.88,1-.67,0-.3-1.57,1-3.4,2.45-.9.76-1.89,1.56-2.78,2.27L285,153.5C283.86,154.46,283,155.13,281.38,156.32Zm.3.91c-3.39,2.45-5.31,3.6-7,4.62s-3.25,1.83-6.07,3.31c6.84-4.57,8.93-5.51,8.3-4.7a32.68,32.68,0,0,0,4-2.85c.62-.55,1-.89,2.15-1.88Q282.36,156.5,281.68,157.23Zm-7.8,4-2.78,1.93c-3.26,2.3-3.68,3.25-8.82,5.59,3-1.78,5.93-3.66,8.82-5.59C271.82,162.58,272.72,161.94,273.88,161.19Zm43.9-52.38-1.36,3.08c1.21-3.09,1.41-3.43,1.36-3.08.4-.85.73-1.73,1.05-2.61-.48,1.77-.92,2.82-1.14,3.45s-.31.8-.31.74S317.72,109.18,317.78,108.81Zm-30.67,42.47c-1.24,1.06-2.49,2.1-3.78,3.1s-2.58,2-3.89,3C280,157.21,284.84,153.42,287.11,151.28ZM317.41,111c-.33,1-.94,2.28-1.57,3.71s-1.39,2.93-2.08,4.27c-1.37,2.69-2.59,4.66-2.21,4,.12-.49,1.47-2.82,2.74-5.42.7-1.27,1.29-2.64,1.85-3.81.28-.59.53-1.13.76-1.59S317.28,111.29,317.41,111ZM171.58,2.17l6.22.44-3,.14ZM243.86,12.4l-1.54-.2c-1.17-.3-2.34-.6-3.52-.84C240.5,11.63,242.17,12.05,243.86,12.4ZM304,40.72c-.29-.16-.22,0,.15.45a16.71,16.71,0,0,1,1.64,1.68c-.67-.63-1.28-1.27-1.64-1.68a69,69,0,0,0-6.6-5.4c.37.4,1.37,1.24,2.42,2.12s2.14,1.83,2.7,2.4c-2.45-1.86-6.2-5.12-9.17-7.38s-5-3.61-3.71-2c-1-.8-3.37-2.46-5.16-3.67s-3-2-1.61-1.37c3,1.8,7.33,4.54,11.29,7.4S301.89,39,304,40.72A10.19,10.19,0,0,1,305.61,42Zm8.75,82.54c-.64,1.11-1.14,1.88-1.51,2.43s-.59.87-.74,1.08c-1.22,1.82-2.33,3.08-2.08,2.47,3.05-4.35,1.28-1.45,2.08-2.47S312,124.47,312.7,123.26Zm-9.06,13.29c.93-1,1.77-2.16,2.64-3.24s1.7-2.22,2.52-3.35c-.86,1.12-1.72,2.23-2.65,3.29.67-.81,1.32-1.64,1.94-2.49s1.27-1.67,1.88-2.53c1.18-1.74,2.41-3.46,3.49-5.27a67.1,67.1,0,0,1-5.79,9A33.42,33.42,0,0,1,303.64,136.55ZM302,139l-1.35,1.11c.65-.6,1.32-1.19,1.93-1.82L302,139l.3-.27a126.65,126.65,0,0,1-9.83,10.1A132,132,0,0,0,302,139ZM175.07,201.38c-2.46,1,.62.57,4.64-.33l6.18-1.38c1.91-.45,3.5-.8,4.19-.87.49-.48,5.53-2.25-7.77,1.18,5.72-1.58,7.54-2,8.78-2.18a21.19,21.19,0,0,0,5.19-1.71c-2.73.82-5.77,1.57-8.25,2.16s-4.39,1-4.89,1.11c2.17-.52,4.31-1.14,6.47-1.71C185.81,198.07,179.71,200.51,175.07,201.38Zm-71.42,8.86-8.8-.29,8.33.34ZM39,74.53a30,30,0,0,1,4.08-3.68,79.19,79.19,0,0,1,6.35-4.78c-2.2,1.83-4.58,3.63-6.5,5.16S39.5,74,39,74.53Zm78.74-49.36c-3.11,1.12-6.17,2.35-9.26,3.52,1.58-1.18,8.19-3.36,12.52-5C122.58,23.31,119.1,24.46,117.72,25.17ZM180,9.44c1-.13,2.09-.21,3.14-.3-1.12,0-2.24-.09-3.35-.1Zm-4.39-.09c1.94-.49-4.8.27-6.37.6C171.35,9.7,173.48,9.53,175.6,9.35Zm57.91-4.93-4.14.16,3.75.33Zm-6.57.73c-1-.27-.6-.83-10.1-.1-.38.36,2.21.23-1.3.81,3.14-.08,5.69-.36,7.25-.47a41.61,41.61,0,0,1-5.23.14,81.67,81.67,0,0,1,9.38-.38,7.75,7.75,0,0,0,2.12.2A6.71,6.71,0,0,0,226.94,5.15ZM192.57,7.79c-1.25.15-2.32.31-2.81.43l-.58,0a16.39,16.39,0,0,1,3.39-.41l4.6-.55c1-.37-5.49,0-7.22,0,3.1-.24,5.8-.18,9.88-.74-.55,0,0-.14-2.62.11,1.89-.19,3.77-.42,5.66-.56,3.26,0,3.34.09,1.85.3l-7.55.85a9.79,9.79,0,0,1-1.78.37C194.43,7.74,193.54,7.75,192.57,7.79Zm45.52-1.92L235,5.81c-1.59-.06-.58-.2-1.14-.27C237.48,5.48,242.23,5.67,238.09,5.87ZM62.53,56.39c1.55-1.36-2.37,1.36-5.89,4.39l1.64-1.9c.26.14,7.45-5.78,8.33-6.35C68.16,51.84,65.16,53.9,62.53,56.39Zm10.61,151a14.77,14.77,0,0,0,2.8.69c1.36.25,3.06.54,4.81.7,3.48.39,7.08.74,8.39.85-.77,0-1.67-.07-2.63-.16l-3.05-.29c-2.1-.23-4.31-.38-6.17-.71C73.56,207.88,71.1,207.39,73.14,207.39Zm20.42,2c1.61.13,2.65.13,3.24.18s.74.09.56.22c1.57.16,4.14.1,5.72.25a45.76,45.76,0,0,1-5.77-.19l-3.75-.46-3-.22C91.86,209.2,92.77,209.27,93.56,209.35ZM1.31,143.26c.21-1.42.37-2.83.62-4.22l.44-3.29.22-1.65c.08-.55.22-1.08.33-1.63A63.29,63.29,0,0,0,1.31,143.26Zm32.4-62a11.83,11.83,0,0,1,2.49-2.53l2.29-2c.71-.6,1.35-1.05,1.68-1.29a12.4,12.4,0,0,0-2.85,2.07c-1.41,1.21-3.16,2.72-4.61,4.17-.39.35-1,.94-2,1.85l2-1.85c1.15-1,.49-.17.56-.09L31.88,83c1.37-1.29,2.7-2.63,4.15-3.82C35.24,79.85,34.45,80.51,33.71,81.22Zm108.46-62.9c2.15-.74,3.4-1.05,4.45-1.33s1.94-.48,3.47-.75c-.48.15-1.71.47-3.19.88S143.65,17.91,142.17,18.32Zm-131,93.12c3.48-6.84-2.14,3.06.11-1.46-.61,1.2-1.29,2.36-1.81,3.61A25.09,25.09,0,0,1,11,110.37a15.45,15.45,0,0,1,1-1.54c.53-.77,1-1.31,2.13-3.28-.5.89-1.07,1.75-1.51,2.68-.43,1.15.11.1.95-1.2a30.23,30.23,0,0,1,2.12-3.12C13.72,107,9.77,114.17,11.13,111.44ZM149.21,16.7a47.39,47.39,0,0,1,6.45-1.35,36,36,0,0,0,4.32-.48C154,16.21,154.83,15.59,149.21,16.7ZM42.39,75.21l-.33.34c1.59-1.23,3.31-2.47,5-3.71l.37-.35C45.74,72.73,44,74,42.39,75.21Z"/><path class="cls-1" d="M158,11.85c1.88-.38,3.12-.61,4.14-.77C160.78,11.33,159.41,11.59,158,11.85Z"/><path class="cls-1" d="M112.44,211.65a7.91,7.91,0,0,1,1.75-.22A9.28,9.28,0,0,1,112.44,211.65Z"/><path class="cls-1" d="M127.6,211l.57,0,.48,0C128.3,210.94,128,211,127.6,211Z"/><path class="cls-1" d="M88.75,2.43c-3.25-.06,3.1-.37,5.69-.54C91.85,2.06,90.87,2.45,88.75,2.43Z"/><path class="cls-1" d="M109.18,1.58c-1.55-.06-3.74.06-6.41.2C104.44,1.66,106.28,1.53,109.18,1.58Z"/><path class="cls-1" d="M92.53,2.54c4-.37,7.43-.6,10.24-.76C100.15,2,98,2.25,92.53,2.54Z"/><path class="cls-1" d="M164.19,1.14C161,.8,154.81.69,154.81.69,168.27,1,152.12.13,151,0A114.39,114.39,0,0,1,164.19,1.14Z"/><path class="cls-1" d="M182,2.37c-1.38-.1-2.7-.18-3.73-.21C179.55,2.19,180.77,2.26,182,2.37Z"/><path class="cls-1" d="M187,2.65A78,78,0,0,1,195.31,4c-5.63-.37-9.17-1.13-13.34-1.61C185.25,2.69,188.47,3,187,2.65Z"/><path class="cls-1" d="M317.56,53.34c-.6-.93-2.05-3.16-2-3.28.79,1.09,1.51,2.23,2.27,3.35a13.15,13.15,0,0,1,1,1.73l1,1.78c.73,1.45.38.89-.23-.2A35.14,35.14,0,0,0,317.56,53.34Z"/><path class="cls-1" d="M324.85,81.46a34.76,34.76,0,0,0,.13,4.28,5.59,5.59,0,0,1,0,2l-.46-.39C324.76,85.36,324.76,83.41,324.85,81.46Z"/><path class="cls-1" d="M322.22,78.15l-.07-1.8c0,.68.08,1.34.12,2.05Z"/><path class="cls-1" d="M319.87,111.27c.69-1.3,1.41-2.6,2-4a22.13,22.13,0,0,1-1.15,2.86,12.53,12.53,0,0,1-.71,1.33C319.69,112,319.68,111.73,319.87,111.27Z"/><path class="cls-1" d="M308.59,132.52l2.24-3c-1.13,1.57-2.21,3.19-3.42,4.7l-1.79,2.29-1.87,2.23C305.45,136.76,307,134.65,308.59,132.52Z"/><path class="cls-1" d="M288.73,153.58l-.7.75c-1,.86-2.07,1.65-3.11,2.46s-2.1,1.61-3.18,2.37c1.21-.88,2.38-1.8,3.54-2.73S287.6,154.56,288.73,153.58Z"/><path class="cls-1" d="M3.53,164.35c0-.33.24.19.75,1.14.25.48.55,1.07.88,1.74l1.18,2.14a54.63,54.63,0,0,0,5.34,7.71,13.87,13.87,0,0,1-1.83-2c-.68-.92-1.45-2-2.18-3.25C6.14,169.42,4.8,166.56,3.53,164.35Z"/><path class="cls-1" d="M147.32,14.3c-1.95.5-3.9.93-5.84,1.48s-3.89,1.12-5.75,1.8c4.38-1.58,5.05-1.7,5.69-1.89S142.74,15.43,147.32,14.3Z"/></svg>