<svg width="27" height="24" viewBox="0 0 27 24" fill="none" xmlns="http://www.w3.org/2000/svg">
<path d="M8.14248 12.0783C9.27196 14.1103 11.1437 15.75 13.458 16.7347C13.6273 16.8053 13.8146 16.8359 14.0014 16.8234C14.1883 16.811 14.3682 16.756 14.5235 16.6637L17.9311 14.6642C18.0818 14.5757 18.2552 14.5218 18.4356 14.5072C18.616 14.4926 18.7976 14.5179 18.9641 14.5806L25.339 16.9849C25.5556 17.0659 25.7364 17.2065 25.8542 17.3858C25.972 17.565 26.0204 17.7731 25.9921 17.9786C25.7906 19.3661 25.0214 20.6414 23.8283 21.5657C22.6353 22.49 21.1003 22.9999 19.5108 23C14.6014 23 9.89313 21.2838 6.42168 18.2289C2.95024 15.174 1 11.0308 1 6.71051C1.00008 5.31174 1.57954 3.96096 2.62988 2.91108C3.68021 1.86121 5.12939 1.18423 6.70608 1.00692C6.93967 0.982043 7.17611 1.02464 7.37978 1.1283C7.58346 1.23196 7.74334 1.39106 7.83533 1.58163L10.5698 7.19646C10.6406 7.34169 10.6694 7.50006 10.6537 7.65746C10.6381 7.81487 10.5784 7.96643 10.4801 8.09864L8.21573 11.1433C8.11267 11.2803 8.05175 11.4384 8.03891 11.6023C8.02607 11.7662 8.06175 11.9302 8.14248 12.0783Z" stroke="#3A3A3A" stroke-width="2" stroke-linecap="round" stroke-linejoin="round"/>
</svg>
