<svg id="Capa_1" data-name="Capa 1" xmlns="http://www.w3.org/2000/svg" viewBox="0 0 40.1 40"><defs><style>.cls-1{fill:#eaeaea;}</style></defs><path d="M20,40A20,20,0,1,1,40.1,19.73,20.07,20.07,0,0,1,20,40ZM9.43,17.84l.62-.4c.19-.13.39-.25.6-.37.71-.43,1.11-.38,1.55.32a7.79,7.79,0,0,1,.94,1.95c.67,2.23,1.28,4.48,1.88,6.72a11,11,0,0,0,1.71,4,2.69,2.69,0,0,0,3.21,1.09A7.73,7.73,0,0,0,23,29.35,35.58,35.58,0,0,0,30.35,20a9.3,9.3,0,0,0,1.4-5.14,3.93,3.93,0,0,0-1.29-3.17A4,4,0,0,0,27.71,11c-3,.11-5.09,2.29-5.82,5.3a13.89,13.89,0,0,1,1.81-.19,1.3,1.3,0,0,1,1.38,1.38A3.68,3.68,0,0,1,24.85,19a29,29,0,0,1-1.59,3,8.85,8.85,0,0,1-1.21,1.53c-.68.7-1.14.61-1.6-.27a4.13,4.13,0,0,1-.41-1c-.48-2.29-.93-4.59-1.42-6.87a12.62,12.62,0,0,0-.7-2.51,2.51,2.51,0,0,0-3.68-1.25c-2.28,1.18-3.89,3.19-5.92,4.79Z"/><path class="cls-1" d="M9.43,17.84l-1.11-1.4c2-1.6,3.64-3.61,5.92-4.79a2.51,2.51,0,0,1,3.68,1.25,12.62,12.62,0,0,1,.7,2.51c.49,2.28.94,4.58,1.42,6.87a4.13,4.13,0,0,0,.41,1c.46.88.92,1,1.6.27A8.85,8.85,0,0,0,23.26,22a29,29,0,0,0,1.59-3,3.68,3.68,0,0,0,.23-1.48,1.3,1.3,0,0,0-1.38-1.38,13.89,13.89,0,0,0-1.81.19c.73-3,2.85-5.19,5.82-5.3a4,4,0,0,1,2.75.65,3.93,3.93,0,0,1,1.29,3.17A9.3,9.3,0,0,1,30.35,20,35.58,35.58,0,0,1,23,29.35a7.73,7.73,0,0,1-3.09,1.78A2.69,2.69,0,0,1,16.73,30a11,11,0,0,1-1.71-4c-.6-2.24-1.21-4.49-1.88-6.72a7.79,7.79,0,0,0-.94-1.95c-.44-.7-.84-.75-1.55-.32-.21.12-.41.24-.6.37Z"/></svg>