<svg width="59" height="57" viewBox="0 0 59 57" fill="none" xmlns="http://www.w3.org/2000/svg">
<ellipse cx="29.9918" cy="28.009" rx="28.025" ry="26.0268" fill="#7F2629"/>
<path d="M3.44165 52.0714L8.84998 38.8125L20.65 48.6339L3.44165 52.0714Z" fill="#7F2629"/>
<path fill-rule="evenodd" clip-rule="evenodd" d="M50.4039 8.29598C44.8577 2.9606 37.4816 0.0208211 29.6232 0.0178223C13.4311 0.0178223 0.252797 12.6797 0.246317 28.2431C0.244157 33.218 1.59694 38.0743 4.16755 42.3548L0 56.9821L15.5731 53.0569C19.8638 55.3056 24.6948 56.4907 29.6114 56.4927H29.6235C45.8139 56.4927 58.9934 43.8292 59 28.2657C59.0031 20.7234 55.9504 13.6314 50.4039 8.29598ZM29.6235 51.7252H29.6135C25.2323 51.7236 20.935 50.5927 17.1862 48.455L16.2945 47.9465L7.05336 50.2759L9.52006 41.6183L8.93942 40.7307C6.49529 36.9953 5.20434 32.6778 5.20626 28.2449C5.21162 15.3092 16.165 4.7852 29.6332 4.7852C36.1548 4.78758 42.2854 7.23117 46.8953 11.6657C51.5053 16.1003 54.0426 21.995 54.0401 28.2638C54.0345 41.2005 43.0813 51.7252 29.6235 51.7252ZM43.0166 34.1541C42.2825 33.8011 38.6737 32.0947 38.0009 31.8593C37.3281 31.624 36.8388 31.5063 36.3494 32.2124C35.8601 32.9185 34.4534 34.5072 34.0251 34.9778C33.597 35.4486 33.1688 35.5075 32.4348 35.1544C31.7008 34.8014 29.3357 34.0566 26.532 31.6537C24.35 29.7837 22.8767 27.4738 22.4486 26.7678C22.0204 26.0617 22.403 25.6799 22.7705 25.3284C23.1006 25.0123 23.5045 24.5046 23.8715 24.0927C24.2385 23.6808 24.3608 23.3866 24.6054 22.916C24.8501 22.4452 24.7278 22.0333 24.5443 21.6803C24.3608 21.3273 22.8929 17.8557 22.2811 16.4436C21.6854 15.0683 21.0802 15.2544 20.6296 15.2328C20.2019 15.2124 19.7121 15.208 19.2228 15.208C18.7335 15.208 17.9383 15.3845 17.2654 16.0906C16.5926 16.7967 14.6965 18.503 14.6965 21.9745C14.6965 25.446 17.3266 28.7998 17.6936 29.2705C18.0606 29.7413 22.8695 36.8653 30.2328 39.9204C31.9841 40.647 33.3513 41.0809 34.4173 41.4062C36.1758 41.9428 37.7759 41.8671 39.0407 41.6855C40.4509 41.4831 43.3834 39.9793 43.9952 38.3318C44.6069 36.6842 44.6069 35.2721 44.4234 34.9779C44.2399 34.6837 43.7506 34.5072 43.0166 34.1541Z" fill="white"/>
</svg>
